<svg width="301" height="34" viewBox="0 0 301 34" fill="none" xmlns="http://www.w3.org/2000/svg">
<path d="M1.80803 33.5064C1.2487 33.5064 0.811281 33.2555 0.495764 32.7535C0.366689 32.5097 0.302152 32.2659 0.302152 32.0221C0.302152 31.8643 0.323664 31.7137 0.366689 31.5703C3.85172 21.5168 6.77742 11.5708 9.1438 1.73244C9.40195 2.0623 9.65293 2.39216 9.89673 2.72202C10.1405 3.05188 10.3915 3.37457 10.6497 3.69008H10.4561C10.413 3.69008 10.3844 3.69725 10.37 3.7116C10.3557 3.7116 10.3198 3.73311 10.2624 3.77613L10.37 3.69008L10.327 3.7116C10.2123 3.79765 10.1405 3.84067 10.1119 3.84067L10.0903 3.86218L10.1764 3.79765L10.0258 3.92672L10.0903 3.84067V3.8837C10.0617 3.92672 10.0402 3.9554 10.0258 3.96975C10.0258 3.98409 10.0186 3.99843 10.0043 4.01277C10.0043 4.01277 10.0043 4.0056 10.0043 3.99126C10.0186 3.97692 10.0402 3.94823 10.0688 3.90521C10.0688 3.91955 10.0617 3.93389 10.0473 3.94823C10.033 3.96257 10.0186 3.99126 10.0043 4.03428C9.98996 4.07731 9.98278 4.10599 9.98278 4.12033C9.85371 4.53624 9.6099 4.84459 9.25136 5.04537C9.00755 5.17445 8.74223 5.23898 8.4554 5.23898C7.85305 5.23898 7.41562 4.98083 7.14313 4.46453C7.01406 4.20638 6.94952 3.94106 6.94952 3.66857C6.94952 3.55384 6.96386 3.43193 6.99254 3.30286C7.22201 2.48538 7.65943 1.83284 8.30481 1.34522C8.96453 0.843259 9.70312 0.59228 10.5206 0.59228C11.0799 0.59228 11.5317 0.800234 11.8759 1.21614C12.0767 1.48863 12.1771 1.79698 12.1771 2.14118C12.1771 2.27026 12.1627 2.41367 12.134 2.57143C9.79634 12.3381 6.86347 22.2769 3.33542 32.3878C3.03424 33.1335 2.52511 33.5064 1.80803 33.5064ZM17.1895 32.9686C16.6588 32.9686 16.1139 32.8969 15.5545 32.7535C14.106 32.3089 12.9659 31.4843 12.134 30.2796C11.3022 29.0749 10.7716 27.7482 10.5421 26.2997C10.3557 24.9946 10.2624 23.7039 10.2624 22.4275C10.2624 18.6126 11.0799 14.9196 12.7149 11.3485C13.7188 9.15426 15.0741 7.20379 16.7807 5.49713C18.5448 3.76179 20.2227 2.65748 21.8147 2.18421C22.1732 2.06947 22.5318 2.01211 22.8903 2.01211C23.2919 2.01211 23.7006 2.08381 24.1165 2.22723C24.8623 2.52841 25.2352 3.04471 25.2352 3.77613C25.2352 4.33546 24.977 4.76571 24.4607 5.06688C24.2169 5.2103 23.9731 5.28201 23.7293 5.28201C23.5428 5.28201 23.3205 5.23181 23.0624 5.13142C23.0337 5.13142 23.0122 5.12425 22.9979 5.10991H23.0194L22.9118 5.13142C22.8258 5.13142 22.7827 5.12425 22.7827 5.10991H22.8042C22.7899 5.12425 22.7756 5.13142 22.7612 5.13142C22.7469 5.13142 22.711 5.13859 22.6537 5.15293C22.6106 5.16728 22.5533 5.18162 22.4816 5.19596C22.4816 5.2103 22.46 5.22464 22.417 5.23898C22.3883 5.25333 22.3525 5.2605 22.3095 5.2605L22.2664 5.28201L22.331 5.23898C21.6569 5.5545 21.0402 5.93456 20.4809 6.37915L20.4379 6.40066C20.3375 6.50105 20.2729 6.55125 20.2443 6.55125L20.3303 6.48671L20.2012 6.57276L19.8355 6.89545C19.018 7.58385 18.2794 8.34396 17.6197 9.17577V9.19729L17.5122 9.32636L17.5982 9.2188L17.4907 9.36939C17.0604 9.91437 16.5871 10.653 16.0708 11.5852C15.5976 12.4457 15.3179 13.0122 15.2318 13.2847L15.1458 13.4783L15.1673 13.4568V13.4137C15.1816 13.3994 15.1888 13.3851 15.1888 13.3707C15.1888 13.3564 15.196 13.3492 15.2103 13.3492L15.1243 13.5213C14.3785 15.3427 13.8694 17.2717 13.5969 19.3082C13.5825 19.3369 13.5754 19.3727 13.5754 19.4157L13.5969 19.2867L13.5754 19.5018C13.4463 20.3193 13.3818 21.4236 13.3818 22.8147C13.3818 23.833 13.432 24.7078 13.5324 25.4392L13.5108 25.3532L13.5324 25.3962C13.5324 25.4823 13.5324 25.5396 13.5324 25.5683C13.5467 25.597 13.5897 25.7906 13.6614 26.1492C13.7762 26.7085 13.8981 27.11 14.0271 27.3539V27.3754C14.0271 27.404 14.0415 27.4327 14.0702 27.4614V27.4829L14.0487 27.4399L14.0917 27.5044V27.5475L14.1992 27.7411C14.443 28.2 14.6008 28.4653 14.6725 28.537L14.7155 28.6016C14.902 28.8167 15.0813 29.0031 15.2534 29.1609C15.2964 29.1609 15.3322 29.1824 15.3609 29.2254C15.3896 29.2541 15.4111 29.2828 15.4255 29.3115C15.4541 29.3258 15.4756 29.333 15.49 29.333L15.4039 29.29V29.2685C15.4039 29.2828 15.4111 29.2971 15.4255 29.3115C15.4398 29.3115 15.4541 29.3187 15.4685 29.333C15.4828 29.333 15.5043 29.3402 15.533 29.3545L15.5545 29.376L15.9418 29.6127L16.1354 29.6987C16.1497 29.6987 16.1569 29.7059 16.1569 29.7202H16.1354L16.0923 29.6987C16.0637 29.6844 16.0493 29.67 16.0493 29.6557H16.0063C16.035 29.6557 16.0708 29.67 16.1139 29.6987C16.1712 29.7131 16.3146 29.7489 16.5441 29.8063C16.5584 29.8206 16.6086 29.8278 16.6947 29.8278L16.7592 29.8493L17.211 29.8708C17.2684 29.8708 17.3186 29.8636 17.3616 29.8493H17.4046L17.3831 29.8708L17.5122 29.8493C18.0428 29.7346 18.4731 29.6055 18.8029 29.4621C18.7599 29.4764 18.7384 29.4908 18.7384 29.5051V29.4836L18.975 29.376C19.4913 29.1466 20.108 28.7522 20.8251 28.1928L20.7606 28.2574H20.739C20.7821 28.243 20.8108 28.2287 20.8251 28.2144C20.8538 28.2 21.0044 28.0638 21.2769 27.8056C21.7788 27.3754 22.3238 26.8089 22.9118 26.1061C23.0122 26.0057 23.0624 25.9484 23.0624 25.934C23.0767 25.9197 23.0839 25.9053 23.0839 25.891C23.0983 25.8767 23.1054 25.8695 23.1054 25.8695C23.1198 25.8551 23.1341 25.8408 23.1484 25.8265C23.1341 25.8408 23.1198 25.8623 23.1054 25.891C23.0911 25.9053 23.0767 25.9125 23.0624 25.9125L23.7078 25.0305C24.2528 24.1413 24.7547 23.2019 25.2136 22.2124C25.2136 22.1837 25.2208 22.1622 25.2352 22.1478L25.1706 22.2769H25.1921V22.2339C25.2065 22.2052 25.228 22.1693 25.2567 22.1263C25.2854 22.0833 25.3427 21.9184 25.4288 21.6315C25.9164 20.3264 26.2893 19.0357 26.5474 17.7593L26.8486 16.0168C26.8343 16.0311 26.8271 16.0741 26.8271 16.1458L26.8916 15.5005C27.0064 14.5252 27.0637 13.5715 27.0637 12.6393C27.0637 11.6927 27.0279 10.9326 26.9562 10.359C26.9562 10.3016 26.949 10.2586 26.9346 10.2299V10.0578L26.9131 10.0363C26.9131 9.95023 26.8773 9.74944 26.8056 9.43392C26.6765 8.68816 26.4685 7.94956 26.1817 7.21814V7.17511L26.1172 7.06755C26.1602 7.11057 26.1817 7.1536 26.1817 7.19662L26.1602 7.11057C26.1459 7.11057 26.1315 7.1034 26.1172 7.08906C26.1172 7.07472 26.11 7.05321 26.0957 7.02452C26.067 6.93847 26.0311 6.85959 25.9881 6.78789C25.7873 6.34329 25.5292 5.92738 25.2136 5.54016L25.1921 5.49713L25.2782 5.6047L25.1491 5.45411C25.0344 5.29635 24.7619 5.01669 24.3316 4.61512C24.2599 4.58644 24.2169 4.55775 24.2026 4.52907L24.181 4.50756L24.2671 4.5721C24.2097 4.54341 24.1595 4.50756 24.1165 4.46453C23.5285 4.07731 23.2345 3.6112 23.2345 3.06622C23.2345 2.80807 23.299 2.53558 23.4281 2.24874C23.7149 1.73244 24.1739 1.47429 24.8049 1.47429C25.3499 1.47429 26.0885 1.95474 27.0207 2.91563C28.1824 4.14902 28.9927 5.5545 29.4516 7.13209C29.9249 8.70967 30.1615 10.4378 30.1615 12.3166C30.1615 16.5617 29.3799 20.4483 27.8167 23.9764C26.7984 26.2567 25.3857 28.2359 23.5787 29.9138C22.5031 30.9178 21.2697 31.7352 19.8785 32.3663C19.0037 32.7678 18.1073 32.9686 17.1895 32.9686ZM39.0032 32.9686C38.4725 32.9686 37.9275 32.8969 37.3682 32.7535C35.9197 32.3089 34.7795 31.4843 33.9477 30.2796C33.1159 29.0749 32.5853 27.7482 32.3558 26.2997C32.1694 24.9946 32.0761 23.7039 32.0761 22.4275C32.0761 18.6126 32.8936 14.9196 34.5286 11.3485C35.5325 9.15426 36.8878 7.20379 38.5944 5.49713C40.3585 3.76179 42.0364 2.65748 43.6284 2.18421C43.9869 2.06947 44.3454 2.01211 44.704 2.01211C45.1056 2.01211 45.5143 2.08381 45.9302 2.22723C46.676 2.52841 47.0489 3.04471 47.0489 3.77613C47.0489 4.33546 46.7907 4.76571 46.2744 5.06688C46.0306 5.2103 45.7868 5.28201 45.543 5.28201C45.3565 5.28201 45.1342 5.23181 44.8761 5.13142C44.8474 5.13142 44.8259 5.12425 44.8115 5.10991H44.8331L44.7255 5.13142C44.6394 5.13142 44.5964 5.12425 44.5964 5.10991H44.6179C44.6036 5.12425 44.5893 5.13142 44.5749 5.13142C44.5606 5.13142 44.5247 5.13859 44.4673 5.15293C44.4243 5.16728 44.367 5.18162 44.2952 5.19596C44.2952 5.2103 44.2737 5.22464 44.2307 5.23898C44.202 5.25333 44.1662 5.2605 44.1231 5.2605L44.0801 5.28201L44.1447 5.23898C43.4706 5.5545 42.8539 5.93456 42.2946 6.37915L42.2516 6.40066C42.1512 6.50105 42.0866 6.55125 42.0579 6.55125L42.144 6.48671L42.0149 6.57276L41.6492 6.89545C40.8317 7.58385 40.0931 8.34396 39.4334 9.17577V9.19729L39.3259 9.32636L39.4119 9.2188L39.3043 9.36939C38.8741 9.91437 38.4008 10.653 37.8845 11.5852C37.4112 12.4457 37.1316 13.0122 37.0455 13.2847L36.9595 13.4783L36.981 13.4568V13.4137C36.9953 13.3994 37.0025 13.3851 37.0025 13.3707C37.0025 13.3564 37.0097 13.3492 37.024 13.3492L36.938 13.5213C36.1922 15.3427 35.6831 17.2717 35.4106 19.3082C35.3962 19.3369 35.3891 19.3727 35.3891 19.4157L35.4106 19.2867L35.3891 19.5018C35.26 20.3193 35.1955 21.4236 35.1955 22.8147C35.1955 23.833 35.2456 24.7078 35.346 25.4392L35.3245 25.3532L35.346 25.3962C35.346 25.4823 35.346 25.5396 35.346 25.5683C35.3604 25.597 35.4034 25.7906 35.4751 26.1492C35.5899 26.7085 35.7118 27.11 35.8408 27.3539V27.3754C35.8408 27.404 35.8552 27.4327 35.8839 27.4614V27.4829L35.8623 27.4399L35.9054 27.5044V27.5475L36.0129 27.7411C36.2567 28.2 36.4145 28.4653 36.4862 28.537L36.5292 28.6016C36.7157 28.8167 36.8949 29.0031 37.067 29.1609C37.1101 29.1609 37.1459 29.1824 37.1746 29.2254C37.2033 29.2541 37.2248 29.2828 37.2391 29.3115C37.2678 29.3258 37.2893 29.333 37.3037 29.333L37.2176 29.29V29.2685C37.2176 29.2828 37.2248 29.2971 37.2391 29.3115C37.2535 29.3115 37.2678 29.3187 37.2822 29.333C37.2965 29.333 37.318 29.3402 37.3467 29.3545L37.3682 29.376L37.7554 29.6127L37.9491 29.6987C37.9634 29.6987 37.9706 29.7059 37.9706 29.7202H37.9491L37.906 29.6987C37.8773 29.6844 37.863 29.67 37.863 29.6557H37.82C37.8487 29.6557 37.8845 29.67 37.9275 29.6987C37.9849 29.7131 38.1283 29.7489 38.3578 29.8063C38.3721 29.8206 38.4223 29.8278 38.5084 29.8278L38.5729 29.8493L39.0247 29.8708C39.082 29.8708 39.1322 29.8636 39.1753 29.8493H39.2183L39.1968 29.8708L39.3259 29.8493C39.8565 29.7346 40.2867 29.6055 40.6166 29.4621C40.5736 29.4764 40.5521 29.4908 40.5521 29.5051V29.4836L40.7887 29.376C41.305 29.1466 41.9217 28.7522 42.6388 28.1928L42.5742 28.2574H42.5527C42.5958 28.243 42.6244 28.2287 42.6388 28.2144C42.6675 28.2 42.8181 28.0638 43.0905 27.8056C43.5925 27.3754 44.1375 26.8089 44.7255 26.1061C44.8259 26.0057 44.8761 25.9484 44.8761 25.934C44.8904 25.9197 44.8976 25.9053 44.8976 25.891C44.9119 25.8767 44.9191 25.8695 44.9191 25.8695C44.9335 25.8551 44.9478 25.8408 44.9621 25.8265C44.9478 25.8408 44.9335 25.8623 44.9191 25.891C44.9048 25.9053 44.8904 25.9125 44.8761 25.9125L45.5215 25.0305C46.0664 24.1413 46.5684 23.2019 47.0273 22.2124C47.0273 22.1837 47.0345 22.1622 47.0489 22.1478L46.9843 22.2769H47.0058V22.2339C47.0202 22.2052 47.0417 22.1693 47.0704 22.1263C47.099 22.0833 47.1564 21.9184 47.2425 21.6315C47.7301 20.3264 48.103 19.0357 48.3611 17.7593L48.6623 16.0168C48.6479 16.0311 48.6408 16.0741 48.6408 16.1458L48.7053 15.5005C48.82 14.5252 48.8774 13.5715 48.8774 12.6393C48.8774 11.6927 48.8416 10.9326 48.7699 10.359C48.7699 10.3016 48.7627 10.2586 48.7483 10.2299V10.0578L48.7268 10.0363C48.7268 9.95023 48.691 9.74944 48.6193 9.43392C48.4902 8.68816 48.2822 7.94956 47.9954 7.21814V7.17511L47.9309 7.06755C47.9739 7.11057 47.9954 7.1536 47.9954 7.19662L47.9739 7.11057C47.9595 7.11057 47.9452 7.1034 47.9309 7.08906C47.9309 7.07472 47.9237 7.05321 47.9094 7.02452C47.8807 6.93847 47.8448 6.85959 47.8018 6.78789C47.601 6.34329 47.3429 5.92738 47.0273 5.54016L47.0058 5.49713L47.0919 5.6047L46.9628 5.45411C46.8481 5.29635 46.5756 5.01669 46.1453 4.61512C46.0736 4.58644 46.0306 4.55775 46.0163 4.52907L45.9947 4.50756L46.0808 4.5721C46.0234 4.54341 45.9732 4.50756 45.9302 4.46453C45.3422 4.07731 45.0482 3.6112 45.0482 3.06622C45.0482 2.80807 45.1127 2.53558 45.2418 2.24874C45.5286 1.73244 45.9876 1.47429 46.6186 1.47429C47.1636 1.47429 47.9022 1.95474 48.8344 2.91563C49.9961 4.14902 50.8064 5.5545 51.2653 7.13209C51.7386 8.70967 51.9752 10.4378 51.9752 12.3166C51.9752 16.5617 51.1936 20.4483 49.6304 23.9764C48.6121 26.2567 47.1994 28.2359 45.3924 29.9138C44.3168 30.9178 43.0834 31.7352 41.6922 32.3663C40.8174 32.7678 39.921 32.9686 39.0032 32.9686ZM55.6323 33.4849C54.8292 33.4849 54.3129 33.1049 54.0834 32.3448C54.0404 32.2013 54.0189 32.0579 54.0189 31.9145C54.0189 31.6564 54.0978 31.4125 54.2555 31.1831L70.8417 9.64905C71.2433 9.14709 71.6807 8.58059 72.154 7.94956C72.24 7.86351 72.4408 7.60536 72.7563 7.17511L72.9929 6.8094L73.1435 6.52973L73.1866 6.42217C73.2296 6.2931 73.2511 6.22139 73.2511 6.20705C73.2511 6.19271 73.2583 6.17119 73.2726 6.14251C73.287 6.11383 73.2941 6.09231 73.2941 6.07797V6.05646C73.3085 6.05646 73.3156 6.0708 73.3156 6.09948L73.2941 6.18553C73.2798 6.18553 73.2726 6.15685 73.2726 6.09948V6.05646L73.2081 5.86285C73.2368 5.87719 73.2511 5.89153 73.2511 5.90587C73.2654 5.92021 73.2798 5.9489 73.2941 5.99192L73.2296 5.86285L73.2941 5.92738C73.2941 5.94173 73.2941 5.9489 73.2941 5.9489C73.2941 5.93456 73.2726 5.90587 73.2296 5.86285C73.2296 5.87719 73.2368 5.89153 73.2511 5.90587C73.2654 5.90587 73.2798 5.91304 73.2941 5.92738C73.3085 5.94173 73.3228 5.9489 73.3371 5.9489L73.3587 5.97041C73.3013 5.94173 73.2654 5.92738 73.2511 5.92738C73.2511 5.92738 73.2511 5.92021 73.2511 5.90587L73.3802 5.97041L73.2511 5.92738H73.2941C70.727 5.92738 67.8586 6.18553 64.6891 6.70184L65.7647 4.80873C66.3958 6.27158 66.7113 7.73444 66.7113 9.19729C66.7113 10.3733 66.3886 11.4848 65.7432 12.5317C65.1265 13.4783 64.3091 14.181 63.2908 14.64C62.7458 14.8838 62.1793 15.0057 61.5913 15.0057C61.118 15.0057 60.6233 14.9196 60.107 14.7475C59.06 14.3316 58.2282 13.6647 57.6115 12.7469C56.9374 11.7716 56.6004 10.7247 56.6004 9.60602C56.6004 8.54474 56.8514 7.53365 57.3533 6.57276C57.8553 5.59753 58.5007 4.73703 59.2895 3.99126C60.0496 3.21681 60.9459 2.67899 61.9785 2.37782C62.2654 2.32045 62.5379 2.29177 62.796 2.29177C63.843 2.29177 64.6389 2.71485 65.1839 3.56101C65.3417 3.81916 65.4205 4.07731 65.4205 4.33546C65.4205 4.88044 65.1624 5.3322 64.6461 5.69075C64.3879 5.83416 64.1298 5.90587 63.8716 5.90587C63.3123 5.90587 62.8606 5.64772 62.5164 5.13142L62.6454 5.28201L62.5809 5.21747L62.753 5.32503C62.71 5.31069 62.6885 5.29635 62.6885 5.28201L62.8606 5.36806L62.796 5.32503L62.9896 5.34655C62.9896 5.36089 62.9609 5.36806 62.9036 5.36806H62.71L62.9251 5.34655L62.839 5.36806C62.796 5.36806 62.7386 5.3824 62.6669 5.41108C62.5952 5.43977 62.545 5.45411 62.5164 5.45411C62.502 5.45411 62.459 5.46128 62.3873 5.47562L62.5379 5.41108L62.4518 5.47562L61.9785 5.75528C61.9785 5.7266 61.9857 5.71226 62.0001 5.71226C62.0144 5.69792 62.0431 5.68358 62.0861 5.66923L62.0431 5.71226C61.5411 6.12817 61.0822 6.57993 60.6663 7.06755L60.7523 6.9815L60.6017 7.1536L60.5802 7.19662C60.3508 7.48346 60.1285 7.86351 59.9133 8.33679L59.9779 8.22922L59.9564 8.25074C59.9564 8.26508 59.9492 8.28659 59.9349 8.31527C59.9349 8.34396 59.9277 8.37981 59.9133 8.42284C59.899 8.45152 59.8847 8.4802 59.8703 8.50889C59.8703 8.53757 59.8631 8.55908 59.8488 8.57342L59.6982 9.2188C59.7126 9.14709 59.7269 9.11124 59.7412 9.11124C59.7269 9.15426 59.7197 9.19729 59.7197 9.24031C59.7197 9.28334 59.7126 9.32636 59.6982 9.36939C59.6982 9.41241 59.6982 9.51997 59.6982 9.69207V9.75661C59.7126 9.82832 59.7197 9.87135 59.7197 9.88569C59.7197 9.90003 59.7412 9.99325 59.7843 10.1654C59.8273 10.3375 59.8775 10.5024 59.9349 10.6601C59.9062 10.6028 59.8918 10.5597 59.8918 10.5311L60.0639 10.8753L60.193 11.0904C60.2073 11.0904 60.2145 11.0976 60.2145 11.1119C60.2289 11.1262 60.236 11.1406 60.236 11.1549C60.2504 11.1549 60.2719 11.1764 60.3006 11.2195L60.2145 11.0904C60.2145 11.1047 60.2145 11.1191 60.2145 11.1334C60.2289 11.1478 60.2575 11.1693 60.3006 11.198L60.5587 11.4776L60.5802 11.4991C60.5802 11.4991 60.5946 11.5135 60.6233 11.5422C60.6519 11.5708 60.6734 11.5923 60.6878 11.6067C60.7165 11.621 60.7452 11.6354 60.7738 11.6497C60.9459 11.7788 61.0678 11.8433 61.1396 11.8433C61.0392 11.8146 60.9818 11.8003 60.9675 11.8003C60.9675 11.8003 60.9675 11.7931 60.9675 11.7788L61.1826 11.8433C61.3117 11.9007 61.4264 11.9294 61.5268 11.9294H61.4407C61.369 11.9294 61.3332 11.9222 61.3332 11.9079L61.6989 11.9294C61.7419 11.9294 61.7778 11.9222 61.8064 11.9079L61.6128 11.9509L62.1937 11.7788L62.0646 11.8003C62.1363 11.7716 62.1793 11.7573 62.1937 11.7573C62.208 11.7429 62.2439 11.7286 62.3012 11.7143C62.3586 11.6856 62.4016 11.6569 62.4303 11.6282C62.4733 11.5852 62.5164 11.5565 62.5594 11.5422C62.4733 11.5852 62.4303 11.6139 62.4303 11.6282L62.4733 11.6067C62.6024 11.5063 62.7602 11.3485 62.9466 11.1334L63.0327 11.0474V11.0689L62.9466 11.1549L63.0757 10.9613C63.2478 10.6745 63.3625 10.4594 63.4199 10.3159L63.3769 10.402L63.4199 10.2944C63.5346 9.92154 63.592 9.69925 63.592 9.62754L63.6135 9.58451L63.592 9.69207C63.6207 9.53432 63.635 9.31202 63.635 9.02519C63.635 8.7527 63.6207 8.58777 63.592 8.5304V8.3583L63.5705 8.29376C63.3984 7.37589 63.133 6.48671 62.7745 5.62621C62.7315 5.48279 62.71 5.33938 62.71 5.19596C62.71 4.95215 62.8032 4.67249 62.9896 4.35697C63.1761 4.02711 63.4701 3.81199 63.8716 3.7116C66.9121 3.22398 69.5725 2.94432 71.8528 2.87261C72.1396 2.82958 72.4623 2.80807 72.8208 2.80807C73.3371 2.80807 73.8391 2.87978 74.3267 3.02319C75.1442 3.35305 75.7107 3.8837 76.0262 4.61512C76.2413 5.10274 76.3489 5.6047 76.3489 6.121C76.3489 6.96716 76.0836 7.7918 75.5529 8.59494C75.137 9.19729 74.5992 9.88569 73.9395 10.6601C72.0464 13.1126 70.1533 15.5722 68.2602 18.0389C66.3814 20.4914 62.6024 25.3962 56.9231 32.7535C56.5502 33.2411 56.12 33.4849 55.6323 33.4849ZM69.6155 32.9256C68.7693 32.9256 67.9949 32.5814 67.2921 31.893C66.446 30.9321 66.0229 29.6772 66.0229 28.1283C66.0229 27.4973 66.0946 26.8662 66.238 26.2352C66.3814 25.6042 66.6396 24.9301 67.0125 24.213C67.3854 23.4816 67.873 22.9008 68.4753 22.4705C68.8625 22.1837 69.2856 22.0403 69.7446 22.0403C69.9884 22.0403 70.2465 22.0833 70.519 22.1693C71.2648 22.4705 71.6377 22.9868 71.6377 23.7182C71.6377 24.2919 71.3867 24.7222 70.8847 25.009C70.6266 25.1524 70.3684 25.2241 70.1103 25.2241L69.594 25.1166C69.594 25.1022 69.6083 25.095 69.637 25.095L69.9597 25.1381C70.0314 25.1381 70.0816 25.1309 70.1103 25.1166C70.1533 25.0879 70.182 25.0735 70.1963 25.0735L70.0888 25.1166L70.1963 25.052L70.0027 25.2241L70.0888 25.1381C69.9597 25.3245 69.8306 25.5325 69.7015 25.7619L69.5079 26.1276L69.5509 26.0416L69.5079 26.1707C69.4219 26.4001 69.3502 26.6296 69.2928 26.8591C69.2067 27.1746 69.1637 27.404 69.1637 27.5475L69.1422 27.569L69.1637 27.4399C69.135 27.526 69.1207 27.7698 69.1207 28.1713C69.1207 28.5155 69.135 28.7593 69.1637 28.9028L69.1422 28.7952V28.7307C69.1422 28.745 69.1494 28.7737 69.1637 28.8167C69.1781 28.8597 69.1852 28.9171 69.1852 28.9888C69.1996 29.0462 69.2211 29.1107 69.2498 29.1824C69.2785 29.2541 69.3071 29.3473 69.3358 29.4621C69.3358 29.4477 69.3215 29.4334 69.2928 29.4191C69.2785 29.3904 69.2713 29.3545 69.2713 29.3115C69.2713 29.3258 69.2856 29.3545 69.3143 29.3975C69.343 29.4262 69.3932 29.5266 69.4649 29.6987L69.4864 29.7417V29.7202L69.4004 29.6127C69.4434 29.6557 69.4792 29.6915 69.5079 29.7202C69.5366 29.7489 69.5509 29.7704 69.5509 29.7848C69.5653 29.7991 69.5796 29.8134 69.594 29.8278C69.6083 29.8278 69.6155 29.835 69.6155 29.8493C69.6298 29.8493 69.6442 29.8493 69.6585 29.8493C69.5868 29.8493 69.5509 29.8278 69.5509 29.7848H69.5294L69.6155 29.8278L69.7015 29.8493H69.637C69.5796 29.8493 69.5509 29.8421 69.5509 29.8278C69.5653 29.8421 69.6729 29.8493 69.8736 29.8493L69.9167 29.8278H69.8306C69.9453 29.7991 70.0099 29.7848 70.0242 29.7848C70.0386 29.7848 70.0457 29.7848 70.0457 29.7848C70.0601 29.7704 70.0744 29.7561 70.0888 29.7417H70.1103L69.9812 29.8063L70.0027 29.7848C70.0171 29.7848 70.0386 29.7776 70.0672 29.7633C70.0959 29.7346 70.1246 29.7202 70.1533 29.7202L70.5405 29.4836L70.4545 29.5266L70.562 29.4406C70.6194 29.4119 70.7341 29.2971 70.9062 29.0964L70.9923 29.0103L71.0353 28.9458C71.0353 28.9314 71.0425 28.9243 71.0568 28.9243C71.2433 28.6518 71.4154 28.3578 71.5731 28.0423L71.7022 27.7411L71.6807 27.8056C71.8671 27.3897 72.0536 26.7156 72.24 25.7834C72.24 25.7117 72.2472 25.6615 72.2615 25.6329L72.24 25.6759L72.2615 25.5898C72.2615 25.5468 72.2687 25.5181 72.283 25.5038C72.283 25.4034 72.2902 25.3173 72.3045 25.2456V24.5787L72.3261 24.6002V24.5787C72.3117 24.5787 72.3045 24.5644 72.3045 24.5357C72.2759 24.507 72.2615 24.4425 72.2615 24.3421C72.2328 24.2704 72.2185 24.2202 72.2185 24.1915L72.24 24.2776V24.2345C72.2257 24.2202 72.2113 24.1987 72.197 24.17C72.1826 24.1413 72.1683 24.1198 72.154 24.1055C72.154 24.0768 72.1468 24.0624 72.1324 24.0624V24.0194C72.1181 24.0194 72.1038 24.0051 72.0894 23.9764L72.0679 23.9549H72.0894C72.0894 23.9692 72.0966 23.9907 72.1109 24.0194C72.1396 24.0338 72.154 24.0481 72.154 24.0624L72.0034 23.9118V23.8903L72.0894 23.9764L72.0679 23.9334H72.0249C72.0105 23.919 71.9962 23.9047 71.9819 23.8903C71.9675 23.876 71.9532 23.8688 71.9388 23.8688C71.9245 23.8545 71.9102 23.8473 71.8958 23.8473V23.8688H71.9388L72.0249 23.9118L71.9388 23.8903H72.0464C71.5731 23.8903 71.1859 23.7397 70.8847 23.4386C70.5979 23.1374 70.4401 22.7717 70.4114 22.3414C70.4114 21.9112 70.562 21.5455 70.8632 21.2443C71.1787 20.9431 71.5444 20.7925 71.9603 20.7925C73.3085 20.8786 74.298 21.524 74.9291 22.7287C75.2016 23.3167 75.3522 23.919 75.3808 24.5357C75.3808 25.2241 75.3378 25.8408 75.2518 26.3858C74.9219 28.5801 74.1259 30.2939 72.8639 31.5273C71.903 32.4595 70.8202 32.9256 69.6155 32.9256ZM96.1189 33.3774C95.4879 33.3774 95.0504 33.1264 94.8066 32.6244C94.6632 32.3663 94.5915 32.1081 94.5915 31.85C94.5915 31.7209 94.6059 31.599 94.6345 31.4843C96.04 26.1348 97.5387 20.8069 99.1307 15.5005C99.2024 15.2997 99.2669 15.0917 99.3243 14.8766C100.701 10.2442 101.741 7.18945 102.444 5.71226C103.232 4.06297 104.229 2.78656 105.434 1.88303C106.151 1.35239 106.897 1.08707 107.671 1.08707C109.421 1.08707 110.296 2.06947 110.296 4.03428C110.296 4.24941 110.274 4.55775 110.231 4.95932C110.073 6.45086 109.629 7.97824 108.897 9.54149C107.291 12.9835 104.509 16.2175 100.55 19.2436C97.1085 22.3845 93.1645 25.0807 88.7186 27.3323C88.5608 27.3754 88.4103 27.3969 88.2668 27.3969C88.023 27.3969 87.7577 27.3108 87.4709 27.1387C87.1697 26.9523 86.9546 26.6655 86.8255 26.2782C86.7825 26.1348 86.761 25.9986 86.761 25.8695C86.761 25.6113 86.8542 25.346 87.0406 25.0735C87.2271 24.7867 87.5139 24.5716 87.9011 24.4281C92.5048 21.6172 95.9253 19.2293 98.1626 17.2645C98.1339 17.2932 98.1124 17.3075 98.0981 17.3075C98.1124 17.3075 98.1339 17.2932 98.1626 17.2645C98.2343 17.1928 98.2845 17.1569 98.3132 17.1569L98.5928 16.9418C98.7936 16.7697 99.0016 16.6048 99.2167 16.447C100.766 15.1849 102.185 13.8081 103.476 12.3166L103.713 12.0154L103.906 11.8003L103.928 11.7573L103.863 11.8433C104.236 11.3987 104.638 10.8322 105.068 10.1438C105.498 9.45544 105.857 8.81006 106.144 8.20771L106.208 8.07864L106.316 7.82049C106.689 6.90262 106.954 5.9489 107.112 4.95932L107.09 5.0884C107.09 5.03103 107.097 4.95932 107.112 4.87327C107.126 4.77288 107.133 4.66532 107.133 4.55058L107.176 3.8837C107.176 3.82633 107.169 3.77613 107.155 3.73311C107.155 3.57535 107.162 3.49647 107.176 3.49647L107.198 3.60403C107.198 3.69008 107.205 3.74745 107.219 3.77613C107.234 3.79047 107.255 3.81199 107.284 3.84067C107.327 3.85501 107.356 3.86935 107.37 3.8837C107.384 3.89804 107.434 3.94106 107.521 4.01277L107.456 3.99126C107.47 4.0056 107.506 4.02711 107.564 4.0558C107.621 4.07014 107.671 4.08448 107.714 4.09882C107.757 4.09882 107.793 4.09882 107.822 4.09882H107.865H107.65L107.865 4.0558C107.721 4.09882 107.628 4.1275 107.585 4.14185C107.542 4.15619 107.492 4.16336 107.434 4.16336L107.542 4.09882C107.556 4.09882 107.564 4.10599 107.564 4.12033L107.478 4.20638C107.391 4.23507 107.341 4.25658 107.327 4.27092C107.313 4.28526 107.27 4.30677 107.198 4.33546L107.327 4.24941C107.212 4.36414 107.112 4.45019 107.026 4.50756C106.868 4.65098 106.717 4.80873 106.574 4.98083C106.459 5.06688 106.373 5.1601 106.316 5.2605L106.208 5.36806L106.294 5.23898L106.23 5.36806C106.158 5.43977 106.036 5.61187 105.864 5.88436C105.506 6.44368 105.176 7.06038 104.874 7.73444L104.918 7.64839C104.86 7.76312 104.824 7.85634 104.81 7.92805C104.724 8.10015 104.545 8.58059 104.272 9.36939C103.727 11.033 103.412 12.0369 103.326 12.3811C101.332 18.7488 99.4318 25.3819 97.6248 32.2802C97.4957 32.6961 97.2519 32.9973 96.8934 33.1837C96.6495 33.3128 96.3914 33.3774 96.1189 33.3774ZM96.5922 33.5495C95.8034 33.5495 95.2943 33.1766 95.0648 32.4308C95.0218 32.2874 95.0003 32.1511 95.0003 32.0221C95.0003 31.7639 95.0791 31.5201 95.2369 31.2906L102.164 22.2554C105.635 17.7378 107.922 14.7475 109.026 13.2847C110.346 11.5206 111.708 9.7853 113.114 8.07864C114.577 6.30027 116.054 4.85893 117.545 3.75462C118.478 3.05188 119.431 2.70051 120.407 2.70051C121.769 2.70051 122.766 3.30286 123.397 4.50756C123.741 5.25333 123.913 6.14251 123.913 7.17511C123.913 7.53365 123.899 7.89937 123.87 8.27225C123.612 10.8394 123.01 13.3349 122.063 15.7586C121.719 16.6908 121.36 17.623 120.987 18.5552C119.481 22.2124 118.578 25.1309 118.277 27.3108L118.298 27.2248C118.284 27.2391 118.277 27.2893 118.277 27.3754C118.262 27.404 118.241 27.5905 118.212 27.9347C118.184 28.2072 118.169 28.6016 118.169 29.1179L118.191 29.2039C118.191 29.3187 118.198 29.3832 118.212 29.3975V29.4191C118.198 29.4191 118.191 29.3904 118.191 29.333C118.191 29.2756 118.184 29.2398 118.169 29.2254C118.169 29.3545 118.227 29.5625 118.341 29.8493C118.356 29.9354 118.363 29.9927 118.363 30.0214C118.377 30.0357 118.384 30.0501 118.384 30.0644C118.399 30.0644 118.406 30.0716 118.406 30.0859H118.384V30.0644C118.37 30.0644 118.363 30.0501 118.363 30.0214L118.341 29.9784H118.363C118.363 29.9927 118.377 30.0214 118.406 30.0644C118.435 30.0931 118.456 30.129 118.47 30.172C118.485 30.2007 118.492 30.2222 118.492 30.2365C118.506 30.2365 118.528 30.2437 118.556 30.258L118.578 30.3011V30.2796L118.47 30.1935L118.513 30.215C118.528 30.2437 118.549 30.2724 118.578 30.3011C118.607 30.3154 118.628 30.3369 118.643 30.3656C118.671 30.3799 118.693 30.3871 118.707 30.3871C118.693 30.3871 118.678 30.3871 118.664 30.3871C118.65 30.3728 118.621 30.3441 118.578 30.3011L118.664 30.3441H118.707C118.721 30.3584 118.743 30.3728 118.772 30.3871C118.815 30.3871 118.85 30.3871 118.879 30.3871L118.901 30.4086H118.836L118.793 30.3871C118.807 30.4015 118.85 30.4086 118.922 30.4086H119.309L119.202 30.4301C119.618 30.3441 119.948 30.258 120.191 30.172L120.407 30.0859L120.32 30.129C120.937 29.8421 121.561 29.4764 122.192 29.0318L122.257 28.9888V29.0103L122.171 29.0749V29.0533L123.053 28.3434C123.755 27.7124 124.401 27.0455 124.989 26.3428C125.075 26.2137 125.154 26.1133 125.225 26.0416L125.333 25.934V25.9125C125.319 25.9269 125.304 25.9412 125.29 25.9555C125.29 25.9699 125.283 25.9842 125.268 25.9986C125.254 26.0129 125.247 26.0272 125.247 26.0416C125.276 25.9842 125.311 25.934 125.354 25.891C125.699 25.4464 126.021 24.9946 126.322 24.5357C126.638 24.0624 127.083 23.8258 127.656 23.8258C127.914 23.8258 128.173 23.8832 128.431 23.9979C128.933 24.2991 129.184 24.7365 129.184 25.3102C129.184 25.5683 129.119 25.8193 128.99 26.0631C128.689 26.522 128.366 26.9666 128.022 27.3969C126.272 29.7346 124.379 31.4412 122.343 32.5169C121.167 33.1192 120.077 33.4204 119.073 33.4204C117.925 33.4204 117.015 33.0618 116.341 32.3448C115.839 31.8285 115.495 31.2261 115.308 30.5377C115.165 29.878 115.093 29.2111 115.093 28.537C115.093 27.9777 115.143 27.4184 115.244 26.8591C115.43 25.5827 115.702 24.3278 116.061 23.0944C116.635 21.2873 117.28 19.509 117.997 17.7593C118.858 15.608 119.489 13.8655 119.89 12.5317C120.062 12.0011 120.292 11.0976 120.579 9.82115C120.636 9.50563 120.665 9.30485 120.665 9.2188L120.708 9.0467V9.00367L120.686 9.11124C120.701 9.11124 120.708 9.06104 120.708 8.96065V8.8746C120.751 8.65947 120.772 8.43001 120.772 8.1862C120.815 7.77029 120.837 7.36155 120.837 6.95999C120.837 6.63013 120.822 6.415 120.794 6.31461L120.815 6.37915V6.4652L120.751 6.25007C120.722 6.09231 120.701 6.00626 120.686 5.99192V5.88436L120.643 5.81982C120.658 5.86285 120.672 5.89153 120.686 5.90587C120.701 5.92021 120.708 5.94173 120.708 5.97041L120.643 5.86285C120.6 5.81982 120.579 5.76963 120.579 5.71226C120.593 5.71226 120.6 5.7266 120.6 5.75528C120.614 5.76963 120.622 5.78397 120.622 5.79831C120.636 5.81265 120.65 5.82699 120.665 5.84133C120.65 5.84133 120.629 5.82699 120.6 5.79831C120.571 5.75528 120.55 5.7266 120.536 5.71226H120.514L120.643 5.7768V5.79831L120.536 5.71226H120.514L120.471 5.66923L120.579 5.73377L120.471 5.71226H120.364L120.45 5.66923H120.514L119.998 5.81982L120.105 5.75528H120.084C120.012 5.81265 119.933 5.86285 119.847 5.90587C119.532 6.06363 119.317 6.19988 119.202 6.31461L119.159 6.33612L119.008 6.4652C117.89 7.3257 116.714 8.50172 115.48 9.99325C115.136 10.3948 114.777 10.8322 114.405 11.3055L114.469 11.241H114.448C114.433 11.2553 114.419 11.2697 114.405 11.284C114.405 11.2983 114.397 11.3127 114.383 11.327C114.383 11.3414 114.376 11.3485 114.362 11.3485C113.085 12.9978 111.823 14.6471 110.575 16.2964C109.328 17.9457 108.058 19.595 106.768 21.2443C105.262 23.1948 103.785 25.1237 102.336 27.0312C100.83 28.9816 99.353 30.9106 97.9044 32.818C97.5316 33.3056 97.0941 33.5495 96.5922 33.5495ZM130.646 33.3558L130.109 33.3343C128.345 33.1335 127.097 32.2085 126.366 30.5592C125.978 29.6844 125.785 28.7952 125.785 27.8917C125.785 27.0312 125.95 26.1635 126.279 25.2887C127.8 21.2013 129.8 18.3544 132.281 16.7482C133.414 16.0024 134.648 15.6295 135.982 15.6295C136.426 15.6295 136.885 15.6797 137.358 15.7801C139.051 16.1673 140.291 17.1282 141.08 18.6628C141.453 19.4086 141.639 20.2189 141.639 21.0937V23.374C141.639 23.3167 141.647 23.288 141.661 23.288C141.661 23.4314 141.675 23.5533 141.704 23.6537C141.747 23.8258 141.768 23.9764 141.768 24.1055C141.768 24.8512 141.396 25.3532 140.65 25.6113C140.506 25.6544 140.363 25.6759 140.22 25.6759C139.115 25.6759 138.563 24.6935 138.563 22.7287L138.499 20.728C138.484 20.3838 138.456 20.1543 138.413 20.0396C138.441 20.0826 138.456 20.1328 138.456 20.1902L138.176 19.6954H138.219L138.262 19.803L138.154 19.6954C137.968 19.4659 137.81 19.3082 137.681 19.2221C137.681 19.2365 137.688 19.2508 137.703 19.2651C137.717 19.2651 137.724 19.2723 137.724 19.2867C137.738 19.2867 137.753 19.2867 137.767 19.2867C137.781 19.2867 137.789 19.2938 137.789 19.3082V19.2867C137.76 19.2867 137.674 19.2436 137.531 19.1576C137.272 18.9998 137.107 18.9066 137.036 18.8779C137.064 18.9066 137.093 18.9209 137.122 18.9209C136.763 18.7919 136.505 18.7273 136.347 18.7273L136.519 18.7488C136.304 18.7488 136.096 18.7417 135.896 18.7273C135.781 18.713 135.645 18.7202 135.487 18.7488C135.028 18.8349 134.677 18.9425 134.433 19.0715C134.433 19.0572 134.44 19.05 134.454 19.05C134.469 19.05 134.476 19.05 134.476 19.05C134.49 19.0357 134.512 19.0213 134.54 19.007C134.483 19.0644 134.368 19.1361 134.196 19.2221C133.938 19.3512 133.687 19.4946 133.443 19.6524C133.414 19.6811 133.386 19.7026 133.357 19.7169C133.343 19.7169 133.328 19.7241 133.314 19.7384C133.314 19.7384 133.293 19.7599 133.25 19.803V19.7814L133.336 19.7384C133.25 19.7814 133.142 19.8675 133.013 19.9966C132.669 20.2977 132.353 20.6348 132.066 21.0077C132.052 21.0077 132.038 21.0148 132.023 21.0292C132.023 21.0435 132.016 21.0579 132.002 21.0722C132.002 21.0722 131.98 21.1009 131.937 21.1582C131.952 21.1296 131.966 21.1152 131.98 21.1152C131.966 21.1152 131.959 21.1224 131.959 21.1367L131.722 21.4809C130.948 22.6139 130.238 23.8975 129.592 25.3317L129.485 25.5683C129.169 26.3571 128.983 27.0312 128.925 27.5905L128.861 28.3865C128.861 28.4868 128.933 28.7522 129.076 29.1824L129.033 29.1179C129.234 29.5338 129.349 29.7561 129.377 29.7848C129.42 29.7991 129.449 29.8206 129.463 29.8493C129.406 29.7776 129.377 29.7274 129.377 29.6987C129.377 29.7131 129.377 29.7274 129.377 29.7417C129.392 29.7417 129.399 29.7489 129.399 29.7633C129.413 29.7776 129.463 29.8278 129.549 29.9138C129.721 30.0859 129.822 30.172 129.851 30.172L129.786 30.129C129.829 30.1577 129.858 30.1863 129.872 30.215C129.901 30.2294 129.965 30.258 130.066 30.3011C130.094 30.3154 130.109 30.3298 130.109 30.3441C130.094 30.3298 130.073 30.3226 130.044 30.3226C130.015 30.3082 129.994 30.3011 129.98 30.3011C129.98 30.2867 129.972 30.2724 129.958 30.258C130.001 30.3011 130.145 30.3513 130.388 30.4086L130.259 30.3871C130.489 30.3871 130.654 30.3799 130.754 30.3656L130.625 30.3871C130.926 30.2867 131.098 30.2365 131.141 30.2365L131.055 30.2796C131.342 30.1361 131.622 29.9712 131.894 29.7848C131.909 29.7848 131.923 29.7776 131.937 29.7633C131.966 29.7346 132.002 29.7131 132.045 29.6987C132.16 29.627 132.217 29.5768 132.217 29.5481C132.217 29.5625 132.203 29.584 132.174 29.6127C135.343 26.9738 138.212 24.0194 140.779 20.7495C141.023 20.434 141.345 20.2762 141.747 20.2762C142.149 20.2762 142.493 20.391 142.78 20.6204C143.181 20.9646 143.382 21.3519 143.382 21.7821C143.382 22.0403 143.317 22.3128 143.188 22.5996C143.031 22.9725 142.88 23.3525 142.737 23.7397C142.149 25.389 141.761 26.7945 141.575 27.9562H141.553L141.575 27.8271C141.661 28.5729 141.905 29.1394 142.306 29.5266L142.242 29.5051H142.285C142.443 29.6629 142.636 29.7417 142.866 29.7417L142.715 29.7633L142.866 29.7202C144.185 29.4334 145.361 28.9028 146.394 28.1283H146.372L146.308 28.1928C147.627 27.1316 149.09 25.5683 150.696 23.5031C150.926 23.2019 151.227 23.0513 151.6 23.0513C151.643 23.0513 151.786 23.0585 152.03 23.0729C152.274 23.0872 152.539 23.2378 152.826 23.5246C153.127 23.7971 153.278 24.1126 153.278 24.4712C153.278 24.5142 153.27 24.6433 153.256 24.8584C153.242 25.0735 153.106 25.346 152.847 25.6759C151.557 27.3969 150.18 28.8956 148.717 30.172C147.312 31.4054 145.698 32.1942 143.877 32.5384C143.719 32.5671 143.547 32.5886 143.36 32.6029C142.414 32.7176 141.46 32.4882 140.499 31.9145C139.151 31.097 138.477 29.8923 138.477 28.3004C138.477 27.7124 138.549 27.1244 138.692 26.5364C139.122 24.6576 139.732 22.8219 140.521 21.0292L142.952 22.9223C140.557 25.9914 137.889 28.8024 134.949 31.3552C133.386 32.7176 131.952 33.3845 130.646 33.3558ZM156.225 33.5279C155.565 33.5279 154.898 33.4276 154.224 33.2268C152.862 32.7822 151.851 31.9217 151.191 30.6453C150.746 29.6127 150.524 28.5442 150.524 27.4399C150.524 26.0918 150.797 24.421 151.342 22.4275C152.432 17.8381 153.945 13.5356 155.881 9.51997C157.2 6.68032 158.727 4.49322 160.463 2.95866C161.768 1.81132 163.109 1.23766 164.486 1.23766L164.937 1.25917C166.831 1.47429 168.078 2.42084 168.681 4.09882C168.838 4.58644 168.917 5.07405 168.917 5.56167C168.917 7.05321 168.2 9.19729 166.766 11.9939C164.156 17.1139 160.14 21.5096 154.719 25.1811C154.475 25.3245 154.224 25.3962 153.966 25.3962C153.392 25.3962 152.933 25.1381 152.589 24.6218C152.446 24.378 152.374 24.127 152.374 23.8688C152.374 23.3095 152.639 22.8506 153.17 22.492C153.701 22.1191 154.231 21.7319 154.762 21.3303C154.776 21.3303 154.798 21.3232 154.827 21.3088C154.855 21.2802 154.877 21.2658 154.891 21.2658C154.905 21.2515 154.956 21.2084 155.042 21.1367L154.977 21.1798C155.02 21.1367 155.142 21.0435 155.343 20.9001C156.304 20.1113 157.05 19.4659 157.58 18.964C158.699 17.9027 159.825 16.698 160.958 15.3499L161.28 14.9196V14.9411L161.216 15.0057C161.216 14.9913 161.23 14.977 161.259 14.9626L161.388 14.769C162.765 12.9476 163.941 10.9039 164.916 8.63796C164.93 8.58059 164.952 8.5304 164.98 8.48737C165.009 8.43001 165.038 8.37264 165.067 8.31527L165.088 8.22922V8.27225L165.045 8.31527L165.088 8.22922C165.404 7.48346 165.626 6.78789 165.755 6.14251C165.784 6.05646 165.798 5.97041 165.798 5.88436V6.03495H165.776L165.798 5.47562C165.798 5.28918 165.791 5.19596 165.776 5.19596L165.798 5.2605V5.36806H165.819C165.819 5.28201 165.798 5.22464 165.755 5.19596C165.755 5.15293 165.748 5.12425 165.733 5.10991C165.733 5.08123 165.726 5.05254 165.712 5.02386C165.698 4.99518 165.69 4.96649 165.69 4.93781L165.755 5.06688L165.69 4.95932C165.633 4.90195 165.604 4.85176 165.604 4.80873C165.619 4.80873 165.64 4.83025 165.669 4.87327L165.346 4.55058C165.346 4.57927 165.375 4.60795 165.432 4.63663C165.317 4.55058 165.246 4.50039 165.217 4.48605C165.188 4.4717 165.174 4.45736 165.174 4.44302H165.217L165.239 4.46453L164.636 4.31395H164.658C164.686 4.32829 164.737 4.33546 164.808 4.33546C164.55 4.33546 164.328 4.34263 164.141 4.35697L164.249 4.33546C164.22 4.36414 164.163 4.37848 164.077 4.37848C164.005 4.40717 163.955 4.42151 163.926 4.42151C163.912 4.42151 163.891 4.42868 163.862 4.44302C163.833 4.45736 163.804 4.46453 163.776 4.46453L163.625 4.52907L163.711 4.48605L163.539 4.5721C163.396 4.6438 163.259 4.72268 163.13 4.80873C163.059 4.8661 162.98 4.9163 162.894 4.95932L162.829 4.98083L162.915 4.9163C162.872 4.95932 162.836 4.99518 162.808 5.02386C162.779 5.0382 162.765 5.05254 162.765 5.06688C162.148 5.56884 161.61 6.121 161.151 6.72335L161.108 6.78789H161.087L161.022 6.87394L160.979 6.93847C160.377 7.71292 159.789 8.6523 159.215 9.75661C158.541 11.0617 157.917 12.4027 157.344 13.7795L157.279 13.9516L157.322 13.8225V13.8655L157.064 14.4463C155.73 17.831 154.64 21.5526 153.794 25.6113C153.78 25.7404 153.758 25.8623 153.729 25.9771V26.1061L153.708 26.1707L153.729 25.9986C153.729 26.0846 153.722 26.1276 153.708 26.1276C153.665 26.5722 153.643 27.0168 153.643 27.4614C153.643 27.7482 153.658 28.0279 153.686 28.3004V28.3434L153.665 28.3004V28.2789C153.679 28.2789 153.686 28.3147 153.686 28.3865C153.787 28.8597 153.866 29.125 153.923 29.1824C153.923 29.2111 153.937 29.2398 153.966 29.2685C153.923 29.2685 153.902 29.2254 153.902 29.1394H153.88L153.902 29.1609C153.902 29.1752 153.902 29.1968 153.902 29.2254C153.916 29.2398 153.952 29.2828 154.009 29.3545C154.066 29.4262 154.109 29.5051 154.138 29.5912L154.16 29.6342V29.6127C154.145 29.6127 154.131 29.6055 154.117 29.5912C154.117 29.5768 154.109 29.5625 154.095 29.5481C154.095 29.5194 154.081 29.5051 154.052 29.5051L154.504 29.9569C154.49 29.9569 154.447 29.921 154.375 29.8493L154.547 29.9784L155.02 30.2365C154.977 30.2365 154.927 30.215 154.87 30.172H154.848C154.862 30.1863 154.898 30.2007 154.956 30.215L155.149 30.2796L155.579 30.3871C155.651 30.3871 155.701 30.3943 155.73 30.4086H155.795V30.4301C155.78 30.4301 155.759 30.4301 155.73 30.4301C155.701 30.4158 155.68 30.4015 155.666 30.3871H155.601C155.658 30.4301 155.744 30.4517 155.859 30.4517C156.117 30.4517 156.275 30.4373 156.332 30.4086C156.562 30.4086 156.698 30.4015 156.741 30.3871H156.806L156.784 30.4086H156.72L156.763 30.3871H156.827C157.315 30.3154 157.774 30.1863 158.204 29.9999C158.276 29.9712 158.326 29.9569 158.355 29.9569L158.204 30.0214L158.247 29.9999C158.276 29.9712 158.304 29.9569 158.333 29.9569C158.362 29.9425 158.39 29.9282 158.419 29.9138C159.093 29.627 160.284 28.831 161.99 27.526C162.033 27.4686 162.091 27.4256 162.162 27.3969C162.119 27.4399 162.083 27.4614 162.055 27.4614V27.4829C162.126 27.4256 162.17 27.3969 162.184 27.3969C162.198 27.3825 162.213 27.361 162.227 27.3323L162.485 27.1387C164.321 25.6329 165.533 24.464 166.121 23.6322C166.149 23.6178 166.171 23.5963 166.185 23.5676C166.2 23.539 166.214 23.5246 166.228 23.5246C166.243 23.5103 166.25 23.4959 166.25 23.4816L166.207 23.5461L166.271 23.4601C166.644 22.9581 167.082 22.7071 167.583 22.7071C167.827 22.7071 168.093 22.7717 168.379 22.9008C168.91 23.2163 169.175 23.6824 169.175 24.2991C169.175 24.5572 169.097 24.801 168.939 25.0305C168.494 25.6185 168.021 26.185 167.519 26.73C165.64 28.6661 163.561 30.3584 161.28 31.8069C160.248 32.4953 159.122 32.9973 157.903 33.3128C157.344 33.4562 156.784 33.5279 156.225 33.5279ZM171.176 12.4027L152.202 12.1445C151.757 12.1302 151.392 11.9796 151.105 11.6927C150.832 11.3916 150.682 11.0259 150.653 10.5956C150.653 10.1654 150.804 9.79964 151.105 9.49846C151.42 9.19729 151.786 9.0467 152.202 9.0467L171.176 9.30485C171.621 9.31919 171.979 9.46978 172.252 9.75661C172.539 10.0434 172.696 10.4092 172.725 10.8538C172.725 11.284 172.574 11.6497 172.273 11.9509C171.972 12.2377 171.606 12.3883 171.176 12.4027ZM169.068 33.6355C167.576 33.6355 166.544 32.9399 165.97 31.5488C165.769 30.9751 165.669 30.3799 165.669 29.7633C165.669 28.0853 166.149 26.0774 167.11 23.7397C168.042 21.1726 169.211 18.7202 170.617 16.3825C170.947 15.8805 171.384 15.6295 171.929 15.6295C172.202 15.6295 172.467 15.6941 172.725 15.8231C173.241 16.1243 173.499 16.5833 173.499 17.1999C173.499 17.4581 173.428 17.7091 173.284 17.9529C172.567 19.1146 171.915 20.3193 171.327 21.567C171.011 22.241 170.588 23.2736 170.057 24.6648C169.498 26.1563 169.118 27.3682 168.917 28.3004L168.896 28.451C168.867 28.5657 168.853 28.6589 168.853 28.7307L168.81 29.1179L168.788 29.9138L168.81 30.2796L168.788 30.1075C168.803 30.1505 168.81 30.1792 168.81 30.1935C168.81 30.2078 168.817 30.2652 168.831 30.3656C168.86 30.4517 168.889 30.5305 168.917 30.6022C168.889 30.5449 168.874 30.509 168.874 30.4947C168.874 30.4803 168.874 30.466 168.874 30.4517L168.982 30.6668L168.874 30.5377L168.96 30.6238L168.853 30.5377L168.81 30.5162L168.939 30.5592L169.068 30.5807L168.896 30.5592L169.261 30.5377L169.132 30.5807C169.132 30.5664 169.168 30.552 169.24 30.5377C169.312 30.5234 169.355 30.5162 169.369 30.5162V30.4947L169.713 30.3871C169.713 30.3728 169.72 30.3656 169.735 30.3656L170.079 30.1935C170.696 29.8636 171.276 29.4908 171.821 29.0749L171.714 29.1609L171.843 29.0533C172.058 28.8812 172.273 28.6948 172.488 28.494C174.209 26.9595 175.758 25.3245 177.135 23.5892C178.512 21.8395 179.846 20.0396 181.136 18.1895C181.509 17.6876 181.947 17.4366 182.449 17.4366C182.707 17.4366 182.979 17.5011 183.266 17.6302C183.754 17.917 183.998 18.3544 183.998 18.9425C183.998 19.2149 183.94 19.4874 183.825 19.7599C183.625 20.1902 183.431 20.6276 183.245 21.0722L183.051 21.5024L183.029 21.5885L182.943 21.7821C182.943 21.8395 182.929 21.8682 182.9 21.8682C182.571 22.6426 182.205 23.6107 181.803 24.7723C181.344 26.0774 181.022 27.3037 180.835 28.451C180.821 28.4653 180.814 28.5012 180.814 28.5586C180.814 28.6016 180.807 28.6518 180.792 28.7091C180.778 28.7522 180.771 28.7808 180.771 28.7952V28.7307C180.756 28.9314 180.749 29.1394 180.749 29.3545V29.6127C180.749 29.5553 180.742 29.5266 180.728 29.5266C180.728 29.5123 180.735 29.5051 180.749 29.5051V29.5481C180.749 29.5912 180.749 29.6198 180.749 29.6342C180.763 29.6342 180.771 29.6413 180.771 29.6557L180.835 29.9138L180.792 29.7633C180.835 29.835 180.857 29.878 180.857 29.8923C180.857 29.9067 180.878 29.9354 180.921 29.9784L180.986 30.0429L180.878 29.9569C180.893 29.9712 180.907 29.9856 180.921 29.9999C180.95 29.9999 180.964 30.0071 180.964 30.0214C180.95 30.0214 180.936 30.0214 180.921 30.0214C180.907 30.0071 180.885 29.9999 180.857 29.9999C180.842 29.9999 180.835 29.9927 180.835 29.9784L180.921 29.9999H180.792H180.921H180.792C180.85 29.9856 180.878 29.9784 180.878 29.9784C180.893 29.9784 180.914 29.9784 180.943 29.9784C180.971 29.9784 181 29.964 181.029 29.9354H181.072L180.964 29.9784C181.495 29.7202 182.212 29.2541 183.116 28.5801C183.202 28.5227 183.245 28.4868 183.245 28.4725C183.259 28.4582 183.28 28.4438 183.309 28.4295C183.338 28.4151 183.359 28.4008 183.374 28.3865L183.309 28.4295C184.514 27.5546 185.869 26.2137 187.375 24.4066C187.375 24.3636 187.397 24.3206 187.44 24.2776L187.504 24.2345L187.44 24.3206L187.483 24.2345C187.511 24.1772 187.54 24.1485 187.569 24.1485L188.192 23.245C188.565 22.7573 188.996 22.5135 189.483 22.5135C189.741 22.5135 190.021 22.5781 190.322 22.7071C190.839 22.994 191.097 23.4457 191.097 24.0624C191.097 24.3206 191.018 24.5716 190.86 24.8154C189.211 27.2821 187.131 29.4406 184.621 31.2906L184.535 31.3552C183.087 32.4882 181.875 33.0547 180.9 33.0547C180.197 33.0547 179.53 32.8109 178.899 32.3232C178.082 31.5488 177.666 30.5951 177.651 29.4621C177.651 28.4725 177.795 27.4901 178.082 26.5149V26.4718C178.598 24.3923 179.595 21.6817 181.072 18.3401C181.101 18.2971 181.122 18.2469 181.136 18.1895C182.04 18.7058 182.936 19.2293 183.825 19.7599C179.81 25.5396 176.174 29.6485 172.919 32.0866C171.986 32.8037 170.954 33.2985 169.821 33.571C169.563 33.614 169.312 33.6355 169.068 33.6355ZM188.494 33.8291C188.293 33.8291 188.099 33.7861 187.913 33.7C187.282 33.4276 186.966 32.9543 186.966 32.2802C186.966 32.1511 186.981 32.0149 187.009 31.8715L190.903 15.2638C191.018 14.8479 191.262 14.5396 191.634 14.3388C191.893 14.2097 192.158 14.1452 192.43 14.1452C193.033 14.1452 193.47 14.4033 193.743 14.9196C193.872 15.1778 193.936 15.4431 193.936 15.7156C193.936 15.902 192.624 21.5598 190 32.689L187.16 31.5058C188.264 28.996 189.49 26.5579 190.839 24.1915C192.072 22.0116 193.542 20.0181 195.249 18.211C196.855 16.49 198.332 15.4359 199.68 15.0487C199.967 14.9626 200.261 14.9196 200.562 14.9196C201.136 14.9196 201.717 15.0845 202.305 15.4144C203.022 15.8733 203.488 16.5115 203.703 17.329C203.775 17.6732 203.825 18.0174 203.854 18.3616L203.897 18.7273L203.875 18.6413L203.897 18.8349C204.011 19.2651 204.083 19.5161 204.112 19.5878C204.14 19.6452 204.155 19.6954 204.155 19.7384L204.133 19.6524L204.434 20.2547L204.757 20.728L204.671 20.6204C205.058 21.0077 205.288 21.23 205.359 21.2873L205.402 21.3519L205.381 21.3303C205.381 21.316 205.367 21.3088 205.338 21.3088C205.324 21.2945 205.309 21.2873 205.295 21.2873C205.295 21.273 205.288 21.2658 205.273 21.2658V21.2443C205.288 21.2443 205.295 21.2515 205.295 21.2658C205.295 21.2658 205.309 21.273 205.338 21.2873C205.367 21.3017 205.395 21.3303 205.424 21.3734C205.467 21.4021 205.761 21.5742 206.306 21.8897C206.65 22.0761 206.829 22.1693 206.844 22.1693H206.887L206.844 22.1263C206.801 22.112 206.751 22.1048 206.693 22.1048C206.736 22.1048 206.772 22.1191 206.801 22.1478C206.844 22.1622 206.88 22.1693 206.908 22.1693C207.095 22.241 207.281 22.2912 207.468 22.3199L207.726 22.3845H207.79C207.719 22.3845 207.676 22.3773 207.661 22.3629H207.64H207.704C208.278 22.4203 208.844 22.449 209.404 22.449C209.848 22.4633 210.214 22.6211 210.501 22.9223C210.802 23.2234 210.953 23.6035 210.953 24.0624C210.953 24.464 210.802 24.8082 210.501 25.095C210.2 25.3819 209.834 25.5325 209.404 25.5468H208.974C207.998 25.5468 207.037 25.4177 206.091 25.1596C203.624 24.2991 201.989 22.7717 201.186 20.5774C200.899 19.7599 200.756 18.9855 200.756 18.2541V18.4046L200.713 18.1465V18.0174L200.734 18.1465L200.67 18.0389L200.691 18.0604L200.842 18.168L200.648 18.0389L200.799 18.1035L200.584 18.0389H200.756H200.734C200.72 18.0533 200.684 18.0604 200.627 18.0604C200.612 18.0604 200.591 18.0604 200.562 18.0604C200.548 18.0461 200.512 18.0389 200.455 18.0389C200.412 18.0389 200.39 18.0318 200.39 18.0174H200.584L200.067 18.1465C200.067 18.1178 200.103 18.1035 200.175 18.1035L200.132 18.125C200.118 18.1537 200.032 18.211 199.874 18.2971C199.716 18.3831 199.544 18.4979 199.357 18.6413L199.444 18.5767L199.422 18.5983C199.393 18.6269 199.35 18.6556 199.293 18.6843L199.228 18.7488C198.067 19.6811 197.027 20.7352 196.109 21.9112L195.915 22.1263C195.887 22.2124 195.851 22.2697 195.808 22.2984L195.743 22.3414C195.758 22.3414 195.765 22.3343 195.765 22.3199C195.779 22.3056 195.786 22.2984 195.786 22.2984C195.801 22.2841 195.815 22.2626 195.829 22.2339L194.775 23.7182C193.226 26.0559 191.584 29.1681 189.849 33.0547C189.591 33.571 189.139 33.8291 188.494 33.8291ZM213.341 33.3558L212.803 33.3343C211.039 33.1335 209.791 32.2085 209.06 30.5592C208.672 29.6844 208.479 28.7952 208.479 27.8917C208.479 27.0312 208.644 26.1635 208.974 25.2887C210.494 21.2013 212.494 18.3544 214.976 16.7482C216.109 16.0024 217.342 15.6295 218.676 15.6295C219.12 15.6295 219.579 15.6797 220.053 15.7801C221.745 16.1673 222.985 17.1282 223.774 18.6628C224.147 19.4086 224.334 20.2189 224.334 21.0937V23.374C224.334 23.3167 224.341 23.288 224.355 23.288C224.355 23.4314 224.369 23.5533 224.398 23.6537C224.441 23.8258 224.463 23.9764 224.463 24.1055C224.463 24.8512 224.09 25.3532 223.344 25.6113C223.201 25.6544 223.057 25.6759 222.914 25.6759C221.809 25.6759 221.257 24.6935 221.257 22.7287L221.193 20.728C221.178 20.3838 221.15 20.1543 221.107 20.0396C221.135 20.0826 221.15 20.1328 221.15 20.1902L220.87 19.6954H220.913L220.956 19.803L220.848 19.6954C220.662 19.4659 220.504 19.3082 220.375 19.2221C220.375 19.2365 220.382 19.2508 220.397 19.2651C220.411 19.2651 220.418 19.2723 220.418 19.2867C220.433 19.2867 220.447 19.2867 220.461 19.2867C220.476 19.2867 220.483 19.2938 220.483 19.3082V19.2867C220.454 19.2867 220.368 19.2436 220.225 19.1576C219.966 18.9998 219.802 18.9066 219.73 18.8779C219.759 18.9066 219.787 18.9209 219.816 18.9209C219.457 18.7919 219.199 18.7273 219.041 18.7273L219.214 18.7488C218.998 18.7488 218.79 18.7417 218.59 18.7273C218.475 18.713 218.339 18.7202 218.181 18.7488C217.722 18.8349 217.371 18.9425 217.127 19.0715C217.127 19.0572 217.134 19.05 217.148 19.05C217.163 19.05 217.17 19.05 217.17 19.05C217.184 19.0357 217.206 19.0213 217.234 19.007C217.177 19.0644 217.062 19.1361 216.89 19.2221C216.632 19.3512 216.381 19.4946 216.137 19.6524C216.109 19.6811 216.08 19.7026 216.051 19.7169C216.037 19.7169 216.023 19.7241 216.008 19.7384C216.008 19.7384 215.987 19.7599 215.944 19.803V19.7814L216.03 19.7384C215.944 19.7814 215.836 19.8675 215.707 19.9966C215.363 20.2977 215.047 20.6348 214.76 21.0077C214.746 21.0077 214.732 21.0148 214.717 21.0292C214.717 21.0435 214.71 21.0579 214.696 21.0722C214.696 21.0722 214.674 21.1009 214.631 21.1582C214.646 21.1296 214.66 21.1152 214.674 21.1152C214.66 21.1152 214.653 21.1224 214.653 21.1367L214.416 21.4809C213.642 22.6139 212.932 23.8975 212.287 25.3317L212.179 25.5683C211.863 26.3571 211.677 27.0312 211.62 27.5905L211.555 28.3865C211.555 28.4868 211.627 28.7522 211.77 29.1824L211.727 29.1179C211.928 29.5338 212.043 29.7561 212.071 29.7848C212.114 29.7991 212.143 29.8206 212.157 29.8493C212.1 29.7776 212.071 29.7274 212.071 29.6987C212.071 29.7131 212.071 29.7274 212.071 29.7417C212.086 29.7417 212.093 29.7489 212.093 29.7633C212.107 29.7776 212.157 29.8278 212.243 29.9138C212.416 30.0859 212.516 30.172 212.545 30.172L212.48 30.129C212.523 30.1577 212.552 30.1863 212.566 30.215C212.595 30.2294 212.659 30.258 212.76 30.3011C212.788 30.3154 212.803 30.3298 212.803 30.3441C212.788 30.3298 212.767 30.3226 212.738 30.3226C212.71 30.3082 212.688 30.3011 212.674 30.3011C212.674 30.2867 212.667 30.2724 212.652 30.258C212.695 30.3011 212.839 30.3513 213.082 30.4086L212.953 30.3871C213.183 30.3871 213.348 30.3799 213.448 30.3656L213.319 30.3871C213.62 30.2867 213.792 30.2365 213.835 30.2365L213.749 30.2796C214.036 30.1361 214.316 29.9712 214.588 29.7848C214.603 29.7848 214.617 29.7776 214.631 29.7633C214.66 29.7346 214.696 29.7131 214.739 29.6987C214.854 29.627 214.911 29.5768 214.911 29.5481C214.911 29.5625 214.897 29.584 214.868 29.6127C218.038 26.9738 220.906 24.0194 223.473 20.7495C223.717 20.434 224.04 20.2762 224.441 20.2762C224.843 20.2762 225.187 20.391 225.474 20.6204C225.875 20.9646 226.076 21.3519 226.076 21.7821C226.076 22.0403 226.011 22.3128 225.882 22.5996C225.725 22.9725 225.574 23.3525 225.431 23.7397C224.843 25.389 224.455 26.7945 224.269 27.9562H224.247L224.269 27.8271C224.355 28.5729 224.599 29.1394 225 29.5266L224.936 29.5051H224.979C225.137 29.6629 225.33 29.7417 225.56 29.7417L225.409 29.7633L225.56 29.7202C226.879 29.4334 228.055 28.9028 229.088 28.1283H229.066L229.002 28.1928C230.321 27.1316 231.784 25.5683 233.39 23.5031C233.62 23.2019 233.921 23.0513 234.294 23.0513C234.337 23.0513 234.48 23.0585 234.724 23.0729C234.968 23.0872 235.233 23.2378 235.52 23.5246C235.821 23.7971 235.972 24.1126 235.972 24.4712C235.972 24.5142 235.965 24.6433 235.95 24.8584C235.936 25.0735 235.8 25.346 235.542 25.6759C234.251 27.3969 232.874 28.8956 231.411 30.172C230.006 31.4054 228.392 32.1942 226.571 32.5384C226.413 32.5671 226.241 32.5886 226.055 32.6029C225.108 32.7176 224.154 32.4882 223.193 31.9145C221.845 31.097 221.171 29.8923 221.171 28.3004C221.171 27.7124 221.243 27.1244 221.386 26.5364C221.817 24.6576 222.426 22.8219 223.215 21.0292L225.646 22.9223C223.251 25.9914 220.583 28.8024 217.643 31.3552C216.08 32.7176 214.646 33.3845 213.341 33.3558ZM237.607 33.3558L237.069 33.3343C235.305 33.1335 234.057 32.2085 233.326 30.5592C232.939 29.6844 232.745 28.7952 232.745 27.8917C232.745 27.0312 232.91 26.1635 233.24 25.2887C234.76 21.2013 236.761 18.3544 239.242 16.7482C240.375 16.0024 241.608 15.6295 242.942 15.6295C243.386 15.6295 243.845 15.6797 244.319 15.7801C246.011 16.1673 247.252 17.1282 248.04 18.6628C248.413 19.4086 248.6 20.2189 248.6 21.0937V23.374C248.6 23.3167 248.607 23.288 248.621 23.288C248.621 23.4314 248.635 23.5533 248.664 23.6537C248.707 23.8258 248.729 23.9764 248.729 24.1055C248.729 24.8512 248.356 25.3532 247.61 25.6113C247.467 25.6544 247.323 25.6759 247.18 25.6759C246.075 25.6759 245.523 24.6935 245.523 22.7287L245.459 20.728C245.444 20.3838 245.416 20.1543 245.373 20.0396C245.401 20.0826 245.416 20.1328 245.416 20.1902L245.136 19.6954H245.179L245.222 19.803L245.115 19.6954C244.928 19.4659 244.77 19.3082 244.641 19.2221C244.641 19.2365 244.648 19.2508 244.663 19.2651C244.677 19.2651 244.684 19.2723 244.684 19.2867C244.699 19.2867 244.713 19.2867 244.727 19.2867C244.742 19.2867 244.749 19.2938 244.749 19.3082V19.2867C244.72 19.2867 244.634 19.2436 244.491 19.1576C244.233 18.9998 244.068 18.9066 243.996 18.8779C244.025 18.9066 244.053 18.9209 244.082 18.9209C243.723 18.7919 243.465 18.7273 243.308 18.7273L243.48 18.7488C243.265 18.7488 243.057 18.7417 242.856 18.7273C242.741 18.713 242.605 18.7202 242.447 18.7488C241.988 18.8349 241.637 18.9425 241.393 19.0715C241.393 19.0572 241.4 19.05 241.414 19.05C241.429 19.05 241.436 19.05 241.436 19.05C241.45 19.0357 241.472 19.0213 241.5 19.007C241.443 19.0644 241.328 19.1361 241.156 19.2221C240.898 19.3512 240.647 19.4946 240.403 19.6524C240.375 19.6811 240.346 19.7026 240.317 19.7169C240.303 19.7169 240.289 19.7241 240.274 19.7384C240.274 19.7384 240.253 19.7599 240.21 19.803V19.7814L240.296 19.7384C240.21 19.7814 240.102 19.8675 239.973 19.9966C239.629 20.2977 239.313 20.6348 239.027 21.0077C239.012 21.0077 238.998 21.0148 238.984 21.0292C238.984 21.0435 238.976 21.0579 238.962 21.0722C238.962 21.0722 238.941 21.1009 238.897 21.1582C238.912 21.1296 238.926 21.1152 238.941 21.1152C238.926 21.1152 238.919 21.1224 238.919 21.1367L238.682 21.4809C237.908 22.6139 237.198 23.8975 236.553 25.3317L236.445 25.5683C236.13 26.3571 235.943 27.0312 235.886 27.5905L235.821 28.3865C235.821 28.4868 235.893 28.7522 236.036 29.1824L235.993 29.1179C236.194 29.5338 236.309 29.7561 236.337 29.7848C236.381 29.7991 236.409 29.8206 236.424 29.8493C236.366 29.7776 236.337 29.7274 236.337 29.6987C236.337 29.7131 236.337 29.7274 236.337 29.7417C236.352 29.7417 236.359 29.7489 236.359 29.7633C236.373 29.7776 236.424 29.8278 236.51 29.9138C236.682 30.0859 236.782 30.172 236.811 30.172L236.746 30.129C236.789 30.1577 236.818 30.1863 236.832 30.215C236.861 30.2294 236.926 30.258 237.026 30.3011C237.055 30.3154 237.069 30.3298 237.069 30.3441C237.055 30.3298 237.033 30.3226 237.004 30.3226C236.976 30.3082 236.954 30.3011 236.94 30.3011C236.94 30.2867 236.933 30.2724 236.918 30.258C236.961 30.3011 237.105 30.3513 237.349 30.4086L237.22 30.3871C237.449 30.3871 237.614 30.3799 237.714 30.3656L237.585 30.3871C237.886 30.2867 238.058 30.2365 238.102 30.2365L238.015 30.2796C238.302 30.1361 238.582 29.9712 238.854 29.7848C238.869 29.7848 238.883 29.7776 238.897 29.7633C238.926 29.7346 238.962 29.7131 239.005 29.6987C239.12 29.627 239.177 29.5768 239.177 29.5481C239.177 29.5625 239.163 29.584 239.134 29.6127C242.304 26.9738 245.172 24.0194 247.739 20.7495C247.983 20.434 248.306 20.2762 248.707 20.2762C249.109 20.2762 249.453 20.391 249.74 20.6204C250.141 20.9646 250.342 21.3519 250.342 21.7821C250.342 22.0403 250.278 22.3128 250.149 22.5996C249.991 22.9725 249.84 23.3525 249.697 23.7397C249.109 25.389 248.722 26.7945 248.535 27.9562H248.514L248.535 27.8271C248.621 28.5729 248.865 29.1394 249.267 29.5266L249.202 29.5051H249.245C249.403 29.6629 249.596 29.7417 249.826 29.7417L249.675 29.7633L249.826 29.7202C251.145 29.4334 252.321 28.9028 253.354 28.1283H253.332L253.268 28.1928C254.587 27.1316 256.05 25.5683 257.656 23.5031C257.886 23.2019 258.187 23.0513 258.56 23.0513C258.603 23.0513 258.746 23.0585 258.99 23.0729C259.234 23.0872 259.499 23.2378 259.786 23.5246C260.087 23.7971 260.238 24.1126 260.238 24.4712C260.238 24.5142 260.231 24.6433 260.216 24.8584C260.202 25.0735 260.066 25.346 259.808 25.6759C258.517 27.3969 257.14 28.8956 255.677 30.172C254.272 31.4054 252.658 32.1942 250.837 32.5384C250.679 32.5671 250.507 32.5886 250.321 32.6029C249.374 32.7176 248.42 32.4882 247.459 31.9145C246.111 31.097 245.437 29.8923 245.437 28.3004C245.437 27.7124 245.509 27.1244 245.652 26.5364C246.083 24.6576 246.692 22.8219 247.481 21.0292L249.912 22.9223C247.517 25.9914 244.849 28.8024 241.909 31.3552C240.346 32.7176 238.912 33.3845 237.607 33.3558ZM261.873 33.3558L261.335 33.3343C259.571 33.1335 258.323 32.2085 257.592 30.5592C257.205 29.6844 257.011 28.7952 257.011 27.8917C257.011 27.0312 257.176 26.1635 257.506 25.2887C259.026 21.2013 261.027 18.3544 263.508 16.7482C264.641 16.0024 265.874 15.6295 267.208 15.6295C267.653 15.6295 268.111 15.6797 268.585 15.7801C270.277 16.1673 271.518 17.1282 272.306 18.6628C272.679 19.4086 272.866 20.2189 272.866 21.0937V23.374C272.866 23.3167 272.873 23.288 272.887 23.288C272.887 23.4314 272.902 23.5533 272.93 23.6537C272.973 23.8258 272.995 23.9764 272.995 24.1055C272.995 24.8512 272.622 25.3532 271.876 25.6113C271.733 25.6544 271.589 25.6759 271.446 25.6759C270.342 25.6759 269.789 24.6935 269.789 22.7287L269.725 20.728C269.711 20.3838 269.682 20.1543 269.639 20.0396C269.668 20.0826 269.682 20.1328 269.682 20.1902L269.402 19.6954H269.445L269.488 19.803L269.381 19.6954C269.194 19.4659 269.037 19.3082 268.907 19.2221C268.907 19.2365 268.915 19.2508 268.929 19.2651C268.943 19.2651 268.95 19.2723 268.95 19.2867C268.965 19.2867 268.979 19.2867 268.993 19.2867C269.008 19.2867 269.015 19.2938 269.015 19.3082V19.2867C268.986 19.2867 268.9 19.2436 268.757 19.1576C268.499 18.9998 268.334 18.9066 268.262 18.8779C268.291 18.9066 268.319 18.9209 268.348 18.9209C267.99 18.7919 267.731 18.7273 267.574 18.7273L267.746 18.7488C267.531 18.7488 267.323 18.7417 267.122 18.7273C267.007 18.713 266.871 18.7202 266.713 18.7488C266.254 18.8349 265.903 18.9425 265.659 19.0715C265.659 19.0572 265.666 19.05 265.681 19.05C265.695 19.05 265.702 19.05 265.702 19.05C265.716 19.0357 265.738 19.0213 265.767 19.007C265.709 19.0644 265.595 19.1361 265.422 19.2221C265.164 19.3512 264.913 19.4946 264.669 19.6524C264.641 19.6811 264.612 19.7026 264.583 19.7169C264.569 19.7169 264.555 19.7241 264.54 19.7384C264.54 19.7384 264.519 19.7599 264.476 19.803V19.7814L264.562 19.7384C264.476 19.7814 264.368 19.8675 264.239 19.9966C263.895 20.2977 263.58 20.6348 263.293 21.0077C263.278 21.0077 263.264 21.0148 263.25 21.0292C263.25 21.0435 263.242 21.0579 263.228 21.0722C263.228 21.0722 263.207 21.1009 263.164 21.1582C263.178 21.1296 263.192 21.1152 263.207 21.1152C263.192 21.1152 263.185 21.1224 263.185 21.1367L262.948 21.4809C262.174 22.6139 261.464 23.8975 260.819 25.3317L260.711 25.5683C260.396 26.3571 260.209 27.0312 260.152 27.5905L260.087 28.3865C260.087 28.4868 260.159 28.7522 260.302 29.1824L260.259 29.1179C260.46 29.5338 260.575 29.7561 260.604 29.7848C260.647 29.7991 260.675 29.8206 260.69 29.8493C260.632 29.7776 260.604 29.7274 260.604 29.6987C260.604 29.7131 260.604 29.7274 260.604 29.7417C260.618 29.7417 260.625 29.7489 260.625 29.7633C260.639 29.7776 260.69 29.8278 260.776 29.9138C260.948 30.0859 261.048 30.172 261.077 30.172L261.012 30.129C261.055 30.1577 261.084 30.1863 261.098 30.215C261.127 30.2294 261.192 30.258 261.292 30.3011C261.321 30.3154 261.335 30.3298 261.335 30.3441C261.321 30.3298 261.299 30.3226 261.27 30.3226C261.242 30.3082 261.22 30.3011 261.206 30.3011C261.206 30.2867 261.199 30.2724 261.184 30.258C261.227 30.3011 261.371 30.3513 261.615 30.4086L261.486 30.3871C261.715 30.3871 261.88 30.3799 261.98 30.3656L261.851 30.3871C262.153 30.2867 262.325 30.2365 262.368 30.2365L262.282 30.2796C262.568 30.1361 262.848 29.9712 263.121 29.7848C263.135 29.7848 263.149 29.7776 263.164 29.7633C263.192 29.7346 263.228 29.7131 263.271 29.6987C263.386 29.627 263.443 29.5768 263.443 29.5481C263.443 29.5625 263.429 29.584 263.4 29.6127C266.57 26.9738 269.438 24.0194 272.005 20.7495C272.249 20.434 272.572 20.2762 272.973 20.2762C273.375 20.2762 273.719 20.391 274.006 20.6204C274.407 20.9646 274.608 21.3519 274.608 21.7821C274.608 22.0403 274.544 22.3128 274.415 22.5996C274.257 22.9725 274.106 23.3525 273.963 23.7397C273.375 25.389 272.988 26.7945 272.801 27.9562H272.78L272.801 27.8271C272.887 28.5729 273.131 29.1394 273.533 29.5266L273.468 29.5051H273.511C273.669 29.6629 273.862 29.7417 274.092 29.7417L273.941 29.7633L274.092 29.7202C275.411 29.4334 276.587 28.9028 277.62 28.1283H277.598L277.534 28.1928C278.853 27.1316 280.316 25.5683 281.923 23.5031C282.152 23.2019 282.453 23.0513 282.826 23.0513C282.869 23.0513 283.012 23.0585 283.256 23.0729C283.5 23.0872 283.765 23.2378 284.052 23.5246C284.353 23.7971 284.504 24.1126 284.504 24.4712C284.504 24.5142 284.497 24.6433 284.483 24.8584C284.468 25.0735 284.332 25.346 284.074 25.6759C282.783 27.3969 281.406 28.8956 279.943 30.172C278.538 31.4054 276.924 32.1942 275.103 32.5384C274.945 32.5671 274.773 32.5886 274.587 32.6029C273.64 32.7176 272.686 32.4882 271.726 31.9145C270.377 31.097 269.703 29.8923 269.703 28.3004C269.703 27.7124 269.775 27.1244 269.919 26.5364C270.349 24.6576 270.958 22.8219 271.747 21.0292L274.178 22.9223C271.783 25.9914 269.115 28.8024 266.175 31.3552C264.612 32.7176 263.178 33.3845 261.873 33.3558ZM287.451 33.5279C286.792 33.5279 286.125 33.4276 285.451 33.2268C284.088 32.7822 283.077 31.9217 282.417 30.6453C281.973 29.6127 281.75 28.5442 281.75 27.4399C281.75 26.0918 282.023 24.421 282.568 22.4275C283.658 17.8381 285.171 13.5356 287.107 9.51997C288.426 6.68032 289.954 4.49322 291.689 2.95866C292.994 1.81132 294.335 1.23766 295.712 1.23766L296.164 1.25917C298.057 1.47429 299.305 2.42084 299.907 4.09882C300.065 4.58644 300.144 5.07405 300.144 5.56167C300.144 7.05321 299.427 9.19729 297.992 11.9939C295.382 17.1139 291.367 21.5096 285.945 25.1811C285.702 25.3245 285.451 25.3962 285.192 25.3962C284.619 25.3962 284.16 25.1381 283.816 24.6218C283.672 24.378 283.601 24.127 283.601 23.8688C283.601 23.3095 283.866 22.8506 284.396 22.492C284.927 22.1191 285.458 21.7319 285.988 21.3303C286.003 21.3303 286.024 21.3232 286.053 21.3088C286.082 21.2802 286.103 21.2658 286.117 21.2658C286.132 21.2515 286.182 21.2084 286.268 21.1367L286.204 21.1798C286.247 21.1367 286.368 21.0435 286.569 20.9001C287.53 20.1113 288.276 19.4659 288.807 18.964C289.925 17.9027 291.051 16.698 292.184 15.3499L292.507 14.9196V14.9411L292.442 15.0057C292.442 14.9913 292.457 14.977 292.485 14.9626L292.614 14.769C293.991 12.9476 295.167 10.9039 296.142 8.63796C296.157 8.58059 296.178 8.5304 296.207 8.48737C296.236 8.43001 296.264 8.37264 296.293 8.31527L296.314 8.22922V8.27225L296.271 8.31527L296.314 8.22922C296.63 7.48346 296.852 6.78789 296.981 6.14251C297.01 6.05646 297.024 5.97041 297.024 5.88436V6.03495H297.003L297.024 5.47562C297.024 5.28918 297.017 5.19596 297.003 5.19596L297.024 5.2605V5.36806H297.046C297.046 5.28201 297.024 5.22464 296.981 5.19596C296.981 5.15293 296.974 5.12425 296.96 5.10991C296.96 5.08123 296.953 5.05254 296.938 5.02386C296.924 4.99518 296.917 4.96649 296.917 4.93781L296.981 5.06688L296.917 4.95932C296.859 4.90195 296.831 4.85176 296.831 4.80873C296.845 4.80873 296.867 4.83025 296.895 4.87327L296.573 4.55058C296.573 4.57927 296.601 4.60795 296.659 4.63663C296.544 4.55058 296.472 4.50039 296.443 4.48605C296.415 4.4717 296.4 4.45736 296.4 4.44302H296.443L296.465 4.46453L295.863 4.31395H295.884C295.913 4.32829 295.963 4.33546 296.035 4.33546C295.777 4.33546 295.554 4.34263 295.368 4.35697L295.475 4.33546C295.447 4.36414 295.389 4.37848 295.303 4.37848C295.232 4.40717 295.181 4.42151 295.153 4.42151C295.138 4.42151 295.117 4.42868 295.088 4.44302C295.06 4.45736 295.031 4.46453 295.002 4.46453L294.852 4.52907L294.938 4.48605L294.766 4.5721C294.622 4.6438 294.486 4.72268 294.357 4.80873C294.285 4.8661 294.206 4.9163 294.12 4.95932L294.056 4.98083L294.142 4.9163C294.099 4.95932 294.063 4.99518 294.034 5.02386C294.005 5.0382 293.991 5.05254 293.991 5.06688C293.374 5.56884 292.837 6.121 292.378 6.72335L292.335 6.78789H292.313L292.249 6.87394L292.206 6.93847C291.603 7.71292 291.015 8.6523 290.441 9.75661C289.767 11.0617 289.144 12.4027 288.57 13.7795L288.505 13.9516L288.548 13.8225V13.8655L288.29 14.4463C286.956 17.831 285.866 21.5526 285.02 25.6113C285.006 25.7404 284.984 25.8623 284.956 25.9771V26.1061L284.934 26.1707L284.956 25.9986C284.956 26.0846 284.949 26.1276 284.934 26.1276C284.891 26.5722 284.87 27.0168 284.87 27.4614C284.87 27.7482 284.884 28.0279 284.913 28.3004V28.3434L284.891 28.3004V28.2789C284.906 28.2789 284.913 28.3147 284.913 28.3865C285.013 28.8597 285.092 29.125 285.149 29.1824C285.149 29.2111 285.164 29.2398 285.192 29.2685C285.149 29.2685 285.128 29.2254 285.128 29.1394H285.106L285.128 29.1609C285.128 29.1752 285.128 29.1968 285.128 29.2254C285.142 29.2398 285.178 29.2828 285.235 29.3545C285.293 29.4262 285.336 29.5051 285.365 29.5912L285.386 29.6342V29.6127C285.372 29.6127 285.357 29.6055 285.343 29.5912C285.343 29.5768 285.336 29.5625 285.322 29.5481C285.322 29.5194 285.307 29.5051 285.278 29.5051L285.73 29.9569C285.716 29.9569 285.673 29.921 285.601 29.8493L285.773 29.9784L286.247 30.2365C286.204 30.2365 286.153 30.215 286.096 30.172H286.074C286.089 30.1863 286.125 30.2007 286.182 30.215L286.376 30.2796L286.806 30.3871C286.878 30.3871 286.928 30.3943 286.956 30.4086H287.021V30.4301C287.007 30.4301 286.985 30.4301 286.956 30.4301C286.928 30.4158 286.906 30.4015 286.892 30.3871H286.827C286.885 30.4301 286.971 30.4517 287.086 30.4517C287.344 30.4517 287.501 30.4373 287.559 30.4086C287.788 30.4086 287.925 30.4015 287.968 30.3871H288.032L288.011 30.4086H287.946L287.989 30.3871H288.054C288.541 30.3154 289 30.1863 289.43 29.9999C289.502 29.9712 289.552 29.9569 289.581 29.9569L289.43 30.0214L289.473 29.9999C289.502 29.9712 289.531 29.9569 289.559 29.9569C289.588 29.9425 289.617 29.9282 289.646 29.9138C290.32 29.627 291.51 28.831 293.217 27.526C293.26 27.4686 293.317 27.4256 293.389 27.3969C293.346 27.4399 293.31 27.4614 293.281 27.4614V27.4829C293.353 27.4256 293.396 27.3969 293.41 27.3969C293.425 27.3825 293.439 27.361 293.453 27.3323L293.711 27.1387C295.547 25.6329 296.759 24.464 297.347 23.6322C297.376 23.6178 297.397 23.5963 297.412 23.5676C297.426 23.539 297.44 23.5246 297.455 23.5246C297.469 23.5103 297.476 23.4959 297.476 23.4816L297.433 23.5461L297.498 23.4601C297.87 22.9581 298.308 22.7071 298.81 22.7071C299.054 22.7071 299.319 22.7717 299.606 22.9008C300.136 23.2163 300.402 23.6824 300.402 24.2991C300.402 24.5572 300.323 24.801 300.165 25.0305C299.721 25.6185 299.247 26.185 298.745 26.73C296.867 28.6661 294.787 30.3584 292.507 31.8069C291.474 32.4953 290.348 32.9973 289.129 33.3128C288.57 33.4562 288.011 33.5279 287.451 33.5279Z" fill="#EF5F3C"/>
</svg>
