<svg width="30" height="31" viewBox="0 0 30 31" fill="none" xmlns="http://www.w3.org/2000/svg">
<g clip-path="url(#clip0_1_237)">
<path d="M22.7216 23.2012C20.7948 23.1993 19.2314 24.7598 19.2295 26.6865C19.2276 28.6132 20.7881 30.1767 22.7148 30.1786C24.6416 30.1804 26.205 28.62 26.2069 26.6933C26.2069 26.6921 26.2069 26.691 26.2069 26.6899C26.2051 24.7652 24.6462 23.2049 22.7216 23.2012Z" fill="white"/>
<path d="M28.9097 6.49516C28.8263 6.479 28.7414 6.47078 28.6564 6.47065H7.41476L7.07834 4.21997C6.86873 2.72526 5.5902 1.61316 4.08083 1.6127H1.34569C0.602472 1.6127 0 2.21517 0 2.95839C0 3.70161 0.602472 4.30408 1.34569 4.30408H4.08418C4.25528 4.30283 4.4001 4.43024 4.4206 4.60016L6.49295 18.8039C6.77707 20.6087 8.32954 21.9402 10.1566 21.9461H24.1551C25.9142 21.9484 27.4317 20.7121 27.7851 18.9889L29.9752 8.07201C30.1164 7.34233 29.6394 6.63637 28.9097 6.49516Z" fill="white"/>
<path d="M14.1755 26.5402C14.0936 24.67 12.5501 23.1977 10.6781 23.2042C8.75289 23.282 7.25529 24.9058 7.33308 26.831C7.40773 28.6782 8.91039 30.1464 10.7588 30.1783H10.8429C12.7678 30.0939 14.2598 28.4651 14.1755 26.5402Z" fill="white"/>
</g>
<defs>
<clipPath id="clip0_1_237">
<rect y="0.895508" width="30" height="30" rx="10" fill="white"/>
</clipPath>
</defs>
</svg>
