<svg width="124" height="173" viewBox="0 0 124 173" fill="none" xmlns="http://www.w3.org/2000/svg">
<g filter="url(#filter0_b_1_828)">
<path d="M0.694336 172.912V0.912109H123.787V172.912L61.9464 127.991L0.694336 172.912Z" fill="#EF5F3C"/>
</g>
<path d="M36.1033 31.8093C35.2149 43.0613 34.8263 54.3689 34.9373 65.732C34.9003 66.1391 34.7893 66.5093 34.6042 66.8424C34.4192 67.1385 34.1416 67.4346 33.7714 67.7307C33.4013 67.9898 32.9016 68.1564 32.2724 68.2304C31.6061 68.3044 30.9214 68.3414 30.2181 68.3414C29.5519 68.3784 28.9227 68.3229 28.3305 68.1749C27.7383 68.0268 27.2201 67.7677 26.7759 67.3976C26.3688 67.0274 26.1097 66.4537 25.9986 65.6765C25.9246 65.2693 25.8691 64.4735 25.8321 63.2891C25.8321 62.1047 25.8691 60.6797 25.9431 59.0141C26.0171 57.3115 26.1097 55.4608 26.2207 53.4621C26.3318 51.4263 26.4428 49.3906 26.5538 47.3549C26.5908 47.2808 26.6094 47.1698 26.6094 47.0217C26.3873 46.9847 26.1097 46.9107 25.7766 46.7997C25.4804 46.6886 25.0733 46.4665 24.5551 46.1334C23.9999 45.7633 23.4262 45.3932 22.834 45.023C22.2788 44.6159 21.7606 44.2087 21.2794 43.8016C20.8353 43.3944 20.4836 43.0058 20.2246 42.6357C19.9655 42.2655 19.8914 41.9139 20.0025 41.5808C20.1135 41.2477 20.6132 40.5074 21.5015 39.36C21.9087 38.8418 22.3528 38.2496 22.834 37.5833C23.3152 36.9171 23.8148 36.2324 24.333 35.5291C24.8512 34.8629 25.3139 34.2151 25.721 33.5859C26.1652 32.9567 26.5723 32.383 26.9425 31.8648C27.3496 31.2726 27.7383 30.6989 28.1084 30.1437C28.2564 29.8476 28.7376 29.681 29.5519 29.644C30.4032 29.57 31.2915 29.6255 32.2169 29.8105C33.1792 29.9586 34.049 30.2177 34.8263 30.5878C35.6036 30.9209 36.0292 31.3281 36.1033 31.8093ZM60.3555 46.0779C61.5029 47.6325 62.2802 49.3351 62.6874 51.1857C63.0945 53.0364 63.1315 54.8871 62.7984 56.7377C62.5023 58.5514 61.8731 60.3095 60.9107 62.0121C59.9854 63.6777 58.7454 65.0842 57.1909 66.2317C55.0811 67.7862 52.9344 68.6375 50.7506 68.7856C48.5668 68.9706 46.494 68.5265 44.5323 67.4531C43.2369 66.7869 42.1265 65.9356 41.2011 64.8992C40.2758 63.8628 39.7761 62.5673 39.7021 61.0128C39.6651 60.1615 39.8316 59.3472 40.2018 58.5699C40.6089 57.7926 41.1271 57.1819 41.7563 56.7377C42.3856 56.2936 43.0703 56.09 43.8106 56.127C44.5508 56.127 45.2726 56.4972 45.9758 57.2374C46.494 57.9037 47.1603 58.4959 47.9746 59.0141C48.7889 59.4952 49.6772 59.6433 50.6395 59.4582C52.4902 59.1621 53.7301 57.8852 54.3594 55.6273C54.5074 54.9981 54.5629 54.3504 54.5259 53.6841C54.4889 52.9809 54.3409 52.3332 54.0818 51.7409C53.8597 51.1487 53.5081 50.6305 53.0269 50.1864C52.5457 49.7052 51.9165 49.3721 51.1392 49.187C50.0658 48.8909 48.9184 48.7984 47.697 48.9094C46.4755 48.9835 45.4021 49.1685 44.4768 49.4646C44.1437 49.5387 43.607 49.5572 42.8667 49.5201C42.1635 49.4831 41.6083 49.4646 41.2011 49.4646C40.757 49.4276 40.3683 49.2055 40.0352 48.7984C39.7391 48.3912 39.4985 47.9101 39.3135 47.3549C39.1654 46.7997 39.0729 46.2445 39.0359 45.6893C38.9988 45.1341 39.0544 44.6529 39.2024 44.2457C39.3135 43.8756 39.3875 43.1724 39.4245 42.136C39.4985 41.0626 39.554 39.8782 39.5911 38.5827C39.6281 37.2502 39.6466 35.9177 39.6466 34.5853C39.6836 33.2528 39.7206 32.1424 39.7576 31.2541C39.7946 30.5508 39.8872 30.0696 40.0352 29.8105C40.2203 29.5515 40.4794 29.4034 40.8125 29.3664C41.1456 29.3294 41.5528 29.3664 42.0339 29.4774C42.5151 29.5515 43.0703 29.607 43.6995 29.644C46.2534 29.8291 48.8074 29.9586 51.3613 30.0326C53.9522 30.1067 56.5987 30.0696 59.3006 29.9216C59.7448 29.8846 60.1334 29.8846 60.4666 29.9216C60.8367 29.9586 61.0958 30.0141 61.2438 30.0881C61.4289 30.1992 61.5955 30.3843 61.7435 30.6433C61.9286 30.8654 62.0581 31.2356 62.1322 31.7537C62.2062 32.42 62.2247 33.1417 62.1877 33.919C62.1877 34.6963 62.1137 35.4366 61.9656 36.1398C61.8176 36.8061 61.5955 37.3983 61.2994 37.9165C61.0033 38.4347 60.6331 38.7493 60.189 38.8603C59.9669 38.9343 59.5042 38.9899 58.801 39.0269C58.0977 39.0269 57.2464 39.0084 56.247 38.9713C52.6938 38.8603 49.1405 38.5272 45.5872 37.972V41.3587C48.6963 40.8405 51.5278 40.9886 54.0818 41.8029C56.6727 42.6172 58.764 44.0422 60.3555 46.0779ZM92.6799 31.2541C89.5337 36.9911 86.5357 42.7837 83.6856 48.6318C80.8726 54.4429 78.2077 60.365 75.6908 66.3982C75.6537 66.5093 75.5797 66.6388 75.4687 66.7869C75.2836 67.0089 75.0615 67.231 74.8024 67.4531C74.5063 67.7122 74.1362 67.8973 73.692 68.0083C73.2479 68.1564 72.7112 68.1564 72.082 68.0083C71.4527 67.8232 70.805 67.6197 70.1388 67.3976C69.5095 67.1385 68.9543 66.8239 68.4732 66.4537C67.992 66.0466 67.6404 65.5654 67.4183 65.0102C67.2332 64.418 67.2517 63.6777 67.4738 62.7894C67.6218 62.3453 67.955 61.494 68.4732 60.2355C68.9913 58.977 69.6761 57.4595 70.5274 55.6829C71.3417 53.9432 72.267 52.0371 73.3034 49.9643C74.3398 47.8916 75.4132 45.8003 76.5236 43.6905C77.3749 42.062 78.1706 40.5814 78.9109 39.2489C79.6882 37.8795 80.4285 36.5655 81.1317 35.307C81.872 34.0486 82.5937 32.8086 83.297 31.5872C84.0373 30.3658 84.8145 29.0518 85.6288 27.6453C85.8139 27.3121 86.0175 27.0716 86.2396 26.9235C86.4246 26.7755 86.6652 26.6829 86.9613 26.6459C87.2944 26.6089 87.7016 26.7014 88.1827 26.9235C88.6269 27.1456 89.1451 27.4232 89.7373 27.7563C90.3665 28.0524 90.9217 28.404 91.4029 28.8112C91.9211 29.1813 92.3097 29.57 92.5688 29.9771C92.8649 30.3843 92.9019 30.8099 92.6799 31.2541ZM72.7482 26.5349C73.5625 26.5349 74.3213 26.7014 75.0245 27.0345C75.7648 27.3307 76.4125 27.7563 76.9677 28.3115C77.5229 28.8297 77.9486 29.4589 78.2447 30.1992C78.5778 30.9395 78.7444 31.7167 78.7444 32.531C78.7444 33.3453 78.5778 34.1226 78.2447 34.8629C77.9486 35.5661 77.5229 36.1953 76.9677 36.7505C76.4125 37.2687 75.7648 37.6944 75.0245 38.0275C74.3213 38.3236 73.5625 38.4717 72.7482 38.4717C71.9339 38.4717 71.1566 38.3236 70.4164 38.0275C69.7131 37.6944 69.0839 37.2687 68.5287 36.7505C68.0105 36.1953 67.5848 35.5661 67.2517 34.8629C66.9556 34.1226 66.8076 33.3453 66.8076 32.531C66.8076 31.7167 66.9556 30.9395 67.2517 30.1992C67.5848 29.4589 68.0105 28.8297 68.5287 28.3115C69.0839 27.7563 69.7131 27.3307 70.4164 27.0345C71.1566 26.7014 71.9339 26.5349 72.7482 26.5349ZM73.9141 32.531C73.9141 32.1609 73.8031 31.8833 73.581 31.6982C73.3589 31.4761 73.0813 31.3651 72.7482 31.3651C72.0079 31.3651 71.6378 31.7537 71.6378 32.531C71.6378 33.2343 72.0079 33.5859 72.7482 33.5859C73.0813 33.5859 73.3589 33.4934 73.581 33.3083C73.8031 33.0862 73.9141 32.8271 73.9141 32.531ZM89.8483 56.127C90.6626 56.127 91.4399 56.2936 92.1802 56.6267C92.9205 56.9228 93.5497 57.3485 94.0679 57.9037C94.6231 58.4218 95.0487 59.0511 95.3448 59.7913C95.6779 60.5316 95.8445 61.3089 95.8445 62.1232C95.8445 62.9375 95.6779 63.7148 95.3448 64.455C95.0487 65.1583 94.6231 65.7875 94.0679 66.3427C93.5497 66.8979 92.9205 67.3421 92.1802 67.6752C91.4399 67.9713 90.6626 68.1193 89.8483 68.1193C89.0341 68.1193 88.2568 67.9713 87.5165 67.6752C86.8133 67.3421 86.184 66.8979 85.6288 66.3427C85.0736 65.7875 84.6295 65.1583 84.2964 64.455C84.0002 63.7148 83.8522 62.9375 83.8522 62.1232C83.8522 61.3089 84.0002 60.5316 84.2964 59.7913C84.6295 59.0511 85.0736 58.4218 85.6288 57.9037C86.184 57.3485 86.8133 56.9228 87.5165 56.6267C88.2568 56.2936 89.0341 56.127 89.8483 56.127ZM91.0143 62.1232C91.0143 61.7901 90.9032 61.5125 90.6811 61.2904C90.4591 61.0683 90.1815 60.9573 89.8483 60.9573C89.5522 60.9573 89.2746 61.0683 89.0155 61.2904C88.7935 61.5125 88.6824 61.7901 88.6824 62.1232C88.6824 62.4193 88.7935 62.6969 89.0155 62.956C89.2746 63.1781 89.5522 63.2891 89.8483 63.2891C90.1815 63.2891 90.4591 63.1781 90.6811 62.956C90.9032 62.6969 91.0143 62.4193 91.0143 62.1232Z" fill="white"/>
<path d="M39.2374 109.806C37.4844 109.806 35.8137 109.395 34.2251 108.573C32.6638 107.751 31.2806 106.56 30.0755 104.999C28.9251 103.52 28.0486 101.863 27.4461 100.027C26.8709 98.1923 26.5833 96.2887 26.5833 94.3166C26.5833 92.2624 26.8709 90.3314 27.4461 88.5237C28.0486 86.6885 28.9251 85.0452 30.0755 83.5935C31.2806 82.0323 32.6638 80.8408 34.2251 80.0191C35.8137 79.17 37.4844 78.7455 39.2374 78.7455C41.0177 78.7455 42.6885 79.17 44.2497 80.0191C45.811 80.8408 47.1942 82.0323 48.3993 83.5935C49.5497 85.0452 50.4125 86.6885 50.9876 88.5237C51.5628 90.3314 51.8504 92.2624 51.8504 94.3166C51.8504 96.2887 51.5628 98.1923 50.9876 100.027C50.4125 101.863 49.5497 103.52 48.3993 104.999C47.1942 106.56 45.811 107.751 44.2497 108.573C42.6885 109.395 41.0177 109.806 39.2374 109.806ZM39.2374 84.6617C38.3335 84.6617 37.4708 84.9219 36.6491 85.4423C35.8548 85.9353 35.1426 86.6338 34.5126 87.5376C33.9101 88.4141 33.4307 89.4412 33.0747 90.619C32.7186 91.7694 32.5406 93.0019 32.5406 94.3166C32.5406 95.6039 32.7186 96.8365 33.0747 98.0143C33.4307 99.1646 33.9101 100.178 34.5126 101.055C35.1426 101.931 35.8548 102.629 36.6491 103.15C37.4708 103.643 38.3335 103.889 39.2374 103.889C40.1413 103.889 41.004 103.643 41.8257 103.15C42.6474 102.629 43.3596 101.931 43.9622 101.055C44.5921 100.178 45.0851 99.1646 45.4412 98.0143C45.7973 96.8365 45.9753 95.6039 45.9753 94.3166C45.9753 93.0019 45.7973 91.7694 45.4412 90.619C45.0851 89.4412 44.5921 88.4141 43.9622 87.5376C43.3596 86.6338 42.6474 85.9353 41.8257 85.4423C41.004 84.9219 40.1413 84.6617 39.2374 84.6617ZM70.8236 82.1966C71.2618 82.4157 71.5083 82.7444 71.5631 83.1826C71.6453 83.5935 71.6316 84.0454 71.522 84.5384C71.4125 85.0041 71.2344 85.4697 70.9879 85.9353C70.7688 86.3736 70.5634 86.7296 70.3716 87.0035C70.2073 87.2226 70.0156 87.4144 69.7965 87.5787C69.6047 87.7157 69.3582 87.7294 69.0569 87.6198C67.9066 87.0446 66.9342 86.6475 66.1399 86.4283C65.373 86.1818 64.7567 86.1681 64.2911 86.3873C63.8255 86.6064 63.4831 87.072 63.264 87.7841C63.0722 88.4689 62.9627 89.4412 62.9353 90.7012C62.9079 91.4133 62.8942 92.1117 62.8942 92.7965C62.8942 93.4812 62.8942 94.1797 62.8942 94.8918C63.9624 94.837 65.1128 94.7959 66.3453 94.7686C67.6053 94.7412 68.7693 94.7275 69.8375 94.7275C70.1936 94.8918 70.4675 95.3164 70.6592 96.0011C70.851 96.6585 70.9468 97.3706 70.9468 98.1375C70.9742 98.9044 70.8921 99.6166 70.7003 100.274C70.5086 100.904 70.221 101.26 69.8375 101.342C69.6732 101.397 69.2761 101.424 68.6461 101.424C68.0161 101.424 67.3451 101.411 66.6329 101.383C66.1125 101.383 65.5647 101.383 64.9895 101.383C64.4417 101.356 63.8529 101.328 63.2229 101.301C63.3325 102.999 63.4146 104.506 63.4694 105.82C63.5516 107.135 63.6064 108.327 63.6337 109.395C63.6611 110.436 63.6748 111.394 63.6748 112.271C63.6748 113.147 63.6611 113.996 63.6337 114.818C63.6337 115.174 63.6064 115.571 63.5516 116.009C63.4968 116.475 63.3872 116.9 63.2229 117.283C63.0586 117.694 62.812 118.036 62.4834 118.31C62.1821 118.584 61.7849 118.721 61.2919 118.721C60.8811 118.721 60.4291 118.694 59.9361 118.639C59.4431 118.584 58.9775 118.461 58.5392 118.269C58.101 118.077 57.7312 117.817 57.4299 117.488C57.1286 117.16 56.978 116.722 56.978 116.174C56.978 113.955 56.9643 111.559 56.9369 108.984C56.9369 106.409 56.8684 103.821 56.7315 101.219H55.3757C55.2661 101.274 55.1566 101.26 55.047 101.178C54.9649 101.123 54.869 101.013 54.7594 100.849C54.6773 100.657 54.6088 100.37 54.554 99.9863C54.4992 99.6303 54.4307 99.2057 54.3486 98.7127C54.2938 98.1923 54.2527 97.6993 54.2253 97.2336C54.2253 96.768 54.2527 96.3709 54.3075 96.0422C54.3623 95.7135 54.4718 95.5355 54.6362 95.5081C54.9649 95.4533 55.2798 95.4122 55.5811 95.3848C55.9098 95.3574 56.2385 95.33 56.5672 95.3027C56.5672 94.481 56.5672 93.5771 56.5672 92.5911C56.5672 91.605 56.6219 90.619 56.7315 89.633C56.8411 88.6469 57.0191 87.6883 57.2656 86.757C57.5121 85.7984 57.8682 84.9356 58.3338 84.1687C58.8268 83.3744 59.4568 82.717 60.2237 82.1966C60.9906 81.6488 61.9493 81.2927 63.0996 81.1284C63.7022 81.0462 64.3459 81.0051 65.0306 81.0051C65.7428 81.0051 66.4412 81.0599 67.126 81.1695C67.8107 81.2517 68.4681 81.3886 69.098 81.5803C69.7554 81.7447 70.3306 81.9501 70.8236 82.1966ZM90.2426 82.1966C90.6808 82.4157 90.9273 82.7444 90.9821 83.1826C91.0643 83.5935 91.0506 84.0454 90.941 84.5384C90.8314 85.0041 90.6534 85.4697 90.4069 85.9353C90.1878 86.3736 89.9824 86.7296 89.7906 87.0035C89.6263 87.2226 89.4346 87.4144 89.2154 87.5787C89.0237 87.7157 88.7772 87.7294 88.4759 87.6198C87.3255 87.0446 86.3532 86.6475 85.5589 86.4283C84.792 86.1818 84.1757 86.1681 83.7101 86.3873C83.2445 86.6064 82.9021 87.072 82.683 87.7841C82.4912 88.4689 82.3817 89.4412 82.3543 90.7012C82.3269 91.4133 82.3132 92.1117 82.3132 92.7965C82.3132 93.4812 82.3132 94.1797 82.3132 94.8918C83.3814 94.837 84.5318 94.7959 85.7643 94.7686C87.0243 94.7412 88.1883 94.7275 89.2565 94.7275C89.6126 94.8918 89.8865 95.3164 90.0782 96.0011C90.27 96.6585 90.3658 97.3706 90.3658 98.1375C90.3932 98.9044 90.311 99.6166 90.1193 100.274C89.9276 100.904 89.64 101.26 89.2565 101.342C89.0922 101.397 88.695 101.424 88.0651 101.424C87.4351 101.424 86.7641 101.411 86.0519 101.383C85.5315 101.383 84.9837 101.383 84.4085 101.383C83.8607 101.356 83.2718 101.328 82.6419 101.301C82.7514 102.999 82.8336 104.506 82.8884 105.82C82.9706 107.135 83.0253 108.327 83.0527 109.395C83.0801 110.436 83.0938 111.394 83.0938 112.271C83.0938 113.147 83.0801 113.996 83.0527 114.818C83.0527 115.174 83.0253 115.571 82.9706 116.009C82.9158 116.475 82.8062 116.9 82.6419 117.283C82.4775 117.694 82.231 118.036 81.9024 118.31C81.6011 118.584 81.2039 118.721 80.7109 118.721C80.3 118.721 79.8481 118.694 79.3551 118.639C78.8621 118.584 78.3965 118.461 77.9582 118.269C77.52 118.077 77.1502 117.817 76.8489 117.488C76.5476 117.16 76.397 116.722 76.397 116.174C76.397 113.955 76.3833 111.559 76.3559 108.984C76.3559 106.409 76.2874 103.821 76.1505 101.219H74.7947C74.6851 101.274 74.5756 101.26 74.466 101.178C74.3838 101.123 74.288 101.013 74.1784 100.849C74.0962 100.657 74.0278 100.37 73.973 99.9863C73.9182 99.6303 73.8497 99.2057 73.7676 98.7127C73.7128 98.1923 73.6717 97.6993 73.6443 97.2336C73.6443 96.768 73.6717 96.3709 73.7265 96.0422C73.7813 95.7135 73.8908 95.5355 74.0552 95.5081C74.3838 95.4533 74.6988 95.4122 75.0001 95.3848C75.3288 95.3574 75.6575 95.33 75.9861 95.3027C75.9861 94.481 75.9861 93.5771 75.9861 92.5911C75.9861 91.605 76.0409 90.619 76.1505 89.633C76.26 88.6469 76.4381 87.6883 76.6846 86.757C76.9311 85.7984 77.2872 84.9356 77.7528 84.1687C78.2458 83.3744 78.8758 82.717 79.6427 82.1966C80.4096 81.6488 81.3683 81.2927 82.5186 81.1284C83.1212 81.0462 83.7649 81.0051 84.4496 81.0051C85.1617 81.0051 85.8602 81.0599 86.5449 81.1695C87.2297 81.2517 87.887 81.3886 88.517 81.5803C89.1744 81.7447 89.7495 81.9501 90.2426 82.1966Z" fill="white"/>
<defs>
<filter id="filter0_b_1_828" x="-43.0445" y="-42.8267" width="210.571" height="259.478" filterUnits="userSpaceOnUse" color-interpolation-filters="sRGB">
<feFlood flood-opacity="0" result="BackgroundImageFix"/>
<feGaussianBlur in="BackgroundImageFix" stdDeviation="21.8694"/>
<feComposite in2="SourceAlpha" operator="in" result="effect1_backgroundBlur_1_828"/>
<feBlend mode="normal" in="SourceGraphic" in2="effect1_backgroundBlur_1_828" result="shape"/>
</filter>
</defs>
</svg>
