<svg width="40" height="41" viewBox="0 0 40 41" fill="none" xmlns="http://www.w3.org/2000/svg">
<path fill-rule="evenodd" clip-rule="evenodd" d="M19.9998 0.475586C31.0376 0.475586 39.9998 9.4258 39.9998 20.4756C39.9998 31.5134 31.0496 40.4756 19.9998 40.4756C8.96202 40.4756 -0.000183105 31.5254 -0.000183105 20.4756C-0.000183105 9.43779 8.95003 0.475586 19.9998 0.475586ZM17.4203 16.5044H21.5235V18.604H21.5835C22.1594 17.5722 23.5511 16.5044 25.6387 16.5044C29.9698 16.5044 30.7737 19.2038 30.7737 22.7071V29.8577H26.4905V23.523C26.4905 22.0113 26.4545 20.0677 24.259 20.0677C22.0274 20.0677 21.6915 21.7113 21.6915 23.415V29.8577H17.4083V16.5044H17.4203ZM14.4569 12.7971C14.4569 14.0209 13.4611 15.0287 12.2254 15.0287C11.0016 15.0287 9.99382 14.0329 9.99382 12.7971C9.99382 11.5734 10.9896 10.5656 12.2254 10.5656C13.4491 10.5656 14.4569 11.5614 14.4569 12.7971ZM10.0058 16.5044H14.4569V29.8577H10.0058V16.5044Z" fill="white"/>
</svg>
