<svg width="186" height="20" viewBox="0 0 186 20" fill="none" xmlns="http://www.w3.org/2000/svg">
<path d="M26.417 15.4424C26.3103 15.4424 26.2196 15.4104 26.145 15.3464C26.081 15.2717 26.049 15.181 26.049 15.0744V6.11438L23.393 8.16238C23.3076 8.22638 23.217 8.25305 23.121 8.24238C23.025 8.23172 22.945 8.18372 22.881 8.09838L22.465 7.57038C22.401 7.47438 22.3743 7.37838 22.385 7.28238C22.4063 7.18638 22.4596 7.10638 22.545 7.04238L26.033 4.35438C26.1076 4.30105 26.177 4.26905 26.241 4.25838C26.305 4.24772 26.3743 4.24238 26.449 4.24238H27.265C27.3716 4.24238 27.457 4.27972 27.521 4.35438C27.585 4.41838 27.617 4.50372 27.617 4.61038V15.0744C27.617 15.181 27.585 15.2717 27.521 15.3464C27.457 15.4104 27.3716 15.4424 27.265 15.4424H26.417ZM33.9167 15.6024C33.1807 15.6024 32.5567 15.4904 32.0447 15.2664C31.5434 15.0317 31.1327 14.7117 30.8127 14.3064C30.4927 13.901 30.2581 13.437 30.1087 12.9144C29.9701 12.3917 29.8901 11.837 29.8687 11.2504C29.8581 10.9624 29.8474 10.6584 29.8367 10.3384C29.8367 10.0184 29.8367 9.69838 29.8367 9.37838C29.8474 9.04772 29.8581 8.73305 29.8687 8.43438C29.8794 7.84772 29.9594 7.29305 30.1087 6.77038C30.2687 6.23705 30.5034 5.77305 30.8127 5.37838C31.1327 4.97305 31.5487 4.65838 32.0607 4.43438C32.5727 4.19972 33.1914 4.08238 33.9167 4.08238C34.6527 4.08238 35.2714 4.19972 35.7727 4.43438C36.2847 4.65838 36.7007 4.97305 37.0207 5.37838C37.3407 5.77305 37.5754 6.23705 37.7247 6.77038C37.8847 7.29305 37.9701 7.84772 37.9807 8.43438C37.9914 8.73305 37.9967 9.04772 37.9967 9.37838C38.0074 9.69838 38.0074 10.0184 37.9967 10.3384C37.9967 10.6584 37.9914 10.9624 37.9807 11.2504C37.9701 11.837 37.8847 12.3917 37.7247 12.9144C37.5754 13.437 37.3407 13.901 37.0207 14.3064C36.7114 14.7117 36.3007 15.0317 35.7887 15.2664C35.2874 15.4904 34.6634 15.6024 33.9167 15.6024ZM33.9167 14.2424C34.7487 14.2424 35.3621 13.9704 35.7567 13.4264C36.1621 12.8717 36.3701 12.1197 36.3807 11.1704C36.4021 10.861 36.4127 10.5624 36.4127 10.2744C36.4127 9.97572 36.4127 9.68238 36.4127 9.39438C36.4127 9.09572 36.4021 8.80238 36.3807 8.51438C36.3701 7.58638 36.1621 6.84505 35.7567 6.29038C35.3621 5.72505 34.7487 5.44238 33.9167 5.44238C33.0954 5.44238 32.4821 5.72505 32.0767 6.29038C31.6821 6.84505 31.4741 7.58638 31.4527 8.51438C31.4527 8.80238 31.4474 9.09572 31.4367 9.39438C31.4367 9.68238 31.4367 9.97572 31.4367 10.2744C31.4474 10.5624 31.4527 10.861 31.4527 11.1704C31.4741 12.1197 31.6874 12.8717 32.0927 13.4264C32.4981 13.9704 33.1061 14.2424 33.9167 14.2424ZM44.073 15.6024C43.337 15.6024 42.713 15.4904 42.201 15.2664C41.6996 15.0317 41.289 14.7117 40.969 14.3064C40.649 13.901 40.4143 13.437 40.265 12.9144C40.1263 12.3917 40.0463 11.837 40.025 11.2504C40.0143 10.9624 40.0036 10.6584 39.993 10.3384C39.993 10.0184 39.993 9.69838 39.993 9.37838C40.0036 9.04772 40.0143 8.73305 40.025 8.43438C40.0356 7.84772 40.1156 7.29305 40.265 6.77038C40.425 6.23705 40.6596 5.77305 40.969 5.37838C41.289 4.97305 41.705 4.65838 42.217 4.43438C42.729 4.19972 43.3476 4.08238 44.073 4.08238C44.809 4.08238 45.4276 4.19972 45.929 4.43438C46.441 4.65838 46.857 4.97305 47.177 5.37838C47.497 5.77305 47.7316 6.23705 47.881 6.77038C48.041 7.29305 48.1263 7.84772 48.137 8.43438C48.1476 8.73305 48.153 9.04772 48.153 9.37838C48.1636 9.69838 48.1636 10.0184 48.153 10.3384C48.153 10.6584 48.1476 10.9624 48.137 11.2504C48.1263 11.837 48.041 12.3917 47.881 12.9144C47.7316 13.437 47.497 13.901 47.177 14.3064C46.8676 14.7117 46.457 15.0317 45.945 15.2664C45.4436 15.4904 44.8196 15.6024 44.073 15.6024ZM44.073 14.2424C44.905 14.2424 45.5183 13.9704 45.913 13.4264C46.3183 12.8717 46.5263 12.1197 46.537 11.1704C46.5583 10.861 46.569 10.5624 46.569 10.2744C46.569 9.97572 46.569 9.68238 46.569 9.39438C46.569 9.09572 46.5583 8.80238 46.537 8.51438C46.5263 7.58638 46.3183 6.84505 45.913 6.29038C45.5183 5.72505 44.905 5.44238 44.073 5.44238C43.2516 5.44238 42.6383 5.72505 42.233 6.29038C41.8383 6.84505 41.6303 7.58638 41.609 8.51438C41.609 8.80238 41.6036 9.09572 41.593 9.39438C41.593 9.68238 41.593 9.97572 41.593 10.2744C41.6036 10.5624 41.609 10.861 41.609 11.1704C41.6303 12.1197 41.8436 12.8717 42.249 13.4264C42.6543 13.9704 43.2623 14.2424 44.073 14.2424ZM50.9012 15.4424C50.6772 15.4424 50.5652 15.3357 50.5652 15.1224C50.5652 15.0584 50.5866 14.9997 50.6292 14.9464L58.5332 4.54638C58.6079 4.45038 58.6772 4.37572 58.7412 4.32238C58.8159 4.26905 58.9226 4.24238 59.0612 4.24238H59.5892C59.8132 4.24238 59.9252 4.34905 59.9252 4.56238C59.9252 4.62638 59.9039 4.68505 59.8612 4.73838L51.9732 15.1384C51.8986 15.2344 51.8239 15.309 51.7492 15.3624C51.6852 15.4157 51.5786 15.4424 51.4292 15.4424H50.9012ZM58.2292 15.5384C57.5252 15.5384 56.9759 15.341 56.5812 14.9464C56.1866 14.5517 55.9679 14.0344 55.9252 13.3944C55.9146 13.117 55.9092 12.8824 55.9092 12.6904C55.9092 12.4877 55.9146 12.237 55.9252 11.9384C55.9572 11.2984 56.1652 10.781 56.5492 10.3864C56.9332 9.98105 57.4932 9.77838 58.2292 9.77838C58.9759 9.77838 59.5359 9.98105 59.9092 10.3864C60.2932 10.781 60.5066 11.2984 60.5492 11.9384C60.5706 12.237 60.5812 12.4877 60.5812 12.6904C60.5812 12.8824 60.5706 13.117 60.5492 13.3944C60.5066 14.0344 60.2826 14.5517 59.8772 14.9464C59.4826 15.341 58.9332 15.5384 58.2292 15.5384ZM58.2292 14.4824C58.5066 14.4824 58.7252 14.4237 58.8852 14.3064C59.0559 14.189 59.1786 14.045 59.2532 13.8744C59.3279 13.693 59.3706 13.5117 59.3812 13.3304C59.4026 13.0424 59.4132 12.8184 59.4132 12.6584C59.4132 12.4877 59.4026 12.269 59.3812 12.0024C59.3706 11.7144 59.2799 11.4477 59.1092 11.2024C58.9386 10.957 58.6452 10.8344 58.2292 10.8344C57.8239 10.8344 57.5359 10.957 57.3652 11.2024C57.2052 11.4477 57.1146 11.7144 57.0932 12.0024C57.0826 12.269 57.0772 12.4877 57.0772 12.6584C57.0772 12.8184 57.0826 13.0424 57.0932 13.3304C57.1146 13.5117 57.1572 13.693 57.2212 13.8744C57.2959 14.045 57.4132 14.189 57.5732 14.3064C57.7439 14.4237 57.9626 14.4824 58.2292 14.4824ZM52.2452 9.85838C51.5412 9.85838 50.9919 9.67172 50.5972 9.29838C50.2026 8.92505 49.9839 8.41838 49.9412 7.77838C49.9306 7.50105 49.9252 7.26638 49.9252 7.07438C49.9252 6.87172 49.9306 6.62105 49.9412 6.32238C49.9732 5.68238 50.1812 5.16505 50.5652 4.77038C50.9492 4.36505 51.5092 4.16238 52.2452 4.16238C52.9919 4.16238 53.5519 4.36505 53.9252 4.77038C54.3092 5.16505 54.5172 5.68238 54.5492 6.32238C54.5706 6.62105 54.5812 6.87172 54.5812 7.07438C54.5812 7.26638 54.5706 7.50105 54.5492 7.77838C54.5172 8.41838 54.2986 8.92505 53.8932 9.29838C53.4986 9.67172 52.9492 9.85838 52.2452 9.85838ZM52.2452 8.86638C52.5226 8.86638 52.7412 8.80772 52.9012 8.69038C53.0719 8.57305 53.1946 8.42905 53.2692 8.25838C53.3439 8.07705 53.3866 7.89572 53.3972 7.71438C53.4186 7.42638 53.4292 7.20238 53.4292 7.04238C53.4292 6.87172 53.4186 6.65305 53.3972 6.38638C53.3866 6.09838 53.2906 5.83172 53.1092 5.58638C52.9386 5.34105 52.6506 5.21838 52.2452 5.21838C51.8399 5.21838 51.5519 5.34105 51.3812 5.58638C51.2212 5.83172 51.1306 6.09838 51.1092 6.38638C51.0986 6.65305 51.0932 6.87172 51.0932 7.04238C51.0932 7.20238 51.0986 7.42638 51.1092 7.71438C51.1306 7.89572 51.1732 8.07705 51.2372 8.25838C51.3119 8.42905 51.4292 8.57305 51.5892 8.69038C51.7492 8.80772 51.9679 8.86638 52.2452 8.86638ZM69.315 15.6024C68.7176 15.6024 68.2056 15.5277 67.779 15.3784C67.3523 15.229 67.0056 15.0477 66.739 14.8344C66.4723 14.621 66.2696 14.4077 66.131 14.1944C66.003 13.981 65.9336 13.8104 65.923 13.6824C65.9123 13.565 65.9496 13.4744 66.035 13.4104C66.1203 13.3464 66.2056 13.3144 66.291 13.3144H66.995C67.059 13.3144 67.107 13.325 67.139 13.3464C67.1816 13.357 67.235 13.3997 67.299 13.4744C67.4376 13.6237 67.5923 13.773 67.763 13.9224C67.9336 14.0717 68.1416 14.1944 68.387 14.2904C68.643 14.3864 68.9576 14.4344 69.331 14.4344C69.875 14.4344 70.323 14.333 70.675 14.1304C71.027 13.917 71.203 13.6077 71.203 13.2024C71.203 12.9357 71.1283 12.7224 70.979 12.5624C70.8403 12.4024 70.5843 12.2584 70.211 12.1304C69.8483 12.0024 69.347 11.869 68.707 11.7304C68.067 11.581 67.5603 11.3997 67.187 11.1864C66.8136 10.9624 66.547 10.701 66.387 10.4024C66.227 10.093 66.147 9.74638 66.147 9.36238C66.147 8.96772 66.2643 8.58905 66.499 8.22638C66.7336 7.85305 67.075 7.54905 67.523 7.31438C67.9816 7.07972 68.5523 6.96238 69.235 6.96238C69.7896 6.96238 70.2643 7.03172 70.659 7.17038C71.0536 7.30905 71.379 7.48505 71.635 7.69838C71.891 7.90105 72.083 8.10372 72.211 8.30638C72.339 8.50905 72.4083 8.67972 72.419 8.81838C72.4296 8.92505 72.3976 9.01572 72.323 9.09038C72.2483 9.15438 72.163 9.18638 72.067 9.18638H71.395C71.3203 9.18638 71.2563 9.17038 71.203 9.13838C71.1603 9.10638 71.1176 9.06905 71.075 9.02638C70.9683 8.88772 70.8403 8.74905 70.691 8.61038C70.5523 8.47172 70.3656 8.35972 70.131 8.27438C69.907 8.17838 69.6083 8.13038 69.235 8.13038C68.7016 8.13038 68.3016 8.24238 68.035 8.46638C67.7683 8.69038 67.635 8.97305 67.635 9.31438C67.635 9.51705 67.6936 9.69838 67.811 9.85838C67.9283 10.0184 68.1523 10.1624 68.483 10.2904C68.8136 10.4184 69.3043 10.557 69.955 10.7064C70.659 10.845 71.2136 11.0317 71.619 11.2664C72.0243 11.501 72.3123 11.773 72.483 12.0824C72.6536 12.3917 72.739 12.749 72.739 13.1544C72.739 13.6024 72.6056 14.013 72.339 14.3864C72.083 14.7597 71.699 15.0584 71.187 15.2824C70.6856 15.4957 70.0616 15.6024 69.315 15.6024ZM77.9032 15.6024C76.8046 15.6024 75.9299 15.2664 75.2792 14.5944C74.6286 13.9117 74.2712 12.9837 74.2072 11.8104C74.1966 11.6717 74.1912 11.4957 74.1912 11.2824C74.1912 11.0584 74.1966 10.877 74.2072 10.7384C74.2499 9.98105 74.4259 9.31972 74.7352 8.75438C75.0446 8.17838 75.4659 7.73572 75.9992 7.42638C76.5432 7.11705 77.1779 6.96238 77.9032 6.96238C78.7139 6.96238 79.3912 7.13305 79.9352 7.47438C80.4899 7.81572 80.9112 8.30105 81.1992 8.93038C81.4872 9.55972 81.6312 10.2957 81.6312 11.1384V11.4104C81.6312 11.5277 81.5939 11.6184 81.5192 11.6824C81.4552 11.7464 81.3699 11.7784 81.2632 11.7784H75.7272C75.7272 11.789 75.7272 11.8104 75.7272 11.8424C75.7272 11.8744 75.7272 11.901 75.7272 11.9224C75.7486 12.3597 75.8446 12.7704 76.0152 13.1544C76.1859 13.5277 76.4312 13.8317 76.7512 14.0664C77.0712 14.301 77.4552 14.4184 77.9032 14.4184C78.2872 14.4184 78.6072 14.3597 78.8632 14.2424C79.1192 14.125 79.3272 13.997 79.4872 13.8584C79.6472 13.709 79.7539 13.597 79.8072 13.5224C79.9032 13.3837 79.9779 13.3037 80.0312 13.2824C80.0846 13.2504 80.1699 13.2344 80.2872 13.2344H81.0552C81.1619 13.2344 81.2472 13.2664 81.3112 13.3304C81.3859 13.3837 81.4179 13.4637 81.4072 13.5704C81.3966 13.7304 81.3112 13.9277 81.1512 14.1624C80.9912 14.3864 80.7619 14.6104 80.4632 14.8344C80.1646 15.0584 79.8019 15.245 79.3752 15.3944C78.9486 15.533 78.4579 15.6024 77.9032 15.6024ZM75.7272 10.6744H80.1112V10.6264C80.1112 10.1464 80.0206 9.71972 79.8392 9.34638C79.6686 8.97305 79.4179 8.67972 79.0872 8.46638C78.7566 8.24238 78.3619 8.13038 77.9032 8.13038C77.4446 8.13038 77.0499 8.24238 76.7192 8.46638C76.3992 8.67972 76.1539 8.97305 75.9832 9.34638C75.8126 9.71972 75.7272 10.1464 75.7272 10.6264V10.6744ZM86.9044 15.6024C86.147 15.6024 85.491 15.4584 84.9364 15.1704C84.3924 14.8717 83.971 14.4504 83.6724 13.9064C83.3737 13.3517 83.2137 12.6904 83.1924 11.9224C83.1817 11.7624 83.1764 11.549 83.1764 11.2824C83.1764 11.0157 83.1817 10.8024 83.1924 10.6424C83.2137 9.87438 83.3737 9.21838 83.6724 8.67438C83.971 8.11972 84.3924 7.69838 84.9364 7.41038C85.491 7.11172 86.147 6.96238 86.9044 6.96238C87.523 6.96238 88.051 7.04772 88.4884 7.21838C88.9364 7.38905 89.3044 7.60772 89.5924 7.87438C89.8804 8.14105 90.0937 8.42905 90.2324 8.73838C90.3817 9.04772 90.4617 9.34105 90.4724 9.61838C90.483 9.72505 90.451 9.81038 90.3764 9.87438C90.3017 9.93838 90.211 9.97038 90.1044 9.97038H89.3364C89.2297 9.97038 89.1497 9.94905 89.0964 9.90638C89.043 9.85305 88.9897 9.76772 88.9364 9.65038C88.7444 9.12772 88.483 8.75972 88.1524 8.54638C87.8217 8.33305 87.411 8.22638 86.9204 8.22638C86.2804 8.22638 85.7577 8.42372 85.3524 8.81838C84.9577 9.21305 84.7444 9.84772 84.7124 10.7224C84.7017 11.1064 84.7017 11.4797 84.7124 11.8424C84.7444 12.7277 84.9577 13.3677 85.3524 13.7624C85.7577 14.1464 86.2804 14.3384 86.9204 14.3384C87.411 14.3384 87.8217 14.2317 88.1524 14.0184C88.483 13.805 88.7444 13.437 88.9364 12.9144C88.9897 12.797 89.043 12.717 89.0964 12.6744C89.1497 12.621 89.2297 12.5944 89.3364 12.5944H90.1044C90.211 12.5944 90.3017 12.6264 90.3764 12.6904C90.451 12.7544 90.483 12.8397 90.4724 12.9464C90.4617 13.1704 90.4137 13.3997 90.3284 13.6344C90.243 13.869 90.1044 14.109 89.9124 14.3544C89.731 14.589 89.5017 14.8024 89.2244 14.9944C88.947 15.1757 88.611 15.325 88.2164 15.4424C87.8324 15.549 87.395 15.6024 86.9044 15.6024ZM95.4765 15.6024C94.7938 15.6024 94.2125 15.453 93.7325 15.1544C93.2631 14.845 92.9058 14.4184 92.6605 13.8744C92.4151 13.3304 92.2925 12.7064 92.2925 12.0024V7.49038C92.2925 7.38372 92.3245 7.29838 92.3885 7.23438C92.4631 7.15972 92.5538 7.12238 92.6605 7.12238H93.4605C93.5671 7.12238 93.6525 7.15972 93.7165 7.23438C93.7911 7.29838 93.8285 7.38372 93.8285 7.49038V11.9224C93.8285 13.5117 94.5218 14.3064 95.9085 14.3064C96.5698 14.3064 97.0978 14.0984 97.4925 13.6824C97.8978 13.2557 98.1005 12.669 98.1005 11.9224V7.49038C98.1005 7.38372 98.1325 7.29838 98.1965 7.23438C98.2711 7.15972 98.3618 7.12238 98.4685 7.12238H99.2525C99.3698 7.12238 99.4605 7.15972 99.5245 7.23438C99.5885 7.29838 99.6205 7.38372 99.6205 7.49038V15.0744C99.6205 15.181 99.5885 15.2717 99.5245 15.3464C99.4605 15.4104 99.3698 15.4424 99.2525 15.4424H98.5165C98.4098 15.4424 98.3191 15.4104 98.2445 15.3464C98.1805 15.2717 98.1485 15.181 98.1485 15.0744V14.3704C97.8605 14.7437 97.5085 15.0424 97.0925 15.2664C96.6871 15.4904 96.1485 15.6024 95.4765 15.6024ZM102.365 15.4424C102.259 15.4424 102.168 15.4104 102.093 15.3464C102.029 15.2717 101.997 15.181 101.997 15.0744V7.50638C101.997 7.39972 102.029 7.30905 102.093 7.23438C102.168 7.15972 102.259 7.12238 102.365 7.12238H103.101C103.208 7.12238 103.299 7.15972 103.373 7.23438C103.448 7.30905 103.485 7.39972 103.485 7.50638V8.21038C103.699 7.84772 103.992 7.57572 104.365 7.39438C104.739 7.21305 105.187 7.12238 105.709 7.12238H106.349C106.456 7.12238 106.541 7.15972 106.605 7.23438C106.669 7.29838 106.701 7.38372 106.701 7.49038V8.14638C106.701 8.25305 106.669 8.33838 106.605 8.40238C106.541 8.46638 106.456 8.49838 106.349 8.49838H105.389C104.813 8.49838 104.36 8.66905 104.029 9.01038C103.699 9.34105 103.533 9.79438 103.533 10.3704V15.0744C103.533 15.181 103.496 15.2717 103.421 15.3464C103.347 15.4104 103.256 15.4424 103.149 15.4424H102.365ZM111.231 15.6024C110.133 15.6024 109.258 15.2664 108.607 14.5944C107.957 13.9117 107.599 12.9837 107.535 11.8104C107.525 11.6717 107.519 11.4957 107.519 11.2824C107.519 11.0584 107.525 10.877 107.535 10.7384C107.578 9.98105 107.754 9.31972 108.063 8.75438C108.373 8.17838 108.794 7.73572 109.327 7.42638C109.871 7.11705 110.506 6.96238 111.231 6.96238C112.042 6.96238 112.719 7.13305 113.263 7.47438C113.818 7.81572 114.239 8.30105 114.527 8.93038C114.815 9.55972 114.959 10.2957 114.959 11.1384V11.4104C114.959 11.5277 114.922 11.6184 114.847 11.6824C114.783 11.7464 114.698 11.7784 114.591 11.7784H109.055C109.055 11.789 109.055 11.8104 109.055 11.8424C109.055 11.8744 109.055 11.901 109.055 11.9224C109.077 12.3597 109.173 12.7704 109.343 13.1544C109.514 13.5277 109.759 13.8317 110.079 14.0664C110.399 14.301 110.783 14.4184 111.231 14.4184C111.615 14.4184 111.935 14.3597 112.191 14.2424C112.447 14.125 112.655 13.997 112.815 13.8584C112.975 13.709 113.082 13.597 113.135 13.5224C113.231 13.3837 113.306 13.3037 113.359 13.2824C113.413 13.2504 113.498 13.2344 113.615 13.2344H114.383C114.49 13.2344 114.575 13.2664 114.639 13.3304C114.714 13.3837 114.746 13.4637 114.735 13.5704C114.725 13.7304 114.639 13.9277 114.479 14.1624C114.319 14.3864 114.09 14.6104 113.791 14.8344C113.493 15.0584 113.13 15.245 112.703 15.3944C112.277 15.533 111.786 15.6024 111.231 15.6024ZM109.055 10.6744H113.439V10.6264C113.439 10.1464 113.349 9.71972 113.167 9.34638C112.997 8.97305 112.746 8.67972 112.415 8.46638C112.085 8.24238 111.69 8.13038 111.231 8.13038C110.773 8.13038 110.378 8.24238 110.047 8.46638C109.727 8.67972 109.482 8.97305 109.311 9.34638C109.141 9.71972 109.055 10.1464 109.055 10.6264V10.6744ZM121.178 18.4824C121.072 18.4824 120.981 18.445 120.906 18.3704C120.842 18.3064 120.81 18.221 120.81 18.1144V7.49038C120.81 7.38372 120.842 7.29838 120.906 7.23438C120.981 7.15972 121.072 7.12238 121.178 7.12238H121.914C122.021 7.12238 122.106 7.15972 122.17 7.23438C122.245 7.29838 122.282 7.38372 122.282 7.49038V8.19438C122.538 7.84238 122.88 7.54905 123.306 7.31438C123.733 7.07972 124.266 6.96238 124.906 6.96238C125.504 6.96238 126.01 7.06372 126.426 7.26638C126.853 7.46905 127.2 7.74638 127.466 8.09838C127.744 8.45038 127.952 8.85038 128.09 9.29838C128.229 9.74638 128.304 10.2264 128.314 10.7384C128.325 10.909 128.33 11.0904 128.33 11.2824C128.33 11.4744 128.325 11.6557 128.314 11.8264C128.304 12.3277 128.229 12.8077 128.09 13.2664C127.952 13.7144 127.744 14.1144 127.466 14.4664C127.2 14.8077 126.853 15.085 126.426 15.2984C126.01 15.501 125.504 15.6024 124.906 15.6024C124.288 15.6024 123.765 15.4904 123.338 15.2664C122.922 15.0317 122.581 14.7437 122.314 14.4024V18.1144C122.314 18.221 122.282 18.3064 122.218 18.3704C122.154 18.445 122.064 18.4824 121.946 18.4824H121.178ZM124.57 14.3064C125.125 14.3064 125.557 14.189 125.866 13.9544C126.186 13.709 126.416 13.3944 126.554 13.0104C126.693 12.6157 126.773 12.1944 126.794 11.7464C126.805 11.437 126.805 11.1277 126.794 10.8184C126.773 10.3704 126.693 9.95438 126.554 9.57038C126.416 9.17572 126.186 8.86105 125.866 8.62638C125.557 8.38105 125.125 8.25838 124.57 8.25838C124.048 8.25838 123.621 8.38105 123.29 8.62638C122.97 8.87172 122.73 9.18638 122.57 9.57038C122.421 9.94372 122.336 10.3277 122.314 10.7224C122.304 10.893 122.298 11.0957 122.298 11.3304C122.298 11.565 122.304 11.773 122.314 11.9544C122.325 12.3277 122.41 12.6957 122.57 13.0584C122.741 13.421 122.992 13.7197 123.322 13.9544C123.653 14.189 124.069 14.3064 124.57 14.3064ZM132.646 15.6024C132.112 15.6024 131.627 15.4957 131.19 15.2824C130.752 15.069 130.4 14.781 130.134 14.4184C129.867 14.0557 129.734 13.645 129.734 13.1864C129.734 12.4504 130.032 11.8637 130.63 11.4264C131.227 10.989 132.006 10.701 132.966 10.5624L135.35 10.2264V9.76238C135.35 9.25038 135.2 8.85038 134.902 8.56238C134.614 8.27438 134.139 8.13038 133.478 8.13038C132.998 8.13038 132.608 8.22638 132.31 8.41838C132.022 8.61038 131.819 8.85572 131.702 9.15438C131.638 9.31438 131.526 9.39438 131.366 9.39438H130.646C130.528 9.39438 130.438 9.36238 130.374 9.29838C130.32 9.22372 130.294 9.13838 130.294 9.04238C130.294 8.88238 130.352 8.68505 130.47 8.45038C130.598 8.21572 130.79 7.98638 131.046 7.76238C131.302 7.53838 131.627 7.35172 132.022 7.20238C132.427 7.04238 132.918 6.96238 133.494 6.96238C134.134 6.96238 134.672 7.04772 135.11 7.21838C135.547 7.37838 135.888 7.59705 136.134 7.87438C136.39 8.15172 136.571 8.46638 136.678 8.81838C136.795 9.17038 136.854 9.52772 136.854 9.89038V15.0744C136.854 15.181 136.816 15.2717 136.742 15.3464C136.678 15.4104 136.592 15.4424 136.486 15.4424H135.75C135.632 15.4424 135.542 15.4104 135.478 15.3464C135.414 15.2717 135.382 15.181 135.382 15.0744V14.3864C135.243 14.5784 135.056 14.7704 134.822 14.9624C134.587 15.1437 134.294 15.2984 133.942 15.4264C133.59 15.5437 133.158 15.6024 132.646 15.6024ZM132.982 14.4024C133.419 14.4024 133.819 14.3117 134.182 14.1304C134.544 13.9384 134.827 13.645 135.03 13.2504C135.243 12.8557 135.35 12.3597 135.35 11.7624V11.3144L133.494 11.5864C132.736 11.693 132.166 11.8744 131.782 12.1304C131.398 12.3757 131.206 12.6904 131.206 13.0744C131.206 13.373 131.291 13.6237 131.462 13.8264C131.643 14.0184 131.867 14.1624 132.134 14.2584C132.411 14.3544 132.694 14.4024 132.982 14.4024ZM140.438 18.4824C140.353 18.4824 140.278 18.4504 140.214 18.3864C140.15 18.3224 140.118 18.2477 140.118 18.1624C140.118 18.1197 140.123 18.077 140.134 18.0344C140.145 17.9917 140.166 17.9384 140.198 17.8744L141.43 14.9464L138.374 7.73038C138.321 7.60238 138.294 7.51172 138.294 7.45838C138.294 7.36238 138.326 7.28238 138.39 7.21838C138.454 7.15438 138.534 7.12238 138.63 7.12238H139.414C139.521 7.12238 139.606 7.14905 139.67 7.20238C139.734 7.25572 139.777 7.31972 139.798 7.39438L142.23 13.2184L144.726 7.39438C144.758 7.31972 144.801 7.25572 144.854 7.20238C144.918 7.14905 145.009 7.12238 145.126 7.12238H145.878C145.974 7.12238 146.054 7.15438 146.118 7.21838C146.182 7.28238 146.214 7.35705 146.214 7.44238C146.214 7.49572 146.187 7.59172 146.134 7.73038L141.59 18.2104C141.558 18.285 141.51 18.349 141.446 18.4024C141.393 18.4557 141.307 18.4824 141.19 18.4824H140.438ZM148.162 15.4424C148.056 15.4424 147.965 15.4104 147.89 15.3464C147.826 15.2717 147.794 15.181 147.794 15.0744V7.49038C147.794 7.38372 147.826 7.29838 147.89 7.23438C147.965 7.15972 148.056 7.12238 148.162 7.12238H148.882C148.989 7.12238 149.074 7.15972 149.138 7.23438C149.213 7.29838 149.25 7.38372 149.25 7.49038V8.05038C149.496 7.71972 149.805 7.45838 150.178 7.26638C150.552 7.06372 151 6.96238 151.522 6.96238C152.728 6.95172 153.581 7.44238 154.082 8.43438C154.328 7.98638 154.685 7.62905 155.154 7.36238C155.624 7.09572 156.157 6.96238 156.754 6.96238C157.309 6.96238 157.81 7.09038 158.258 7.34638C158.717 7.60238 159.074 7.99172 159.33 8.51438C159.597 9.02638 159.73 9.67172 159.73 10.4504V15.0744C159.73 15.181 159.693 15.2717 159.618 15.3464C159.554 15.4104 159.469 15.4424 159.362 15.4424H158.61C158.504 15.4424 158.413 15.4104 158.338 15.3464C158.274 15.2717 158.242 15.181 158.242 15.0744V10.5944C158.242 9.99705 158.157 9.52772 157.986 9.18638C157.816 8.84505 157.586 8.60505 157.298 8.46638C157.01 8.32772 156.696 8.25838 156.354 8.25838C156.077 8.25838 155.794 8.32772 155.506 8.46638C155.218 8.60505 154.978 8.84505 154.786 9.18638C154.605 9.52772 154.514 9.99705 154.514 10.5944V15.0744C154.514 15.181 154.477 15.2717 154.402 15.3464C154.338 15.4104 154.253 15.4424 154.146 15.4424H153.394C153.288 15.4424 153.197 15.4104 153.122 15.3464C153.058 15.2717 153.026 15.181 153.026 15.0744V10.5944C153.026 9.99705 152.936 9.52772 152.754 9.18638C152.573 8.84505 152.338 8.60505 152.05 8.46638C151.762 8.32772 151.458 8.25838 151.138 8.25838C150.861 8.25838 150.578 8.32772 150.29 8.46638C150.002 8.60505 149.762 8.84505 149.57 9.18638C149.389 9.52772 149.298 9.99172 149.298 10.5784V15.0744C149.298 15.181 149.261 15.2717 149.186 15.3464C149.122 15.4104 149.037 15.4424 148.93 15.4424H148.162ZM165.325 15.6024C164.226 15.6024 163.352 15.2664 162.701 14.5944C162.05 13.9117 161.693 12.9837 161.629 11.8104C161.618 11.6717 161.613 11.4957 161.613 11.2824C161.613 11.0584 161.618 10.877 161.629 10.7384C161.672 9.98105 161.848 9.31972 162.157 8.75438C162.466 8.17838 162.888 7.73572 163.421 7.42638C163.965 7.11705 164.6 6.96238 165.325 6.96238C166.136 6.96238 166.813 7.13305 167.357 7.47438C167.912 7.81572 168.333 8.30105 168.621 8.93038C168.909 9.55972 169.053 10.2957 169.053 11.1384V11.4104C169.053 11.5277 169.016 11.6184 168.941 11.6824C168.877 11.7464 168.792 11.7784 168.685 11.7784H163.149C163.149 11.789 163.149 11.8104 163.149 11.8424C163.149 11.8744 163.149 11.901 163.149 11.9224C163.17 12.3597 163.266 12.7704 163.437 13.1544C163.608 13.5277 163.853 13.8317 164.173 14.0664C164.493 14.301 164.877 14.4184 165.325 14.4184C165.709 14.4184 166.029 14.3597 166.285 14.2424C166.541 14.125 166.749 13.997 166.909 13.8584C167.069 13.709 167.176 13.597 167.229 13.5224C167.325 13.3837 167.4 13.3037 167.453 13.2824C167.506 13.2504 167.592 13.2344 167.709 13.2344H168.477C168.584 13.2344 168.669 13.2664 168.733 13.3304C168.808 13.3837 168.84 13.4637 168.829 13.5704C168.818 13.7304 168.733 13.9277 168.573 14.1624C168.413 14.3864 168.184 14.6104 167.885 14.8344C167.586 15.0584 167.224 15.245 166.797 15.3944C166.37 15.533 165.88 15.6024 165.325 15.6024ZM163.149 10.6744H167.533V10.6264C167.533 10.1464 167.442 9.71972 167.261 9.34638C167.09 8.97305 166.84 8.67972 166.509 8.46638C166.178 8.24238 165.784 8.13038 165.325 8.13038C164.866 8.13038 164.472 8.24238 164.141 8.46638C163.821 8.67972 163.576 8.97305 163.405 9.34638C163.234 9.71972 163.149 10.1464 163.149 10.6264V10.6744ZM171.334 15.4424C171.228 15.4424 171.137 15.4104 171.062 15.3464C170.998 15.2717 170.966 15.181 170.966 15.0744V7.49038C170.966 7.38372 170.998 7.29838 171.062 7.23438C171.137 7.15972 171.228 7.12238 171.334 7.12238H172.086C172.193 7.12238 172.278 7.15972 172.342 7.23438C172.417 7.29838 172.454 7.38372 172.454 7.49038V8.19438C172.732 7.83172 173.078 7.53838 173.494 7.31438C173.921 7.07972 174.465 6.96238 175.126 6.96238C175.82 6.96238 176.406 7.11705 176.886 7.42638C177.377 7.72505 177.745 8.14638 177.99 8.69038C178.236 9.22372 178.358 9.84772 178.358 10.5624V15.0744C178.358 15.181 178.326 15.2717 178.262 15.3464C178.198 15.4104 178.113 15.4424 178.006 15.4424H177.206C177.1 15.4424 177.009 15.4104 176.934 15.3464C176.87 15.2717 176.838 15.181 176.838 15.0744V10.6424C176.838 9.89572 176.657 9.31438 176.294 8.89838C175.932 8.47172 175.398 8.25838 174.694 8.25838C174.033 8.25838 173.5 8.47172 173.094 8.89838C172.7 9.31438 172.502 9.89572 172.502 10.6424V15.0744C172.502 15.181 172.465 15.2717 172.39 15.3464C172.326 15.4104 172.241 15.4424 172.134 15.4424H171.334ZM183.808 15.4424C183.211 15.4424 182.725 15.3304 182.352 15.1064C181.979 14.8717 181.707 14.5464 181.536 14.1304C181.365 13.7037 181.28 13.2024 181.28 12.6264V8.40238H180.032C179.925 8.40238 179.835 8.37038 179.76 8.30638C179.696 8.23172 179.664 8.14105 179.664 8.03438V7.49038C179.664 7.38372 179.696 7.29838 179.76 7.23438C179.835 7.15972 179.925 7.12238 180.032 7.12238H181.28V4.45038C181.28 4.34372 181.312 4.25838 181.376 4.19438C181.451 4.11972 181.541 4.08238 181.648 4.08238H182.4C182.507 4.08238 182.592 4.11972 182.656 4.19438C182.731 4.25838 182.768 4.34372 182.768 4.45038V7.12238H184.752C184.859 7.12238 184.944 7.15972 185.008 7.23438C185.083 7.29838 185.12 7.38372 185.12 7.49038V8.03438C185.12 8.14105 185.083 8.23172 185.008 8.30638C184.944 8.37038 184.859 8.40238 184.752 8.40238H182.768V12.5144C182.768 13.0157 182.853 13.4104 183.024 13.6984C183.195 13.9864 183.499 14.1304 183.936 14.1304H184.912C185.019 14.1304 185.104 14.1677 185.168 14.2424C185.243 14.3064 185.28 14.3917 185.28 14.4984V15.0744C185.28 15.181 185.243 15.2717 185.168 15.3464C185.104 15.4104 185.019 15.4424 184.912 15.4424H183.808Z" fill="#606060"/>
<path d="M12.251 6.44238H11.376V4.7281C11.376 2.36238 9.41598 0.442383 7.00098 0.442383C4.58598 0.442383 2.62598 2.36238 2.62598 4.7281V6.44238H1.75098C0.788477 6.44238 0.000976562 7.21381 0.000976562 8.15667V16.7281C0.000976562 17.671 0.788477 18.4424 1.75098 18.4424H12.251C13.2135 18.4424 14.001 17.671 14.001 16.7281V8.15667C14.001 7.21381 13.2135 6.44238 12.251 6.44238ZM7.00098 14.1567C6.03848 14.1567 5.25098 13.3852 5.25098 12.4424C5.25098 11.4995 6.03848 10.7281 7.00098 10.7281C7.96348 10.7281 8.75098 11.4995 8.75098 12.4424C8.75098 13.3852 7.96348 14.1567 7.00098 14.1567ZM9.71348 6.44238H4.28848V4.7281C4.28848 3.26238 5.50473 2.07095 7.00098 2.07095C8.49723 2.07095 9.71348 3.26238 9.71348 4.7281V6.44238Z" fill="#606060"/>
</svg>
