<svg width="21" height="21" viewBox="0 0 21 21" fill="none" xmlns="http://www.w3.org/2000/svg">
<path d="M20.2705 7.50068C20.2066 7.31255 20.0891 7.14725 19.9323 7.02517C19.7756 6.9031 19.5865 6.8296 19.3885 6.81375L13.5953 6.35342L11.0884 0.804135C11.0086 0.625404 10.8787 0.473598 10.7145 0.367039C10.5503 0.260479 10.3588 0.203721 10.163 0.203613C9.96725 0.203506 9.77565 0.260054 9.61133 0.366433C9.44701 0.472812 9.31698 0.624476 9.23695 0.803119L6.73006 6.35342L0.936893 6.81375C0.742252 6.82917 0.556174 6.90034 0.400921 7.01874C0.245668 7.13715 0.127814 7.29777 0.0614583 7.4814C-0.00489727 7.66503 -0.0169445 7.86389 0.0267579 8.05419C0.0704604 8.24448 0.168062 8.41816 0.307886 8.55444L4.589 12.7278L3.07491 19.2842C3.02894 19.4826 3.04367 19.6903 3.1172 19.8803C3.19073 20.0703 3.31967 20.2338 3.48727 20.3495C3.65488 20.4653 3.85341 20.5281 4.05712 20.5296C4.26083 20.5312 4.4603 20.4715 4.62964 20.3582L10.1627 16.6696L15.6957 20.3582C15.8688 20.4732 16.0729 20.5323 16.2806 20.5278C16.4884 20.5232 16.6897 20.4552 16.8576 20.3328C17.0255 20.2104 17.1518 20.0395 17.2197 19.8431C17.2876 19.6467 17.2937 19.4343 17.2372 19.2344L15.3787 12.7309L19.988 8.5829C20.2898 8.31056 20.4006 7.8858 20.2705 7.50068Z" fill="#FFBB15"/>
</svg>
