<svg width="15" height="14" viewBox="0 0 15 14" fill="none" xmlns="http://www.w3.org/2000/svg">
<path d="M5.38936 1.5747C6.24021 -0.505043 9.18537 -0.505043 10.0362 1.5747C10.3887 2.43635 11.1988 3.03311 12.1254 3.12357C14.3482 3.34058 15.3073 6.08612 13.6675 7.60247L13.4968 7.7604C12.8165 8.38942 12.5184 9.33051 12.7124 10.2365L12.7803 10.5539C13.2402 12.7016 10.8933 14.3473 9.03078 13.1832C8.2244 12.6791 7.20118 12.6791 6.3948 13.1832C4.53224 14.3473 2.18537 12.7016 2.64523 10.5539L2.71319 10.2365C2.90717 9.33051 2.60904 8.38942 1.92882 7.7604L1.75803 7.60246C0.118252 6.08612 1.07736 3.34058 3.30021 3.12357C4.22678 3.03311 5.03685 2.43635 5.38936 1.5747Z" fill="#FFC201"/>
</svg>
