<svg width="187" height="20" viewBox="0 0 187 20" fill="none" xmlns="http://www.w3.org/2000/svg">
<path d="M27.2166 15.9121C27.11 15.9121 27.0246 15.8801 26.9606 15.8161C26.8966 15.7414 26.8646 15.6508 26.8646 15.5441V6.52011L24.1766 8.58411C24.102 8.64811 24.022 8.68011 23.9366 8.68011C23.8406 8.68011 23.75 8.62678 23.6646 8.52011L23.2806 8.02411C23.2273 7.94944 23.2006 7.87478 23.2006 7.80011C23.2006 7.68278 23.254 7.58678 23.3606 7.51211L26.8326 4.82411C26.95 4.74944 27.0886 4.71211 27.2486 4.71211H28.0006C28.1073 4.71211 28.1926 4.74944 28.2566 4.82411C28.3313 4.88811 28.3686 4.97344 28.3686 5.08011V15.5441C28.3686 15.6508 28.3313 15.7414 28.2566 15.8161C28.1926 15.8801 28.1073 15.9121 28.0006 15.9121H27.2166ZM34.6535 16.0721C33.2775 16.0721 32.2695 15.6721 31.6295 14.8721C31.0002 14.0614 30.6642 13.0054 30.6215 11.7041L30.6055 10.3281L30.6215 8.90411C30.6535 7.61344 30.9895 6.56811 31.6295 5.76811C32.2802 4.95744 33.2882 4.55211 34.6535 4.55211C36.0295 4.55211 37.0375 4.95744 37.6775 5.76811C38.3282 6.56811 38.6695 7.61344 38.7015 8.90411C38.7122 9.20278 38.7175 9.67744 38.7175 10.3281C38.7175 10.9574 38.7122 11.4161 38.7015 11.7041C38.6588 13.0054 38.3175 14.0614 37.6775 14.8721C37.0482 15.6721 36.0402 16.0721 34.6535 16.0721ZM34.6535 14.7441C35.4748 14.7441 36.0935 14.4721 36.5095 13.9281C36.9255 13.3841 37.1442 12.6161 37.1655 11.6241C37.1762 11.3148 37.1815 10.8721 37.1815 10.2961C37.1815 9.70944 37.1762 9.27211 37.1655 8.98411C37.1442 8.00278 36.9202 7.24011 36.4935 6.69611C36.0775 6.14144 35.4642 5.86411 34.6535 5.86411C33.8428 5.86411 33.2295 6.14144 32.8135 6.69611C32.3975 7.24011 32.1788 8.00278 32.1575 8.98411L32.1415 10.2961L32.1575 11.6241C32.1788 12.6161 32.3975 13.3841 32.8135 13.9281C33.2295 14.4721 33.8428 14.7441 34.6535 14.7441ZM44.7785 16.0721C43.4025 16.0721 42.3945 15.6721 41.7545 14.8721C41.1252 14.0614 40.7892 13.0054 40.7465 11.7041L40.7305 10.3281L40.7465 8.90411C40.7785 7.61344 41.1145 6.56811 41.7545 5.76811C42.4052 4.95744 43.4132 4.55211 44.7785 4.55211C46.1545 4.55211 47.1625 4.95744 47.8025 5.76811C48.4532 6.56811 48.7945 7.61344 48.8265 8.90411C48.8372 9.20278 48.8425 9.67744 48.8425 10.3281C48.8425 10.9574 48.8372 11.4161 48.8265 11.7041C48.7838 13.0054 48.4425 14.0614 47.8025 14.8721C47.1732 15.6721 46.1652 16.0721 44.7785 16.0721ZM44.7785 14.7441C45.5998 14.7441 46.2185 14.4721 46.6345 13.9281C47.0505 13.3841 47.2692 12.6161 47.2905 11.6241C47.3012 11.3148 47.3065 10.8721 47.3065 10.2961C47.3065 9.70944 47.3012 9.27211 47.2905 8.98411C47.2692 8.00278 47.0452 7.24011 46.6185 6.69611C46.2025 6.14144 45.5892 5.86411 44.7785 5.86411C43.9678 5.86411 43.3545 6.14144 42.9385 6.69611C42.5225 7.24011 42.3038 8.00278 42.2825 8.98411L42.2665 10.2961L42.2825 11.6241C42.3038 12.6161 42.5225 13.3841 42.9385 13.9281C43.3545 14.4721 43.9678 14.7441 44.7785 14.7441ZM52.9355 10.3281C52.2422 10.3281 51.6928 10.1468 51.2875 9.78411C50.8928 9.41078 50.6795 8.89878 50.6475 8.24811C50.6368 8.06678 50.6315 7.83211 50.6315 7.54411C50.6315 7.23478 50.6368 6.98411 50.6475 6.79211C50.6795 6.13078 50.8875 5.60811 51.2715 5.22411C51.6555 4.82944 52.2102 4.63211 52.9355 4.63211C53.6608 4.63211 54.2155 4.82944 54.5995 5.22411C54.9942 5.60811 55.2075 6.13078 55.2395 6.79211C55.2608 7.17611 55.2715 7.42678 55.2715 7.54411C55.2715 7.65078 55.2608 7.88544 55.2395 8.24811C55.2075 8.89878 54.9888 9.41078 54.5835 9.78411C54.1782 10.1468 53.6288 10.3281 52.9355 10.3281ZM51.5915 15.9121C51.4955 15.9121 51.4155 15.8854 51.3515 15.8321C51.2875 15.7681 51.2555 15.6881 51.2555 15.5921C51.2555 15.5281 51.2768 15.4694 51.3195 15.4161L59.2235 5.01611C59.3088 4.89878 59.3835 4.81878 59.4475 4.77611C59.5222 4.73344 59.6235 4.71211 59.7515 4.71211H60.2635C60.3595 4.71211 60.4342 4.74411 60.4875 4.80811C60.5515 4.86144 60.5835 4.93611 60.5835 5.03211C60.5835 5.09611 60.5622 5.15478 60.5195 5.20811L52.6315 15.6081C52.5462 15.7148 52.4662 15.7948 52.3915 15.8481C52.3275 15.8908 52.2315 15.9121 52.1035 15.9121H51.5915ZM52.9355 9.35211C53.3195 9.35211 53.6022 9.24011 53.7835 9.01611C53.9648 8.79211 54.0715 8.51478 54.1035 8.18411C54.1248 7.80011 54.1355 7.57611 54.1355 7.51211C54.1355 7.41611 54.1248 7.19744 54.1035 6.85611C54.0822 6.52544 53.9755 6.24811 53.7835 6.02411C53.6022 5.78944 53.3195 5.67211 52.9355 5.67211C52.5515 5.67211 52.2688 5.78944 52.0875 6.02411C51.9062 6.24811 51.8048 6.52544 51.7835 6.85611C51.7728 7.02678 51.7675 7.24544 51.7675 7.51211C51.7675 7.76811 51.7728 7.99211 51.7835 8.18411C51.8155 8.50411 51.9168 8.78144 52.0875 9.01611C52.2688 9.24011 52.5515 9.35211 52.9355 9.35211ZM58.8875 16.0081C58.1942 16.0081 57.6448 15.8108 57.2395 15.4161C56.8448 15.0214 56.6315 14.4988 56.5995 13.8481C56.5782 13.5281 56.5675 13.3148 56.5675 13.2081C56.5675 13.1014 56.5782 12.8348 56.5995 12.4081C56.6315 11.7468 56.8395 11.2241 57.2235 10.8401C57.6075 10.4454 58.1622 10.2481 58.8875 10.2481C59.6128 10.2481 60.1675 10.4454 60.5515 10.8401C60.9462 11.2241 61.1595 11.7468 61.1915 12.4081C61.2128 12.7921 61.2235 13.0374 61.2235 13.1441C61.2235 13.2508 61.2128 13.4854 61.1915 13.8481C61.1595 14.4988 60.9408 15.0214 60.5355 15.4161C60.1302 15.8108 59.5808 16.0081 58.8875 16.0081ZM58.8875 14.9681C59.2715 14.9681 59.5542 14.8561 59.7355 14.6321C59.9168 14.4081 60.0235 14.1308 60.0555 13.8001C60.0768 13.4161 60.0875 13.1868 60.0875 13.1121C60.0875 13.0268 60.0768 12.8134 60.0555 12.4721C60.0342 12.1414 59.9275 11.8641 59.7355 11.6401C59.5542 11.4054 59.2715 11.2881 58.8875 11.2881C58.5035 11.2881 58.2208 11.4054 58.0395 11.6401C57.8582 11.8641 57.7568 12.1414 57.7355 12.4721C57.7248 12.6428 57.7195 12.8561 57.7195 13.1121C57.7195 13.3788 57.7248 13.6081 57.7355 13.8001C57.7568 14.1201 57.8582 14.3974 58.0395 14.6321C58.2208 14.8561 58.5035 14.9681 58.8875 14.9681ZM69.9736 16.0721C69.2376 16.0721 68.6136 15.9548 68.1016 15.7201C67.6003 15.4748 67.227 15.1974 66.9816 14.8881C66.7363 14.5788 66.6136 14.3228 66.6136 14.1201C66.6136 14.0134 66.651 13.9334 66.7256 13.8801C66.8003 13.8161 66.8803 13.7841 66.9656 13.7841H67.6376C67.7016 13.7841 67.7496 13.7948 67.7816 13.8161C67.8243 13.8374 67.8776 13.8854 67.9416 13.9601C68.187 14.2588 68.459 14.4934 68.7576 14.6641C69.067 14.8348 69.4776 14.9201 69.9896 14.9201C70.5656 14.9201 71.0243 14.8134 71.3656 14.6001C71.7176 14.3868 71.8936 14.0774 71.8936 13.6721C71.8936 13.4054 71.819 13.1921 71.6696 13.0321C71.5203 12.8721 71.2696 12.7281 70.9176 12.6001C70.5763 12.4721 70.0643 12.3334 69.3816 12.1841C68.4536 11.9814 67.7976 11.6881 67.4136 11.3041C67.0296 10.9201 66.8376 10.4241 66.8376 9.81611C66.8376 9.42144 66.955 9.04278 67.1896 8.68011C67.4243 8.30678 67.771 8.00811 68.2296 7.78411C68.699 7.54944 69.2536 7.43211 69.8936 7.43211C70.5656 7.43211 71.1363 7.54411 71.6056 7.76811C72.0856 7.99211 72.443 8.25344 72.6776 8.55211C72.923 8.85078 73.0456 9.10144 73.0456 9.30411C73.0456 9.40011 73.0083 9.48011 72.9336 9.54411C72.8696 9.60811 72.7896 9.64011 72.6936 9.64011H72.0856C71.9363 9.64011 71.8296 9.58144 71.7656 9.46411C71.5843 9.26144 71.4296 9.10678 71.3016 9.00011C71.1843 8.88278 71.0083 8.78678 70.7736 8.71211C70.539 8.62678 70.2456 8.58411 69.8936 8.58411C69.371 8.58411 68.971 8.69611 68.6936 8.92011C68.4163 9.13344 68.2776 9.42144 68.2776 9.78411C68.2776 10.0081 68.3363 10.2001 68.4536 10.3601C68.571 10.5094 68.795 10.6534 69.1256 10.7921C69.4563 10.9201 69.947 11.0534 70.5976 11.1921C71.611 11.4054 72.3256 11.7094 72.7416 12.1041C73.1683 12.4988 73.3816 13.0054 73.3816 13.6241C73.3816 14.0828 73.2483 14.4988 72.9816 14.8721C72.7256 15.2454 72.3363 15.5388 71.8136 15.7521C71.3016 15.9654 70.6883 16.0721 69.9736 16.0721ZM78.5466 16.0721C77.4586 16.0721 76.5893 15.7361 75.9386 15.0641C75.288 14.3814 74.9306 13.4534 74.8666 12.2801L74.8506 11.7361L74.8666 11.2081C74.9306 10.0561 75.288 9.13878 75.9386 8.45611C76.5893 7.77344 77.4586 7.43211 78.5466 7.43211C79.72 7.43211 80.6266 7.80544 81.2666 8.55211C81.9173 9.29878 82.2426 10.3121 82.2426 11.5921V11.8801C82.2426 11.9868 82.2053 12.0774 82.1306 12.1521C82.0666 12.2161 81.9813 12.2481 81.8746 12.2481H76.3226V12.3921C76.3546 13.0854 76.568 13.6774 76.9626 14.1681C77.3573 14.6588 77.88 14.9041 78.5306 14.9041C79.032 14.9041 79.4373 14.8081 79.7466 14.6161C80.0666 14.4134 80.3066 14.2054 80.4666 13.9921C80.5626 13.8641 80.6373 13.7894 80.6906 13.7681C80.744 13.7361 80.8346 13.7201 80.9626 13.7201H81.6666C81.7626 13.7201 81.8426 13.7468 81.9066 13.8001C81.9813 13.8534 82.0186 13.9228 82.0186 14.0081C82.0186 14.2428 81.8746 14.5254 81.5866 14.8561C81.2986 15.1868 80.888 15.4748 80.3546 15.7201C79.832 15.9548 79.2293 16.0721 78.5466 16.0721ZM80.7866 11.1601V11.1121C80.7866 10.3654 80.584 9.75744 80.1786 9.28811C79.7733 8.81878 79.2293 8.58411 78.5466 8.58411C77.8533 8.58411 77.3093 8.81878 76.9146 9.28811C76.52 9.75744 76.3226 10.3654 76.3226 11.1121V11.1601H80.7866ZM87.5161 16.0721C86.3748 16.0721 85.4841 15.7521 84.8441 15.1121C84.2041 14.4614 83.8681 13.5548 83.8361 12.3921L83.8201 11.7521L83.8361 11.1121C83.8681 9.94944 84.2041 9.04811 84.8441 8.40811C85.4841 7.75744 86.3748 7.43211 87.5161 7.43211C88.2841 7.43211 88.9295 7.57078 89.4521 7.84811C89.9855 8.11478 90.3801 8.45078 90.6361 8.85611C90.9028 9.26144 91.0468 9.66678 91.0681 10.0721C91.0788 10.1681 91.0415 10.2534 90.9561 10.3281C90.8815 10.4028 90.7961 10.4401 90.7001 10.4401H89.9961C89.8895 10.4401 89.8095 10.4188 89.7561 10.3761C89.7028 10.3228 89.6495 10.2321 89.5961 10.1041C89.4041 9.58144 89.1375 9.21344 88.7961 9.00011C88.4655 8.77611 88.0441 8.66411 87.5321 8.66411C86.8601 8.66411 86.3268 8.87211 85.9321 9.28811C85.5375 9.70411 85.3241 10.3388 85.2921 11.1921L85.2761 11.7521L85.2921 12.3121C85.3241 13.1654 85.5375 13.8001 85.9321 14.2161C86.3268 14.6321 86.8601 14.8401 87.5321 14.8401C88.0548 14.8401 88.4815 14.7334 88.8121 14.5201C89.1428 14.2961 89.4041 13.9228 89.5961 13.4001C89.6495 13.2721 89.7028 13.1868 89.7561 13.1441C89.8095 13.0908 89.8895 13.0641 89.9961 13.0641H90.7001C90.7961 13.0641 90.8815 13.1014 90.9561 13.1761C91.0415 13.2508 91.0788 13.3361 91.0681 13.4321C91.0468 13.8268 90.9028 14.2268 90.6361 14.6321C90.3801 15.0374 89.9855 15.3788 89.4521 15.6561C88.9295 15.9334 88.2841 16.0721 87.5161 16.0721ZM96.089 16.0721C95.0757 16.0721 94.2917 15.7468 93.737 15.0961C93.1823 14.4348 92.905 13.5601 92.905 12.4721V7.96011C92.905 7.85344 92.937 7.76811 93.001 7.70411C93.0757 7.62944 93.1663 7.59211 93.273 7.59211H94.009C94.1157 7.59211 94.201 7.62944 94.265 7.70411C94.3397 7.76811 94.377 7.85344 94.377 7.96011V12.3921C94.377 14.0134 95.081 14.8241 96.489 14.8241C97.1717 14.8241 97.7103 14.6108 98.105 14.1841C98.5103 13.7468 98.713 13.1494 98.713 12.3921V7.96011C98.713 7.85344 98.745 7.76811 98.809 7.70411C98.8837 7.62944 98.9743 7.59211 99.081 7.59211H99.817C99.9237 7.59211 100.009 7.62944 100.073 7.70411C100.148 7.76811 100.185 7.85344 100.185 7.96011V15.5441C100.185 15.6508 100.148 15.7414 100.073 15.8161C100.009 15.8801 99.9237 15.9121 99.817 15.9121H99.129C99.0223 15.9121 98.9317 15.8801 98.857 15.8161C98.793 15.7414 98.761 15.6508 98.761 15.5441V14.8241C98.4517 15.2401 98.089 15.5548 97.673 15.7681C97.257 15.9708 96.729 16.0721 96.089 16.0721ZM102.947 15.9121C102.84 15.9121 102.749 15.8801 102.675 15.8161C102.611 15.7414 102.579 15.6508 102.579 15.5441V7.97611C102.579 7.86944 102.611 7.77878 102.675 7.70411C102.749 7.62944 102.84 7.59211 102.947 7.59211H103.619C103.736 7.59211 103.827 7.62944 103.891 7.70411C103.965 7.76811 104.003 7.85878 104.003 7.97611V8.68011C104.44 7.95478 105.181 7.59211 106.227 7.59211H106.851C106.968 7.59211 107.059 7.62411 107.123 7.68811C107.187 7.75211 107.219 7.84278 107.219 7.96011V8.55211C107.219 8.65878 107.187 8.74944 107.123 8.82411C107.059 8.88811 106.968 8.92011 106.851 8.92011H105.939C105.352 8.92011 104.888 9.09078 104.547 9.43211C104.216 9.77344 104.051 10.2374 104.051 10.8241V15.5441C104.051 15.6508 104.013 15.7414 103.939 15.8161C103.864 15.8801 103.773 15.9121 103.667 15.9121H102.947ZM111.734 16.0721C110.646 16.0721 109.777 15.7361 109.126 15.0641C108.475 14.3814 108.118 13.4534 108.054 12.2801L108.038 11.7361L108.054 11.2081C108.118 10.0561 108.475 9.13878 109.126 8.45611C109.777 7.77344 110.646 7.43211 111.734 7.43211C112.907 7.43211 113.814 7.80544 114.454 8.55211C115.105 9.29878 115.43 10.3121 115.43 11.5921V11.8801C115.43 11.9868 115.393 12.0774 115.318 12.1521C115.254 12.2161 115.169 12.2481 115.062 12.2481H109.51V12.3921C109.542 13.0854 109.755 13.6774 110.15 14.1681C110.545 14.6588 111.067 14.9041 111.718 14.9041C112.219 14.9041 112.625 14.8081 112.934 14.6161C113.254 14.4134 113.494 14.2054 113.654 13.9921C113.75 13.8641 113.825 13.7894 113.878 13.7681C113.931 13.7361 114.022 13.7201 114.15 13.7201H114.854C114.95 13.7201 115.03 13.7468 115.094 13.8001C115.169 13.8534 115.206 13.9228 115.206 14.0081C115.206 14.2428 115.062 14.5254 114.774 14.8561C114.486 15.1868 114.075 15.4748 113.542 15.7201C113.019 15.9548 112.417 16.0721 111.734 16.0721ZM113.974 11.1601V11.1121C113.974 10.3654 113.771 9.75744 113.366 9.28811C112.961 8.81878 112.417 8.58411 111.734 8.58411C111.041 8.58411 110.497 8.81878 110.102 9.28811C109.707 9.75744 109.51 10.3654 109.51 11.1121V11.1601H113.974ZM121.697 18.9521C121.59 18.9521 121.5 18.9201 121.425 18.8561C121.361 18.7921 121.329 18.7014 121.329 18.5841V7.96011C121.329 7.84278 121.361 7.75211 121.425 7.68811C121.5 7.62411 121.59 7.59211 121.697 7.59211H122.369C122.486 7.59211 122.577 7.62411 122.641 7.68811C122.705 7.75211 122.737 7.84278 122.737 7.96011V8.66411C123.356 7.84278 124.236 7.43211 125.377 7.43211C126.497 7.43211 127.334 7.78944 127.889 8.50411C128.454 9.20811 128.753 10.1094 128.785 11.2081C128.796 11.3254 128.801 11.5068 128.801 11.7521C128.801 11.9974 128.796 12.1788 128.785 12.2961C128.753 13.3841 128.454 14.2854 127.889 15.0001C127.334 15.7148 126.497 16.0721 125.377 16.0721C124.236 16.0721 123.372 15.6668 122.785 14.8561V18.5841C122.785 18.6908 122.748 18.7761 122.673 18.8401C122.609 18.9148 122.524 18.9521 122.417 18.9521H121.697ZM125.073 14.8241C125.841 14.8241 126.401 14.5841 126.753 14.1041C127.105 13.6241 127.297 12.9948 127.329 12.2161C127.34 12.1094 127.345 11.9548 127.345 11.7521C127.345 9.70411 126.588 8.68011 125.073 8.68011C124.326 8.68011 123.761 8.93078 123.377 9.43211C123.004 9.92278 122.806 10.5041 122.785 11.1761C122.774 11.2934 122.769 11.5014 122.769 11.8001C122.769 12.0988 122.774 12.3068 122.785 12.4241C122.806 13.0748 123.009 13.6401 123.393 14.1201C123.788 14.5894 124.348 14.8241 125.073 14.8241ZM133.117 16.0721C132.594 16.0721 132.109 15.9654 131.661 15.7521C131.224 15.5388 130.872 15.2508 130.605 14.8881C130.349 14.5148 130.221 14.1041 130.221 13.6561C130.221 12.9521 130.509 12.3761 131.085 11.9281C131.661 11.4801 132.445 11.1814 133.437 11.0321L135.837 10.6961V10.2321C135.837 9.13344 135.202 8.58411 133.933 8.58411C133.442 8.58411 133.048 8.68544 132.749 8.88811C132.45 9.08011 132.232 9.30944 132.093 9.57611C132.05 9.68278 132.002 9.75744 131.949 9.80011C131.906 9.83211 131.842 9.84811 131.757 9.84811H131.133C131.037 9.84811 130.952 9.81611 130.877 9.75211C130.813 9.67744 130.781 9.59211 130.781 9.49611C130.781 9.25078 130.893 8.96811 131.117 8.64811C131.352 8.31744 131.709 8.03478 132.189 7.80011C132.669 7.55478 133.256 7.43211 133.949 7.43211C135.144 7.43211 135.997 7.70944 136.509 8.26411C137.032 8.81878 137.293 9.51211 137.293 10.3441V15.5441C137.293 15.6508 137.256 15.7414 137.181 15.8161C137.117 15.8801 137.032 15.9121 136.925 15.9121H136.221C136.114 15.9121 136.029 15.8801 135.965 15.8161C135.901 15.7414 135.869 15.6508 135.869 15.5441V14.8401C135.634 15.1921 135.293 15.4854 134.845 15.7201C134.397 15.9548 133.821 16.0721 133.117 16.0721ZM133.437 14.9041C134.141 14.9041 134.717 14.6748 135.165 14.2161C135.613 13.7574 135.837 13.0908 135.837 12.2161V11.7681L133.965 12.0401C133.197 12.1468 132.616 12.3281 132.221 12.5841C131.826 12.8401 131.629 13.1601 131.629 13.5441C131.629 13.9814 131.805 14.3174 132.157 14.5521C132.52 14.7868 132.946 14.9041 133.437 14.9041ZM140.894 18.9521C140.798 18.9521 140.718 18.9201 140.654 18.8561C140.59 18.7921 140.558 18.7174 140.558 18.6321C140.558 18.6001 140.585 18.5041 140.638 18.3441L141.886 15.4161L138.83 8.20011C138.766 8.07211 138.734 7.98144 138.734 7.92811C138.745 7.83211 138.782 7.75211 138.846 7.68811C138.91 7.62411 138.985 7.59211 139.07 7.59211H139.806C139.977 7.59211 140.105 7.67744 140.19 7.84811L142.654 13.7361L145.182 7.84811C145.267 7.67744 145.395 7.59211 145.566 7.59211H146.286C146.371 7.59211 146.446 7.62411 146.51 7.68811C146.574 7.75211 146.606 7.82678 146.606 7.91211C146.606 7.98678 146.579 8.08278 146.526 8.20011L141.998 18.6961C141.945 18.7814 141.886 18.8454 141.822 18.8881C141.769 18.9308 141.694 18.9521 141.598 18.9521H140.894ZM148.587 15.9121C148.481 15.9121 148.39 15.8801 148.315 15.8161C148.251 15.7414 148.219 15.6508 148.219 15.5441V7.96011C148.219 7.85344 148.251 7.76811 148.315 7.70411C148.39 7.62944 148.481 7.59211 148.587 7.59211H149.259C149.366 7.59211 149.451 7.62944 149.515 7.70411C149.579 7.76811 149.611 7.85344 149.611 7.96011V8.50411C150.187 7.78944 150.966 7.43211 151.947 7.43211C153.121 7.43211 153.953 7.92278 154.443 8.90411C154.699 8.45611 155.062 8.09878 155.531 7.83211C156.011 7.56544 156.545 7.43211 157.131 7.43211C158.006 7.43211 158.721 7.73078 159.275 8.32811C159.83 8.92544 160.107 9.78944 160.107 10.9201V15.5441C160.107 15.6508 160.07 15.7414 159.995 15.8161C159.931 15.8801 159.846 15.9121 159.739 15.9121H159.051C158.945 15.9121 158.854 15.8801 158.779 15.8161C158.715 15.7414 158.683 15.6508 158.683 15.5441V11.0641C158.683 10.2108 158.507 9.60278 158.155 9.24011C157.803 8.86678 157.339 8.68011 156.763 8.68011C156.251 8.68011 155.809 8.87211 155.435 9.25611C155.073 9.62944 154.891 10.2321 154.891 11.0641V15.5441C154.891 15.6508 154.854 15.7414 154.779 15.8161C154.715 15.8801 154.63 15.9121 154.523 15.9121H153.819C153.713 15.9121 153.622 15.8801 153.547 15.8161C153.483 15.7414 153.451 15.6508 153.451 15.5441V11.0641C153.451 10.2214 153.265 9.61344 152.891 9.24011C152.529 8.86678 152.075 8.68011 151.531 8.68011C151.019 8.68011 150.577 8.86678 150.203 9.24011C149.841 9.61344 149.659 10.2161 149.659 11.0481V15.5441C149.659 15.6508 149.622 15.7414 149.547 15.8161C149.483 15.8801 149.398 15.9121 149.291 15.9121H148.587ZM165.719 16.0721C164.631 16.0721 163.761 15.7361 163.111 15.0641C162.46 14.3814 162.103 13.4534 162.039 12.2801L162.023 11.7361L162.039 11.2081C162.103 10.0561 162.46 9.13878 163.111 8.45611C163.761 7.77344 164.631 7.43211 165.719 7.43211C166.892 7.43211 167.799 7.80544 168.439 8.55211C169.089 9.29878 169.415 10.3121 169.415 11.5921V11.8801C169.415 11.9868 169.377 12.0774 169.303 12.1521C169.239 12.2161 169.153 12.2481 169.047 12.2481H163.495V12.3921C163.527 13.0854 163.74 13.6774 164.135 14.1681C164.529 14.6588 165.052 14.9041 165.703 14.9041C166.204 14.9041 166.609 14.8081 166.919 14.6161C167.239 14.4134 167.479 14.2054 167.639 13.9921C167.735 13.8641 167.809 13.7894 167.863 13.7681C167.916 13.7361 168.007 13.7201 168.135 13.7201H168.839C168.935 13.7201 169.015 13.7468 169.079 13.8001C169.153 13.8534 169.191 13.9228 169.191 14.0081C169.191 14.2428 169.047 14.5254 168.759 14.8561C168.471 15.1868 168.06 15.4748 167.527 15.7201C167.004 15.9548 166.401 16.0721 165.719 16.0721ZM167.959 11.1601V11.1121C167.959 10.3654 167.756 9.75744 167.351 9.28811C166.945 8.81878 166.401 8.58411 165.719 8.58411C165.025 8.58411 164.481 8.81878 164.087 9.28811C163.692 9.75744 163.495 10.3654 163.495 11.1121V11.1601H167.959ZM171.728 15.9121C171.621 15.9121 171.531 15.8801 171.456 15.8161C171.392 15.7414 171.36 15.6508 171.36 15.5441V7.96011C171.36 7.85344 171.392 7.76811 171.456 7.70411C171.531 7.62944 171.621 7.59211 171.728 7.59211H172.416C172.533 7.59211 172.624 7.62411 172.688 7.68811C172.752 7.75211 172.784 7.84278 172.784 7.96011V8.66411C173.104 8.26944 173.472 7.96544 173.888 7.75211C174.315 7.53878 174.843 7.43211 175.472 7.43211C176.496 7.43211 177.291 7.76278 177.856 8.42411C178.421 9.07478 178.704 9.93878 178.704 11.0161V15.5441C178.704 15.6508 178.667 15.7414 178.592 15.8161C178.528 15.8801 178.443 15.9121 178.336 15.9121H177.6C177.493 15.9121 177.403 15.8801 177.328 15.8161C177.264 15.7414 177.232 15.6508 177.232 15.5441V11.1121C177.232 10.3441 177.045 9.74678 176.672 9.32011C176.299 8.89344 175.765 8.68011 175.072 8.68011C174.389 8.68011 173.845 8.89878 173.44 9.33611C173.035 9.76278 172.832 10.3548 172.832 11.1121V15.5441C172.832 15.6508 172.795 15.7414 172.72 15.8161C172.656 15.8801 172.571 15.9121 172.464 15.9121H171.728ZM184.107 15.9121C182.454 15.9121 181.627 14.9788 181.627 13.1121V8.82411H180.363C180.256 8.82411 180.171 8.79211 180.107 8.72811C180.043 8.66411 180.011 8.57878 180.011 8.47211V7.96011C180.011 7.85344 180.043 7.76811 180.107 7.70411C180.171 7.62944 180.256 7.59211 180.363 7.59211H181.627V4.92011C181.627 4.81344 181.659 4.72811 181.723 4.66411C181.787 4.58944 181.872 4.55211 181.979 4.55211H182.683C182.79 4.55211 182.875 4.58944 182.939 4.66411C183.014 4.72811 183.051 4.81344 183.051 4.92011V7.59211H185.035C185.142 7.59211 185.227 7.62944 185.291 7.70411C185.366 7.76811 185.403 7.85344 185.403 7.96011V8.47211C185.403 8.57878 185.366 8.66411 185.291 8.72811C185.227 8.79211 185.142 8.82411 185.035 8.82411H183.051V13.0001C183.051 13.5441 183.136 13.9548 183.307 14.2321C183.488 14.5094 183.792 14.6481 184.219 14.6481H185.195C185.302 14.6481 185.387 14.6854 185.451 14.7601C185.515 14.8241 185.547 14.9094 185.547 15.0161V15.5441C185.547 15.6508 185.515 15.7414 185.451 15.8161C185.387 15.8801 185.302 15.9121 185.195 15.9121H184.107Z" fill="white"/>
<path d="M13.0853 6.91211H12.2134V5.19782C12.2134 2.83211 10.2604 0.912109 7.85401 0.912109C5.4476 0.912109 3.49458 2.83211 3.49458 5.19782V6.91211H2.62269C1.66362 6.91211 0.878922 7.68354 0.878922 8.6264V17.1978C0.878922 18.1407 1.66362 18.9121 2.62269 18.9121H13.0853C14.0444 18.9121 14.8291 18.1407 14.8291 17.1978V8.6264C14.8291 7.68354 14.0444 6.91211 13.0853 6.91211ZM7.85401 14.6264C6.89494 14.6264 6.11024 13.855 6.11024 12.9121C6.11024 11.9693 6.89494 11.1978 7.85401 11.1978C8.81309 11.1978 9.59778 11.9693 9.59778 12.9121C9.59778 13.855 8.81309 14.6264 7.85401 14.6264ZM10.5569 6.91211H5.15116V5.19782C5.15116 3.73211 6.36309 2.54068 7.85401 2.54068C9.34494 2.54068 10.5569 3.73211 10.5569 5.19782V6.91211Z" fill="white"/>
</svg>
