<svg width="117" height="85" viewBox="0 0 117 85" fill="none" xmlns="http://www.w3.org/2000/svg">
<path d="M51.1926 26.1387C71.7906 23.998 90.6807 39.4461 101.818 67.479C96.6132 65.9451 94.6461 58.4559 88.3119 60.3439C87.9485 61.1827 87.4122 61.9016 87.5628 62.1297C92.3644 68.9366 97.0594 75.8231 102.157 82.3974C103.877 84.6214 107.065 84.8289 108.626 82.1607C111.923 76.522 115.439 70.8886 116.65 62.996C113.238 64.4339 110.846 65.4323 109.079 66.1867C105.186 58.3312 101.978 50.2666 97.4207 43.0363C86.6876 25.9665 71.3404 16.3967 50.6384 17.1461C47.3603 17.2697 45.6748 15.8928 43.6813 13.6524C35.3498 4.26224 24.762 -0.138583 12.2205 1.00804C7.66516 1.42246 2.70119 2.12527 0.0582517 8.72667C8.00616 4.98752 15.2029 4.88856 22.4212 7.16174C29.5011 9.3953 35.7263 12.8294 39.739 19.221C35.3501 24.4106 30.5507 28.8791 27.3155 34.2712C24.0954 39.672 21.658 45.8476 20.3017 52.0022C18.9122 58.3191 22.3972 63.5991 27.4581 65.8364C32.519 68.0736 38.1297 66.6351 42.4599 61.5124C49.2753 53.4485 52.0854 43.9386 51.7849 33.459C51.7052 31.0129 51.398 28.5767 51.1926 26.1387ZM44.183 27.939C46.2101 38.8511 43.8438 47.4879 38.2096 55.4273C36.3715 58.0161 34.0256 60.3319 30.5267 58.5329C27.5443 56.992 27.5801 53.9269 28.2861 51.1681C30.6114 42.0438 35.4808 34.5905 44.183 27.939Z" fill="#EF5F3C"/>
</svg>
