<svg width="72" height="75" viewBox="0 0 72 75" fill="none" xmlns="http://www.w3.org/2000/svg">
<path d="M43.5421 29.5936C43.1039 26.5189 40.5096 24.1402 37.5195 24.98C26.7268 28.0113 18.0943 37.6402 13.1219 52.1049C11.8096 55.9225 13.6827 56.1728 17.4758 54.7912C17.7064 54.7072 17.9496 54.6415 18.2071 54.5968C19.1427 54.4343 20.877 54.9371 20.4991 55.8082C17.7969 61.545 15.1851 67.3273 12.2306 72.9287C11.2339 74.8231 8.87123 75.3991 7.34883 73.6045C4.89106 70.7057 2.33788 67.826 0.400896 64.0588C-0.417378 62.4673 1.48799 60.9042 3.23251 61.3028C4.4155 61.5732 5.17105 60.7776 5.49657 59.6086C7.08879 53.8905 8.39334 48.1638 10.5899 42.7931C16.3857 28.5795 26.63 19.3804 42.2502 17.2118C44.7243 16.872 45.8064 15.6175 47.0055 13.6748C52.0135 5.53567 59.3713 0.839705 68.9255 0.0452714C73.1 -0.303728 71.5452 2.92991 67.4786 3.9354C65.6273 4.39316 63.8408 5.0942 62.0891 6.0044C59.3081 7.45128 56.773 9.14042 54.697 11.2661C51.6547 14.3813 53.0239 19.1525 56.4346 21.8594C58.4536 23.4617 60.3661 25.0972 61.9952 26.9752C65.1218 30.5997 67.7637 34.9084 69.5923 39.3439C71.4673 43.8967 69.5508 48.3151 66.0515 50.66C62.5521 53.0048 58.1558 52.6663 54.2336 49.3967C48.0602 44.2497 44.699 37.4903 43.5421 29.5936ZM60.7745 34.8977C56.5632 28.7437 48.702 33.6914 52.9 39.8544C53.9617 41.4131 55.205 42.8777 56.6177 44.2738C58.3372 45.9723 60.4015 47.3992 62.7875 45.5889C64.8203 44.0403 64.3892 41.7469 63.4961 39.7717C62.7143 38.0382 61.8139 36.4166 60.7745 34.8977Z" fill="#EF5F3C"/>
</svg>
