<svg width="106" height="30" viewBox="0 0 106 30" fill="none" xmlns="http://www.w3.org/2000/svg">
<path d="M9.88697 6.72314V10.1435H0V6.72314H9.88697ZM2.24461 2.78973H6.79796V18.0958C6.79796 18.5162 6.86209 18.844 6.99035 19.0792C7.11862 19.3072 7.29676 19.4675 7.52478 19.5602C7.75993 19.6528 8.03071 19.6991 8.33712 19.6991C8.55089 19.6991 8.76466 19.6813 8.97843 19.6457C9.19221 19.6029 9.3561 19.5709 9.47011 19.5495L10.1862 22.9378C9.95822 23.009 9.63757 23.091 9.22427 23.1836C8.81098 23.2834 8.30861 23.3439 7.71718 23.3653C6.61981 23.4081 5.65784 23.262 4.83125 22.9271C4.01179 22.5922 3.37404 22.072 2.91799 21.3665C2.46194 20.6611 2.23748 19.7704 2.24461 18.6944V2.78973Z" fill="#007FDB"/>
<path d="M17.5347 23.4508C16.4872 23.4508 15.5537 23.2691 14.7343 22.9057C13.9148 22.5352 13.2663 21.99 12.7889 21.2703C12.3186 20.5435 12.0835 19.6385 12.0835 18.5554C12.0835 17.6433 12.2509 16.8773 12.5858 16.2574C12.9208 15.6374 13.3768 15.1386 13.954 14.761C14.5312 14.3833 15.1867 14.0983 15.9207 13.9059C16.6618 13.7135 17.4385 13.5781 18.2508 13.4997C19.2057 13.4 19.9752 13.3073 20.5595 13.2218C21.1439 13.1292 21.5678 12.9938 21.8315 12.8156C22.0951 12.6375 22.227 12.3739 22.227 12.0247V11.9606C22.227 11.2836 22.0132 10.7599 21.5857 10.3893C21.1652 10.0188 20.5667 9.83352 19.79 9.83352C18.9705 9.83352 18.3185 10.0152 17.8339 10.3786C17.3494 10.7349 17.0287 11.1839 16.872 11.7254L12.6607 11.3834C12.8744 10.3858 13.2949 9.52355 13.9219 8.79673C14.549 8.06278 15.3578 7.49984 16.3482 7.10793C17.3458 6.70889 18.5002 6.50937 19.8113 6.50937C20.7234 6.50937 21.5963 6.61625 22.4301 6.83002C23.2709 7.0438 24.0155 7.37514 24.664 7.82406C25.3195 8.27299 25.8362 8.85017 26.2138 9.55562C26.5915 10.2539 26.7803 11.0912 26.7803 12.0674V23.1408H22.4621V20.8642H22.3339C22.0702 21.3772 21.7175 21.8297 21.2757 22.2216C20.8339 22.6064 20.303 22.9093 19.6831 23.1302C19.0631 23.3439 18.347 23.4508 17.5347 23.4508ZM18.8387 20.3084C19.5085 20.3084 20.0999 20.1765 20.613 19.9129C21.126 19.6421 21.5286 19.2787 21.8208 18.8226C22.113 18.3666 22.259 17.85 22.259 17.2728V15.5306C22.1165 15.6232 21.9206 15.7087 21.6712 15.7871C21.4289 15.8583 21.1545 15.926 20.8481 15.9902C20.5417 16.0472 20.2353 16.1006 19.9289 16.1505C19.6225 16.1933 19.3446 16.2324 19.0952 16.2681C18.5608 16.3465 18.094 16.4712 17.695 16.6422C17.296 16.8132 16.986 17.0448 16.7651 17.3369C16.5442 17.622 16.4337 17.9782 16.4337 18.4058C16.4337 19.0257 16.6582 19.4996 17.1071 19.8274C17.5632 20.148 18.1404 20.3084 18.8387 20.3084Z" fill="#007FDB"/>
<path d="M30.3129 23.1408V6.72314H34.8663V23.1408H30.3129ZM32.6003 4.60679C31.9233 4.60679 31.3426 4.38233 30.858 3.93341C30.3806 3.47736 30.1419 2.93224 30.1419 2.29805C30.1419 1.67099 30.3806 1.13299 30.858 0.684072C31.3426 0.228024 31.9233 0 32.6003 0C33.2772 0 33.8544 0.228024 34.3318 0.684072C34.8164 1.13299 35.0586 1.67099 35.0586 2.29805C35.0586 2.93224 34.8164 3.47736 34.3318 3.93341C33.8544 4.38233 33.2772 4.60679 32.6003 4.60679Z" fill="#007FDB"/>
<path d="M43.0671 1.25057V23.1408H38.5137V1.25057H43.0671Z" fill="#007FDB"/>
<path d="M49.9532 23.1408L45.4854 6.72314H50.0922L52.6361 17.7538H52.7857L55.4365 6.72314H59.9578L62.6513 17.6897H62.7903L65.2914 6.72314H69.8875L65.4303 23.1408H60.6098L57.788 12.8156H57.5849L54.7631 23.1408H49.9532Z" fill="#007FDB"/>
<path d="M76.9981 23.4508C75.9506 23.4508 75.0171 23.2691 74.1977 22.9057C73.3782 22.5352 72.7298 21.99 72.2523 21.2703C71.782 20.5435 71.5469 19.6385 71.5469 18.5554C71.5469 17.6433 71.7144 16.8773 72.0493 16.2574C72.3842 15.6374 72.8402 15.1386 73.4174 14.761C73.9946 14.3833 74.6502 14.0983 75.3841 13.9059C76.1252 13.7135 76.9019 13.5781 77.7142 13.4997C78.6691 13.4 79.4387 13.3073 80.023 13.2218C80.6073 13.1292 81.0313 12.9938 81.2949 12.8156C81.5586 12.6375 81.6904 12.3739 81.6904 12.0247V11.9606C81.6904 11.2836 81.4766 10.7599 81.0491 10.3893C80.6287 10.0188 80.0301 9.83352 79.2534 9.83352C78.4339 9.83352 77.7819 10.0152 77.2974 10.3786C76.8128 10.7349 76.4922 11.1839 76.3354 11.7254L72.1241 11.3834C72.3379 10.3858 72.7583 9.52355 73.3853 8.79673C74.0124 8.06278 74.8212 7.49984 75.8117 7.10793C76.8093 6.70889 77.9636 6.50937 79.2748 6.50937C80.1869 6.50937 81.0598 6.61625 81.8935 6.83002C82.7343 7.0438 83.4789 7.37514 84.1274 7.82406C84.783 8.27299 85.2996 8.85017 85.6772 9.55562C86.0549 10.2539 86.2437 11.0912 86.2437 12.0674V23.1408H81.9255V20.8642H81.7973C81.5336 21.3772 81.1809 21.8297 80.7391 22.2216C80.2973 22.6064 79.7664 22.9093 79.1465 23.1302C78.5266 23.3439 77.8104 23.4508 76.9981 23.4508ZM78.3021 20.3084C78.9719 20.3084 79.5634 20.1765 80.0764 19.9129C80.5895 19.6421 80.9921 19.2787 81.2842 18.8226C81.5764 18.3666 81.7225 17.85 81.7225 17.2728V15.5306C81.5799 15.6232 81.384 15.7087 81.1346 15.7871C80.8923 15.8583 80.618 15.926 80.3116 15.9902C80.0052 16.0472 79.6987 16.1006 79.3923 16.1505C79.0859 16.1933 78.808 16.2324 78.5586 16.2681C78.0242 16.3465 77.5575 16.4712 77.1584 16.6422C76.7594 16.8132 76.4494 17.0448 76.2285 17.3369C76.0076 17.622 75.8972 17.9782 75.8972 18.4058C75.8972 19.0257 76.1216 19.4996 76.5705 19.8274C77.0266 20.148 77.6038 20.3084 78.3021 20.3084Z" fill="#007FDB"/>
<path d="M97.1728 29.6395C95.6978 29.6395 94.433 29.4364 93.3784 29.0303C92.3309 28.6312 91.4972 28.0861 90.8773 27.3949C90.2573 26.7037 89.8547 25.927 89.6694 25.0648L93.8808 24.4983C94.009 24.8261 94.2121 25.1325 94.49 25.4175C94.7679 25.7026 95.1349 25.9306 95.5909 26.1016C96.0541 26.2797 96.617 26.3688 97.2797 26.3688C98.2702 26.3688 99.0861 26.1265 99.7274 25.642C100.376 25.1646 100.7 24.3629 100.7 23.237V20.2335H100.508C100.308 20.6896 100.009 21.1207 99.6098 21.5269C99.2108 21.933 98.6977 22.2644 98.0707 22.5209C97.4436 22.7774 96.6954 22.9057 95.8261 22.9057C94.5933 22.9057 93.471 22.6207 92.4592 22.0506C91.4544 21.4734 90.6528 20.5934 90.0542 19.4105C89.4628 18.2205 89.1671 16.717 89.1671 14.8999C89.1671 13.0401 89.4699 11.4867 90.0756 10.2397C90.6813 8.99269 91.4865 8.05922 92.4912 7.43928C93.5031 6.81934 94.6111 6.50937 95.8154 6.50937C96.7346 6.50937 97.5042 6.66613 98.1241 6.97967C98.7441 7.28607 99.2429 7.67086 99.6205 8.13404C100.005 8.59008 100.301 9.039 100.508 9.4808H100.679V6.72314H105.2V23.3012C105.2 24.6978 104.858 25.8664 104.174 26.807C103.49 27.7476 102.542 28.4531 101.331 28.9234C100.126 29.4008 98.7405 29.6395 97.1728 29.6395ZM97.269 19.4853C98.003 19.4853 98.6229 19.3036 99.1289 18.9402C99.6419 18.5697 100.034 18.0424 100.305 17.3583C100.583 16.6671 100.721 15.8405 100.721 14.8786C100.721 13.9166 100.586 13.0829 100.315 12.3774C100.045 11.6648 99.6526 11.1126 99.1395 10.7207C98.6265 10.3288 98.003 10.1328 97.269 10.1328C96.5208 10.1328 95.8902 10.3359 95.3772 10.7421C94.8641 11.1411 94.4758 11.6969 94.2121 12.4095C93.9485 13.1221 93.8166 13.9451 93.8166 14.8786C93.8166 15.8263 93.9485 16.6457 94.2121 17.3369C94.4829 18.021 94.8712 18.5519 95.3772 18.9295C95.8902 19.3001 96.5208 19.4853 97.269 19.4853Z" fill="#007FDB"/>
</svg>
