<svg width="106" height="22" viewBox="0 0 106 22" fill="none" xmlns="http://www.w3.org/2000/svg">
<path d="M14.4968 0.0858321H10.3088L7.24839 6.29874L4.18796 0.0858321H0L5.40753 10.0035V16.1934H9.08925V10.0035L14.4968 0.0858321ZM18.9902 16.5155C22.3727 16.5155 25.088 13.8693 25.088 10.4407C25.088 7.01207 22.3727 4.36583 18.9902 4.36583C15.6076 4.36583 12.8923 7.01207 12.8923 10.4407C12.8923 13.8693 15.6076 16.5155 18.9902 16.5155ZM18.9902 13.1559C17.4945 13.1559 16.3439 12.0744 16.3439 10.4407C16.3439 8.80691 17.4945 7.7254 18.9902 7.7254C20.4859 7.7254 21.6364 8.80691 21.6364 10.4407C21.6364 12.0744 20.4859 13.1559 18.9902 13.1559ZM34.4728 4.68798V10.9699C34.4728 12.6037 33.5984 13.34 32.3328 13.34C31.2283 13.34 30.3309 12.6727 30.3309 11.246V4.68798H26.8793V11.7523C26.8793 14.8587 28.8582 16.5155 31.1823 16.5155C32.701 16.5155 33.8515 15.9633 34.4728 15.1119V16.1934H37.9244V4.68798H34.4728ZM43.9074 6.73594V4.68798H40.4558V16.1934H43.9074V10.9929C43.9074 8.71486 45.9323 8.1396 47.359 8.3697V4.45787C45.9093 4.45787 44.3676 5.19422 43.9074 6.73594ZM58.5219 12.6497V0.0858321H54.8402V16.1934H64.2746V12.6497H58.5219ZM71.1913 16.5155C74.5739 16.5155 77.2892 13.8693 77.2892 10.4407C77.2892 7.01207 74.5739 4.36583 71.1913 4.36583C67.8087 4.36583 65.0935 7.01207 65.0935 10.4407C65.0935 13.8693 67.8087 16.5155 71.1913 16.5155ZM71.1913 13.1559C69.6956 13.1559 68.5451 12.0744 68.5451 10.4407C68.5451 8.80691 69.6956 7.7254 71.1913 7.7254C72.687 7.7254 73.8375 8.80691 73.8375 10.4407C73.8375 12.0744 72.687 13.1559 71.1913 13.1559ZM87.6864 4.68798V5.86153C86.9271 4.91809 85.8226 4.36583 84.3269 4.36583C81.0593 4.36583 78.6662 7.03508 78.6662 10.2106C78.6662 13.386 81.0593 16.0553 84.3269 16.0553C85.8226 16.0553 86.9271 15.503 87.6864 14.5596V15.6181C87.6864 17.2519 86.697 18.0802 85.0862 18.0802C83.5675 18.0802 82.9002 17.4359 82.463 16.6306L79.5176 18.3334C80.5761 20.2202 82.578 21.1177 84.9712 21.1177C88.0316 21.1177 91.046 19.4839 91.046 15.6181V4.68798H87.6864ZM84.9021 12.8798C83.2684 12.8798 82.1178 11.7983 82.1178 10.2106C82.1178 8.62282 83.2684 7.54132 84.9021 7.54132C86.5359 7.54132 87.6864 8.62282 87.6864 10.2106C87.6864 11.7983 86.5359 12.8798 84.9021 12.8798ZM99.1008 16.5155C102.483 16.5155 105.199 13.8693 105.199 10.4407C105.199 7.01207 102.483 4.36583 99.1008 4.36583C95.7183 4.36583 93.003 7.01207 93.003 10.4407C93.003 13.8693 95.7183 16.5155 99.1008 16.5155ZM99.1008 13.1559C97.6051 13.1559 96.4546 12.0744 96.4546 10.4407C96.4546 8.80691 97.6051 7.7254 99.1008 7.7254C100.597 7.7254 101.747 8.80691 101.747 10.4407C101.747 12.0744 100.597 13.1559 99.1008 13.1559Z" fill="#007FDB"/>
</svg>
