<svg width="40" height="41" viewBox="0 0 40 41" fill="none" xmlns="http://www.w3.org/2000/svg">
<path fill-rule="evenodd" clip-rule="evenodd" d="M19.9998 0.475586C31.0376 0.475586 39.9998 9.4258 39.9998 20.4756C39.9998 31.5134 31.0496 40.4756 19.9998 40.4756C8.96202 40.4756 -0.000183105 31.5254 -0.000183105 20.4756C-0.000183105 9.43779 8.95003 0.475586 19.9998 0.475586ZM30.9536 16.0005C30.9536 16.0005 30.7377 14.4528 30.0658 13.7809C29.214 12.8931 28.2542 12.8811 27.8223 12.8331C24.6909 12.6052 19.9998 12.6052 19.9998 12.6052H19.9878C19.9878 12.6052 15.2848 12.6052 12.1654 12.8331C11.7335 12.8811 10.7737 12.8931 9.92183 13.7809C9.24997 14.4528 9.03401 16.0005 9.03401 16.0005C9.03401 16.0005 8.80606 17.8121 8.80606 19.6238V21.3154C8.80606 23.1271 9.03401 24.9387 9.03401 24.9387C9.03401 24.9387 9.24997 26.4864 9.92183 27.1582C10.7737 28.0461 11.8894 28.0221 12.3933 28.1181C14.181 28.286 19.9998 28.346 19.9998 28.346C19.9998 28.346 24.7029 28.334 27.8342 28.1181C28.2662 28.0701 29.226 28.0581 30.0778 27.1702C30.7497 26.4984 30.9656 24.9507 30.9656 24.9507C30.9656 24.9507 31.1936 23.1391 31.1936 21.3274V19.6358C31.1936 17.8241 30.9656 16.0125 30.9656 16.0125L30.9536 16.0005ZM17.6723 23.379V17.0923L23.7191 20.2476L17.6723 23.379Z" fill="white"/>
</svg>
